<svg xmlns="http://www.w3.org/2000/svg" width="191.312" height="75.24"><path data-name="パス 42" d="M0 63.448c0 6.16 3.432 10.824 9.856 10.824 5.368 0 7.04-3.08 10.736-3.08a11.585 11.585 0 0 1 5.192 1.584 10.282 10.282 0 0 0 4.84 1.672 10.674 10.674 0 0 0 7.216-3.168h-.528c-2.64 0-3.784-1.848-4.224-4.224-.176-.792-.264-2.552-.264-9.152V41.096c0-5.9-.616-8.1-.88-8.8-2.288-5.368-8.272-6.688-13.992-6.688-7.392 0-16.016 4.048-16.016 11 0 1.672.7 3.256 2.552 3.256 2.024 0 2.728-1.408 2.728-3.168l-.088-3.168c0-5.544 6.16-7.216 10.824-7.216 7.568 0 9.416 5.192 9.68 11.616a6.028 6.028 0 0 1-2.2 4.84 33.841 33.841 0 0 1-6.688 3.344C11.88 49.104 0 54.648 0 63.448Zm19.1-16.632c3.344-1.5 6.424-2.816 8.536-4.928v26.136c.088 3.08.7 4.488 1.232 5.1.176.176.264.352.44.44a14.2 14.2 0 0 1-3.168-1.32 11.442 11.442 0 0 0-5.456-1.76 9.032 9.032 0 0 0-3.7.792 7.416 7.416 0 0 1-2.64.528A8.737 8.737 0 0 1 8.1 68.728c-8.892-9.856 2.284-18.304 11-21.912ZM40.572 8.184c.176.88.352 3.08.352 10.736v50.512c5.1 3.08 11 5.808 17.072 5.808 5.104 0 9.588-2.2 14.604-6.78 5.456-5.1 8.1-11.616 8.1-19.976 0-7.04-1.76-12.584-5.28-16.544-3.344-4.048-7.216-5.9-11.88-5.9-6.864 0-14.432 7.48-17.424 13.024V0h-.176l-8.8 3.608c2.02.704 2.988 2.552 3.428 4.576Zm5.544 32.384c3.256-6.6 8.272-10.824 13.64-10.824 3.608 0 7.3 1.848 10.736 5.984 3.08 3.7 4.664 9.064 4.664 15.84 0 7.392-1.584 13.024-4.664 16.984A15.184 15.184 0 0 1 58.7 74.448c-4.752 0-8.712-2.552-12.056-5.72l-.528-.616ZM84.744 50.86c0 12.676 9.064 24.2 21.556 24.2 13.644 0 22.532-12.58 22.532-25.6 0-12.32-9.24-23.76-21.648-23.76-13.376-.004-22.44 12.404-22.44 25.16Zm6.16-4.576c0-9.328 1.848-17.336 12.32-19.448a14.693 14.693 0 0 1 3.256-.352c12.584 0 16.1 16.368 16.1 27.192 0 9.152-.792 17.16-10.56 19.8a18.124 18.124 0 0 1-4.576.7C94.952 74.184 90.9 57.024 90.9 46.288Zm43.12-16.804c.616 1.408.88 3.7.88 7.216v21.208c-.004 7.216 1.496 16.808 10.824 16.808 6.072 0 12.936-4.752 16.192-10.56a29.12 29.12 0 0 0 2.552-5.984v16.544h.088l8.976-3.7c-4.664-1.584-3.96-11.792-3.96-15.84V27.46H162.1a5.27 5.27 0 0 1 1.584 2.2c.352.792.792 2.112.792 7.04v18.656a31.6 31.6 0 0 1-3.08 8.448c-2.644 4.656-7.748 8.268-12.412 8.268-7.832 0-8.888-9.152-8.888-15.048l-.088-29.564h-7.48a4.882 4.882 0 0 1 1.496 2.02Zm42.944-2.02v35.288c0 5.544 1.056 11.352 7.744 11.352a9.668 9.668 0 0 0 5.988-2.292 2.808 2.808 0 0 0 .616-.528 5.686 5.686 0 0 1-2.376.44c-5.632 0-6.864-5.72-6.864-10.208V27.28h4.752a.233.233 0 0 0 .264-.264c0-.176-.088-.44-.264-.44h-4.756V14.608a20.957 20.957 0 0 1-1.584 3.168 31.444 31.444 0 0 1-5.9 7.128 19.692 19.692 0 0 1-3.08 2.552Z"/></svg>