<svg xmlns="http://www.w3.org/2000/svg" width="209.768" height="73.62"><g data-name="グループ 73" fill="#fff"><path data-name="パス 42" d="M2.133 20.52c.99 1.35 3.51 3.6 9.9 6.66 5.58 2.88 9.27 5.13 11.16 7.02 5.76 5.4 4.05 14.22-3.96 16.47a14.34 14.34 0 0 1-3.87.54c-6.39 0-12.33-4.5-15.12-10.26v8.28a3.774 3.774 0 0 1 1.98-.45c3.51 0 8.1 3.15 13.59 3.15 7.47 0 14.94-6.93 14.94-14.49 0-5.13-3.24-9.36-10.08-12.6l-8.19-3.96c-3.78-1.89-6.3-3.6-7.65-5.31-4.5-5.67-1.89-12.42 5.04-14.4a15.636 15.636 0 0 1 3.51-.45c6.93 0 10.8 3.15 13.59 9v-7.2a3.245 3.245 0 0 1-1.8.54c-.81.18-2.16-.27-3.87-1.08A16.5 16.5 0 0 0 13.563 0a13.862 13.862 0 0 0-3.87.54C1.958 2.7-3.082 13.95 2.133 20.52Zm32.13 18.81c0 6.3 3.51 11.07 10.08 11.07 5.49 0 7.2-3.15 10.98-3.15a11.848 11.848 0 0 1 5.31 1.62 10.516 10.516 0 0 0 4.955 1.71 10.917 10.917 0 0 0 7.38-3.24h-.54c-2.7 0-3.87-1.89-4.32-4.32-.18-.81-.27-2.61-.27-9.36V16.47c0-6.03-.63-8.28-.9-9-2.34-5.49-8.46-6.84-14.31-6.84-7.56 0-16.38 4.14-16.38 11.25 0 1.71.72 3.33 2.61 3.33 2.07 0 2.79-1.44 2.79-3.24l-.09-3.24c0-5.67 6.3-7.38 11.07-7.38 7.74 0 9.63 5.31 9.9 11.88a6.165 6.165 0 0 1-2.25 4.95 34.61 34.61 0 0 1-6.84 3.42c-7.02 3.06-19.17 8.73-19.17 17.73Zm19.53-17.01c3.42-1.53 6.57-2.88 8.73-5.04v26.73c.09 3.15.72 4.59 1.26 5.22.18.18.27.36.45.45a14.521 14.521 0 0 1-3.24-1.35 11.7 11.7 0 0 0-5.58-1.8 9.237 9.237 0 0 0-3.78.81 7.585 7.585 0 0 1-2.7.54 8.935 8.935 0 0 1-6.39-3.15c-9.085-10.08 2.345-18.72 11.255-22.41Zm21.33-17.55a3.6 3.6 0 0 1 1.62.9 7.11 7.11 0 0 1 1.98 3.87c.18.9.36 3.15.36 11.52v18.9c0 3.24 0 7.02-2.43 9.45h10.17a6.868 6.868 0 0 1-1.62-2.25c-.36-.81-.81-2.34-.81-7.2V20.88a28.429 28.429 0 0 1 3.15-8.73c2.7-4.68 7.92-8.37 12.69-8.37 7.92 0 9.09 9.27 9.09 15.3v20.88c0 4.05-.09 5.04-.36 5.67a7.387 7.387 0 0 1-2.07 3.78h10.17a5.039 5.039 0 0 1-1.53-2.16c-.72-1.44-.99-3.78-.99-7.29V18.18c0-4.23-.36-7.56-1.08-9.45-1.98-5.49-5.76-7.74-9.9-7.74-6.21 0-13.23 4.95-16.56 10.8a28.489 28.489 0 0 0-2.61 6.21V1.08h-.09Zm45.54 1.08a6.3 6.3 0 0 1 1.89 3.87c.27.9.54 3.06.54 11.25v43.92c0 4.23-.36 5.58-.72 6.3a6.146 6.146 0 0 1-1.8 2.43h10.53c-3.6-2.88-2.79-11.07-2.79-15.21V44.28c4.59 4.5 7.92 7.83 15.3 7.2 12.42-1.08 20.435-13.77 20.435-25.11 0-17.37-10.08-25.11-19.71-25.11a16.731 16.731 0 0 0-16.02 10.89V1.26h-.185l-8.91 3.69a3.523 3.523 0 0 1 1.445.9Zm7.65 9.45c.81-7.38 6.12-11.16 12.06-11.16 8.1 0 17.46 7.2 17.46 22.23 0 9.27-3.42 23.49-14.31 24.39-5.4.54-10.44-1.44-12.96-6.3a19.45 19.45 0 0 1-2.25-7.56Zm41.045-10.71c.63 1.44.9 3.78.9 7.38v21.69c0 7.38 1.53 17.19 11.07 17.19 6.21 0 13.23-4.86 16.56-10.8a29.782 29.782 0 0 0 2.61-6.12v16.92h.09l9.18-3.78c-4.77-1.62-4.05-12.06-4.05-16.2V2.52h-7.65a5.39 5.39 0 0 1 1.62 2.25c.36.81.81 2.16.81 7.2v19.08a32.321 32.321 0 0 1-3.15 8.64c-2.7 4.77-7.92 8.46-12.69 8.46-8.01 0-9.09-9.36-9.09-15.39l-.09-30.24h-7.65a4.992 4.992 0 0 1 1.53 2.07Z"/><path data-name="パス 44" d="M129.189 14.19a12.428 12.428 0 0 1 1.691-.133h12.953c.114 0 .209-.057.209-.133q0-.057-.114-.171c-1.026-.836-1.349-1.1-2.413-1.862-.665.76-.874.988-1.5 1.767h-9.082a9.3 9.3 0 0 1-1.881-.152Zm.969 6.175a11.475 11.475 0 0 1 1.6-.114h10.75c.133 0 .228-.038.228-.114 0-.057-.019-.1-.095-.171a72.713 72.713 0 0 0-2.356-1.843 30.66 30.66 0 0 0-1.463 1.729h-7.068a7.257 7.257 0 0 1-1.71-.171Zm-2.28 6.992a12.835 12.835 0 0 1 1.786-.114h15.238q.228 0 .228-.114c0-.038-.038-.095-.114-.19a62.832 62.832 0 0 0-2.508-1.938c-.7.779-.912 1.026-1.6 1.843h-11.244a9.466 9.466 0 0 1-1.919-.171Z"/><path data-name="パス 43" d="M151.195 36.645v.475c.019.247.1.3.38.3 1.026 0 1.311-.076 1.33-.4-.019-.855-.019-.855-.019-2.565l-.019-1.382v-.3c.323-.133.532-.3.532-.456 0-.057-.038-.1-.152-.209-.532-.456-.7-.589-1.311-1.045-.4.437-.532.57-.874 1.007h-1.14v-2.185c.665-.114.95-.171 2.2-.456a5.519 5.519 0 0 0 .779.114c.171 0 .285-.1.285-.19 0-.209-.285-.475-1.1-1.045-.19-.133-.494-.361-.893-.646a11.768 11.768 0 0 1-3.019 1.478 22.491 22.491 0 0 1-3.553.95l.038.228h.456c.684 0 1.748-.076 3.059-.209v1.957h-1.041a16.056 16.056 0 0 0-1.98-1.007c.038.722.057 1.216.057 2.394s0 1.178-.057 3.952c.019.38.095.456.475.456a4.09 4.09 0 0 0 1.083-.133c.133-.038.19-.152.209-.361v-.722h1.254v3.1c-1.938.19-3.021.285-3.648.285-.133 0-.342 0-.608-.019.209.76.209.76.722 2.337.1.247.152.342.285.342.152 0 .228-.114.285-.456.019-.057.038-.152.076-.266a53.618 53.618 0 0 0 2.847-.839c1.029-.339 1.865-.608 2-.646a16.037 16.037 0 0 0 1.784-.593 10.931 10.931 0 0 1 .494 1.714c.1.456.266.646.551.646.646 0 1.254-.8 1.254-1.672 0-.893-1.178-1.919-3.306-2.907l-.171.119a6.693 6.693 0 0 1 .931 1.52 15.9 15.9 0 0 1-1.748.228v-2.893Zm0-.4h-1.273v-3.78h1.273Zm-3.021 0h-1.254v-3.78h1.254Zm-7.657 7.107a11.217 11.217 0 0 0 1.235-1.387 13.549 13.549 0 0 0 1.781-3.287c.665-1.862.893-3.971.931-8.17.019-1.843.038-2.964.038-3.363h9.144c-.019 1.083-.038 1.615-.038 2.318a59.093 59.093 0 0 0 .325 6.46 12.5 12.5 0 0 0 1.765 5.51c.608.931 1.292 1.463 1.9 1.463a.948.948 0 0 0 .969-1.006.861.861 0 0 0-.171-.551 2.49 2.49 0 0 1-.437-1.254.147.147 0 0 1 .019-.057l.418-3.952-.19-.057c-.627 1.843-.8 2.28-1.235 3.344a6.519 6.519 0 0 1-.931-2.3 26.2 26.2 0 0 1-.475-5.586c0-.133.019-1.368.076-3.686.266-.171.4-.266.437-.285.228-.171.323-.266.323-.361a.445.445 0 0 0-.133-.247 15.981 15.981 0 0 0-1.672-1.254 11.4 11.4 0 0 0-1.045 1.1h-8.74a23.268 23.268 0 0 0-2.527-1.2 24.482 24.482 0 0 1 .171 3.458 63.862 63.862 0 0 1-.361 8.688 14.443 14.443 0 0 1-1.729 5.51Z"/></g></svg>