<svg xmlns="http://www.w3.org/2000/svg" width="489.28" height="97.504"><path data-name="パス 60" d="M1.408 30.712a6.161 6.161 0 0 1 1.848 3.784c.264.88.528 2.992.528 11V88.44c0 4.136-.352 5.456-.7 6.16a6.009 6.009 0 0 1-1.76 2.376h10.3C8.096 94.16 8.888 86.152 8.888 82.104V68.288c4.488 4.4 7.744 7.656 14.96 7.04 12.144-1.056 19.976-13.468 19.976-24.552 0-16.984-9.856-24.552-19.272-24.552A16.359 16.359 0 0 0 8.888 36.872V26.224h-.176L0 29.832a3.445 3.445 0 0 1 1.408.88Zm7.48 9.24c.792-7.216 5.98-10.912 11.792-10.912 7.92 0 17.072 7.04 17.072 21.736 0 9.064-3.344 22.968-13.992 23.848-5.28.528-10.208-1.408-12.672-6.164a19.018 19.018 0 0 1-2.2-7.392Zm41.272-5.808c.176.792.352 2.728.352 10.648V64.06c0 4.048-.176 5.28-.352 5.72a7.021 7.021 0 0 1-2.112 3.52h11.088c-3.168-2.288-3.52-5.984-3.52-9.68V39.776c1.5-4.576 4.928-9.768 9.328-9.768a7.3 7.3 0 0 1 4.488 1.76 4.96 4.96 0 0 0 3.08 1.408 2.773 2.773 0 0 0 1.936-.88 3.525 3.525 0 0 0-.44-5.016 4.536 4.536 0 0 0-3.168-1.144c-5.808 0-13.024 6.512-15.224 11.792v-11.88l-9.064 3.7c2.116.612 3.168 2.284 3.608 4.396Zm30.008-.176c.352 1.76.44 5.28.44 10.912v19.18c0 3.08 0 6.864-2.376 9.24h10.12a7.571 7.571 0 0 1-1.76-2.288c-.264-.792-.792-2.464-.792-6.952V26.048h-.088l-8.976 3.612c2.112.612 2.904 2.372 3.432 4.308Zm-1.232-16.984a3.55 3.55 0 0 0 3.608 3.52 3.607 3.607 0 0 0 3.608-3.52 3.624 3.624 0 0 0-3.608-3.608 3.516 3.516 0 0 0-3.608 3.608Zm15.488 17.16 17.072 40.304L129.712 30.8a7.978 7.978 0 0 1 2.464-3.256h-4.308c.088 0 .088.088.264.176a3.091 3.091 0 0 1 .88 2.992l-15.316 36.52-12.848-30.624a13.257 13.257 0 0 1-1.32-5.28 5.569 5.569 0 0 1 1.408-3.784H89.668c2.468 1.408 3.788 4.048 4.756 6.6Zm37.752 29.3c0 6.16 3.432 10.824 9.856 10.824 5.368 0 7.04-3.08 10.736-3.08a11.585 11.585 0 0 1 5.192 1.584 10.282 10.282 0 0 0 4.84 1.672 10.674 10.674 0 0 0 7.216-3.168h-.528c-2.64 0-3.784-1.848-4.224-4.224-.176-.792-.264-2.552-.264-9.152V41.096c0-5.9-.616-8.1-.88-8.8-2.288-5.368-8.272-6.688-13.992-6.688-7.392 0-16.016 4.048-16.016 11 0 1.672.7 3.256 2.552 3.256 2.024 0 2.728-1.408 2.728-3.168l-.088-3.168c0-5.544 6.16-7.216 10.824-7.216 7.568 0 9.416 5.192 9.68 11.616a6.028 6.028 0 0 1-2.2 4.84 33.841 33.841 0 0 1-6.688 3.344c-6.864 2.992-18.744 8.536-18.744 17.336Zm19.1-16.632c3.344-1.5 6.424-2.816 8.536-4.928v26.14c.088 3.08.7 4.488 1.232 5.1.176.176.264.352.44.44a14.2 14.2 0 0 1-3.168-1.32 11.442 11.442 0 0 0-5.456-1.76 9.032 9.032 0 0 0-3.7.792 7.416 7.416 0 0 1-2.64.528 8.737 8.737 0 0 1-6.248-3.08c-8.888-9.852 2.288-18.3 10.996-21.908Zm20.416 3.608c0 7.48 2.024 13.64 5.808 18.04a17.844 17.844 0 0 0 13.368 6.34c7.48 0 14.784-5.1 17.424-13.9.088-.088 0-.264-.176-.352a.943.943 0 0 0-.528.176c-1.936 6.688-7.04 9.68-12.408 9.68a16.934 16.934 0 0 1-13.9-7.832 30.879 30.879 0 0 1-4.576-16.812c0-9.856 3.344-17.512 13.816-19.008 5.984-.792 9.944.792 10.472 7.216.352 2.552.7 3.256.968 3.432.352.616 1.144 1.32 3.256 1.32 1.936 0 3.08-.7 3.08-2.728q0-3.3-3.96-6.6c-3.52-2.816-9.24-3.96-13.552-3.432-11.616 1.056-19.096 13.112-19.096 24.464Zm36.956 42.86c0 2.728 3.08 4.224 5.368 4.224 6.776 0 12.056-5.72 14.256-11.176l21.12-51.92c1.056-2.728 1.76-4.752 4.048-6.776h-5.192c.088 0 .088.088.176.176a5.679 5.679 0 0 1 .616 4.488l-13.728 34.5-13.9-28.776c-1.5-3.08-3.344-7.48-.352-10.384h-11.7a26.507 26.507 0 0 1 5.368 7.48L232.76 73.04l-5.192 13.02c-1.056 2.816-4.312 6.072-7.656 6.072-2.288 0-5.016-1.936-7.568-1.936-2.112.004-3.696.796-3.696 3.084Zm75.064-62.568a6.161 6.161 0 0 1 1.848 3.784c.264.88.528 2.992.528 11V88.44c0 4.136-.352 5.456-.7 6.16a6.009 6.009 0 0 1-1.76 2.376h10.3c-3.52-2.816-2.728-10.824-2.728-14.872V68.288c4.488 4.4 7.744 7.656 14.96 7.04 12.136-1.056 19.968-13.468 19.968-24.552 0-16.984-9.856-24.552-19.272-24.552a16.359 16.359 0 0 0-15.664 10.648V26.224h-.176l-8.712 3.608a3.445 3.445 0 0 1 1.408.88Zm7.48 9.24c.792-7.216 5.984-10.912 11.792-10.912 7.92 0 17.072 7.04 17.072 21.736 0 9.064-3.344 22.968-13.992 23.848-5.28.528-10.208-1.408-12.672-6.16a19.018 19.018 0 0 1-2.2-7.392Zm38.896 10.908c0 12.672 9.064 24.2 21.56 24.2 13.64 0 22.528-12.58 22.528-25.6 0-12.32-9.24-23.76-21.648-23.76-13.376-.004-22.44 12.404-22.44 25.16Zm6.16-4.576c0-9.328 1.848-17.336 12.32-19.448a14.694 14.694 0 0 1 3.256-.352c12.584 0 16.1 16.368 16.1 27.192 0 9.152-.792 17.16-10.56 19.8a18.124 18.124 0 0 1-4.576.7c-12.492.008-16.54-17.152-16.54-27.888Zm42.152-41.8a5.126 5.126 0 0 1 1.848 3.7c.264.88.44 2.992.44 10.648V64.06c0 3.344-.176 5.544-.792 6.952a7.094 7.094 0 0 1-1.584 2.288h10.032c-2.464-2.112-2.464-6.336-2.464-9.24V0h-.088l-8.8 3.608a3.445 3.445 0 0 1 1.408.88Zm16.9 29.48c.352 1.76.44 5.28.44 10.912V64.06c0 3.08 0 6.864-2.376 9.24h10.12a7.571 7.571 0 0 1-1.76-2.288c-.264-.792-.792-2.464-.792-6.952V26.048h-.088l-8.976 3.612c2.108.612 2.9 2.372 3.428 4.308Zm-1.232-16.98a3.55 3.55 0 0 0 3.608 3.52 3.607 3.607 0 0 0 3.608-3.52 3.624 3.624 0 0 0-3.608-3.608 3.516 3.516 0 0 0-3.608 3.608Zm13.464 33.44c0 7.48 2.024 13.64 5.808 18.04a17.844 17.844 0 0 0 13.372 6.336c7.48 0 14.784-5.1 17.424-13.9.088-.088 0-.264-.176-.352a.943.943 0 0 0-.528.176c-1.936 6.688-7.04 9.68-12.408 9.68a16.934 16.934 0 0 1-13.9-7.832 30.879 30.879 0 0 1-4.58-16.812c0-9.856 3.344-17.512 13.816-19.008 5.984-.792 9.944.792 10.472 7.216.352 2.552.7 3.256.968 3.432.352.616 1.144 1.32 3.256 1.32 1.936 0 3.08-.7 3.08-2.728q0-3.3-3.96-6.6c-3.52-2.816-9.24-3.96-13.552-3.432-11.616 1.056-19.096 13.112-19.096 24.464Zm36.956 42.856c0 2.728 3.08 4.224 5.368 4.224 6.776 0 12.056-5.72 14.256-11.176l21.12-51.92c1.056-2.728 1.76-4.752 4.048-6.776h-5.192c.088 0 .088.088.176.176a5.679 5.679 0 0 1 .616 4.488l-13.728 34.5-13.9-28.776c-1.5-3.08-3.344-7.48-.352-10.384h-11.7a26.507 26.507 0 0 1 5.368 7.48L468.6 73.04l-5.192 13.02c-1.056 2.816-4.312 6.072-7.656 6.072-2.288 0-5.016-1.936-7.568-1.936-2.116.004-3.696.796-3.696 3.084Z"/></svg>