<svg data-name="グループ 1629" xmlns="http://www.w3.org/2000/svg" width="74.678" height="161.749"><defs><clipPath id="a"><path data-name="長方形 145" fill="none" d="M0 0h74.678v161.749H0z"/></clipPath></defs><g data-name="グループ 1627" clip-path="url(#a)"><path data-name="パス 40" d="M23.181 123.279c1.179 0 2.948 1.29 2.948 2.064 0 .332-.295.59-1.032.59-3.206 0-15.518.074-18.208.074-.811 0-1.548-.111-1.88-1.032-.184-.553-.074-.884.663-.811 3.39.221 13.122.221 15.26.221.663 0 1.474-1.105 2.248-1.105m4.533 12.745c-.885 0-1.622 1.253-2.285 1.253-2.543 0-18.024.147-24.657-.3-.737-.074-.885.258-.7.848.3.885.921 1.179 1.954 1.179l27.79-.074c.774 0 1.069-.258 1.069-.627 0-.737-2.138-2.285-3.17-2.285M3.978 114.686c2.69 0 18.835-.074 23.81-.074.737 0 1.032-.221 1.032-.59 0-.7-2.1-2.211-3.1-2.211-.848 0-1.548 1.216-2.248 1.216-2.174 0-16.034.221-20.677-.405-.774-.111-.885.3-.7.885.258.848.885 1.179 1.88 1.179m62.206 21.944c1.7 2.359 1.4 4.644-.184 4.791-1.364.184-.737-1.732-2.358-4.607a91.526 91.526 0 0 1-12.091 3.2c-.7.111-.332.958-.958 1.106-.958.147-1.732-1.7-1.953-2.912-.074-.332.221-.516.774-.553 1.99-.147 4.149-.383 6.95-.678a1.022 1.022 0 0 1-.037-.332v-6.369h-2.1a.842.842 0 0 0-.651.848c-.059 1.466-.637 1.732-1.579 1.732-.7 0-1.069-.258-1.069-.995 0-2.138.037-8.882-.074-11.093-.037-.479.332-.7.848-.663a4.208 4.208 0 0 1 2.027.848h2.489c-.037-1.622-.074-2.7-.147-3.655-2.248.3-3.618.458-5.829.568-.737.037-.848-.59-.148-.7a85.982 85.982 0 0 0 11.927-3.152 1.131 1.131 0 0 1 1.032-.037c1.143.553 2.027 1.732 1.548 2.027-.516.3-.995-.147-1.511.037a26.618 26.618 0 0 1-3.738.782 1.083 1.083 0 0 0-.627 1.032c-.037.442-.037 1.407-.037 3.066 1.474 0 1.678-.037 2.01-.037.553-.074.921-.847 1.7-.847s2.211.847 2.211 1.474c0 .553-.737.553-.737 1.068 0 1.106.074 6.192.11 7.408.074 1.585-.553 1.916-1.548 1.916-.608 0-.967-.214-.995-.788a.881.881 0 0 0-.652-.87h-2.062c.037 2.432.037 4.711.074 5.227a2.191 2.191 0 0 1-.221 1.253c2.138-.258 3.373-.389 4.625-.61a13.239 13.239 0 0 0-2.211-2.543c-.479-.442-.037-.884.553-.553a13.049 13.049 0 0 1 4.644 3.612m-7.5-14.6c0 2.137 0 4.717.037 7.039h2.057a.841.841 0 0 0 .648-.848c-.013-1.7-.057-3.785-.09-5.381a.842.842 0 0 0-.669-.843c-.592.01-1.01.032-1.985.032m-2.358 7.039c-.037-2.285-.074-4.791-.111-7-1.253 0-1.42.037-2.157.037-.442.111-.59.442-.59.921 0 .773.056 3.176.07 5.2a.844.844 0 0 0 .655.848Zm18.225 12.708c-.368.7-1.585.7-2.58-.074-3.243-2.58-4.865-7.113-5.049-15a130.529 130.529 0 0 1 .549-14.242v.017c-.046-.752-.572-.843-.573-.843-5.7.041-15.142.143-18.441.143a.926.926 0 0 0-.59.848c0 1.732.111 11.462.111 13.231 0 7.923-1.585 12.457-6.081 16.621-.479.442-1.032.074-.7-.479 3.059-4.9 4.091-9.287 4.164-16.216 0-1.769-.037-13.636-.111-15.442-.037-.442.222-.737.848-.663a5.827 5.827 0 0 1 1.916.774c4.422.037 15.96-.037 18.651-.037.663 0 1.142-.848 1.916-.885.848 0 2.359.921 2.359 1.548 0 .59-.774.663-.848 1.069a132.361 132.361 0 0 0-.626 14.447c.11 4.938.516 8.66 2.027 10.724.442.626.7.516.921.037.368-.847.884-2.1 1.327-3.427a.402.402 0 0 1 .774.221 28.485 28.485 0 0 0-.627 4.828c.111 1.548 1.143 2.1.663 2.8" fill="#fff"/><path data-name="パス 41" d="M18.064 101.378c-1.413-.232-1.164 1.019-1.846.572-3.476-2.217-5.105-6.133-5.554-11.156a15.266 15.266 0 0 1-7.9 11.514c-.3.161-.5-.071-.216-.3 4.34-3.5 6.867-8.546 6.984-15.34.016-.25.033-.465.415-.465.549 0 1.6.393 1.6.8-.016.393-.632.268-.632.715 0 .2 0 .393-.016.572.166 3.683 1.613 10.227 7.283 12.658.316.143.25.483-.116.429" fill="#fff"/><path data-name="パス 42" d="M44.022 90.615c0 .287-.466.34-.466.59 0 7.366-.465 10.638-3.026 10.87-.9.071-.233-.894-2.078-1.431-.333-.089-.283-.518.1-.447.582.09 1.264.2 1.762.25 1.364.143 1.962-2.056 1.912-9.619l-5.038.054c-.1 5.56-1.862 9.1-6.984 11.281-.349.161-.532-.214-.216-.411 3.921-2.553 5.721-5.684 5.821-10.853l-4.556.035c-.582 0-.8-.143-.931-.536-.116-.286-.083-.465.249-.411.981.107 3.093.161 5.238.179 0-1.037 0-2.986-.033-3.9 0-.179.083-.34.383-.34.482 0 1.513.268 1.513.679 0 .358-.482.3-.482.608v2.95c2.079 0 3.974-.018 4.706-.036.266-.018.516-.447.882-.447.532 0 1.247.554 1.247.93" fill="#fff"/><path data-name="パス 43" d="M72.243 99.501c0 .161-.133.268-.449.268h-6.7c0 .984.017 1.7.017 2.021 0 .84-.349.965-.832.965-.349 0-.465-.125-.465-.5v-2.467h-6.568c-.449 0-.715-.071-.815-.447-.05-.25.033-.375.333-.34.848.071 4.007.107 7.067.107v-2.11h-3.549v.054c.016.8-.366.948-.865.948-.333 0-.449-.125-.449-.5.016-1.913.05-5.382-.016-6.937-.017-.251.133-.34.382-.322a2.5 2.5 0 0 1 1.031.375c.865.018 1.986.036 3.45.036v-1.913h-5.836c-.433 0-.682-.072-.8-.465-.083-.25-.033-.411.3-.375 1.264.125 3.858.161 6.335.179 0-.93-.016-1.645-.016-2.056a.32.32 0 0 1 .366-.357c.549 0 1.331.357 1.331.662 0 .339-.416.268-.432.572 0 .179-.017.608-.017 1.18 2.328.018 4.307 0 4.573 0 .3-.018.5-.5.9-.5.432 0 1.131.554 1.131.858 0 .161-.116.286-.433.286h-6.169v1.931c1.713 0 2.884 0 3.25-.036.266-.018.449-.447.832-.447.432 0 1.147.482 1.147.8 0 .25-.366.25-.366.536 0 .894.067 4.81.067 5.364 0 .8-.366.912-.865.912-.316 0-.432-.125-.432-.483v-.322h-3.6c0 .768 0 1.5.016 2.145h5.088c.266 0 .516-.536.9-.536.433 0 1.164.572 1.164.912m-8.431-8.242h-3.289a.461.461 0 0 0-.282.465v1.752c.831.018 2 .018 3.582.018 0-.751 0-1.5-.017-2.235m.017 5.1V94.14h-3.466a.265.265 0 0 1-.116-.018c0 .751.016 1.538.016 2.2.848.036 2 .036 3.566.036m1.214-5.078c0 .7.017 1.448.017 2.217h3.6V91.28Zm3.633 5.078v-2.235H65.06c0 .751 0 1.519.016 2.235Z" fill="#fff"/><path data-name="パス 44" d="M1.702 156.478c0-.537 0-.91-.583-.91v-.228l1.074-.21.164.155a5.846 5.846 0 0 0-.082 1.047v3.468c0 .628-.082 1.948-1.293 1.948-.437 0-.946-.182-.946-.674a.4.4 0 0 1 .41-.428c.082.437.309.738.673.738.564-.009.583-.692.583-1.1Zm-.228-2.74a.469.469 0 0 1 .51-.492.462.462 0 0 1 .5.492.452.452 0 0 1-.5.473.46.46 0 0 1-.51-.473" fill="#db6763"/><path data-name="パス 45" d="M4.114 159.8v-.229c.546-.073.546-.337.546-.865v-2.23c0-.537 0-.91-.583-.91v-.228l1.083-.21.164.155a5.9 5.9 0 0 0-.091 1.047v2.376c0 .528 0 .792.546.865v.228Zm.337-6.063a.5.5 0 0 1 1 0 .5.5 0 0 1-1 0" fill="#db6763"/><path data-name="パス 46" d="M11.351 158.708c0 .528 0 .792.546.865v.228h-1.666v-.228c.547-.082.547-.337.547-.865v-2.194a.806.806 0 0 0-.847-.946 1.977 1.977 0 0 0-1.757 2.066v1.074c0 .528 0 .783.546.865v.228H7.054v-.228c.546-.073.546-.337.546-.865v-2.23c0-.528 0-.9-.583-.91v-.219l1.038-.218.155.155c-.036.528-.055.591-.072 1.138l-.009.136a2.168 2.168 0 0 1 1.966-1.438c.774 0 1.256.464 1.256 1.392Z" fill="#db6763"/><path data-name="パス 47" d="M16.203 155.604a.6.6 0 0 1-.155.409c-.865-.482-1.675.155-1.766 1.639v1.056c0 .528 0 .792.664.865v.228h-1.784v-.228c.546-.073.546-.337.546-.865v-2.23c0-.528 0-.9-.583-.91v-.219l1.038-.218.155.155c-.045.482-.064.756-.082 1.138l-.009.291c.291-1.1.91-1.593 1.42-1.593a.491.491 0 0 1 .555.482" fill="#db6763"/><path data-name="パス 48" d="M17.459 159.8v-.229c.546-.073.546-.337.546-.865v-2.23c0-.537 0-.91-.583-.91v-.228l1.083-.21.164.155a5.9 5.9 0 0 0-.091 1.047v2.376c0 .528 0 .792.546.865v.228Zm.337-6.063a.5.5 0 0 1 1 0 .5.5 0 0 1-1 0" fill="#db6763"/><path data-name="パス 49" d="M24.942 159.555v.218a2.111 2.111 0 0 1-.592.082c-.491 0-.846-.455-1.338-1.374l-.632-1.185a8.956 8.956 0 0 1-.965.692v.719c0 .528 0 .783.546.865v.227h-1.662v-.227c.546-.073.546-.337.546-.865v-4.233c0-.537 0-.91-.582-.91v-.228l1.074-.209.155.145c-.027.428-.064.747-.073 1.184l-.045 3.149c.874-.519 2.048-1.575 2.048-1.893 0-.191-.237-.246-.619-.237v-.228h1.948v.228c-.492 0-.747.228-1.4.938a6.329 6.329 0 0 1-.555.528c.218.428.437.819.628 1.147.555.928.956 1.493 1.52 1.466" fill="#db6763"/><path data-name="パス 50" d="M25.952 159.8v-.229c.546-.073.546-.337.546-.865v-2.23c0-.537 0-.91-.583-.91v-.228l1.083-.21.164.155a5.9 5.9 0 0 0-.091 1.047v2.376c0 .528 0 .792.546.865v.228Zm.337-6.063a.5.5 0 0 1 1 0 .5.5 0 0 1-1 0" fill="#db6763"/><path data-name="パス 51" d="M28.966 158.887c0-.346.218-.574.483-.555-.018.983.6 1.22 1.238 1.22.61 0 1.138-.219 1.138-.838 0-1.192-2.658-.828-2.658-2.358 0-.8.664-1.238 1.548-1.238.728 0 1.5.291 1.5.974 0 .418-.346.5-.446.464-.045-.728-.373-1.065-1.074-1.065s-.992.328-.992.747c0 1.074 2.694.746 2.694 2.33 0 .892-.783 1.356-1.739 1.356-.856 0-1.693-.328-1.693-1.038" fill="#db6763"/><path data-name="パス 52" d="M37.914 158.708c0 .528 0 .792.546.865v.228h-1.666v-.228c.546-.082.546-.337.546-.865v-2.185a.822.822 0 0 0-.883-.956 2.014 2.014 0 0 0-1.72 2.1v1.038c0 .528 0 .783.546.865v.228h-1.666v-.228c.547-.072.547-.337.547-.865v-4.233c0-.537 0-.91-.583-.91v-.227l1.074-.209.155.145c-.028.428-.064.81-.073 1.184l-.055 2.13a2.132 2.132 0 0 1 1.957-1.466 1.214 1.214 0 0 1 1.275 1.392Z" fill="#db6763"/><path data-name="パス 53" d="M43.256 158.317c0 .865 0 1.192.573 1.12a.552.552 0 0 1-.573.473c-.391 0-.528-.228-.546-.573-.009-.155 0-.5.018-.865a1.878 1.878 0 0 1-1.766 1.456c-.783 0-1.21-.428-1.21-1.029 0-.755.637-1.12 1.411-1.347a4.52 4.52 0 0 0 1.52-.664v-.346a.912.912 0 0 0-1-1.047 1.076 1.076 0 0 0-1.165 1.138.378.378 0 0 1-.473-.419c0-.619.674-1.092 1.657-1.092 1.557 0 1.557 1.156 1.557 1.447Zm-.555-1.038a5.657 5.657 0 0 1-1.4.619c-.6.218-.919.446-.919.946a.625.625 0 0 0 .7.664c.965 0 1.575-1.11 1.62-2.23" fill="#db6763"/><path data-name="パス 54" d="M47.751 158.887c0-.346.218-.574.483-.555-.018.983.6 1.22 1.238 1.22.61 0 1.138-.219 1.138-.838 0-1.192-2.658-.828-2.658-2.358 0-.8.664-1.238 1.548-1.238.728 0 1.5.291 1.5.974 0 .418-.346.5-.446.464-.045-.728-.373-1.065-1.074-1.065s-.992.328-.992.747c0 1.074 2.694.746 2.694 2.33 0 .892-.783 1.356-1.739 1.356-.856 0-1.693-.328-1.693-1.038" fill="#db6763"/><path data-name="パス 55" d="M56.066 158.317c0 .865 0 1.192.573 1.12a.552.552 0 0 1-.573.473c-.391 0-.528-.228-.546-.573-.009-.155 0-.5.018-.865a1.878 1.878 0 0 1-1.766 1.456c-.783 0-1.21-.428-1.21-1.029 0-.755.637-1.12 1.411-1.347a4.52 4.52 0 0 0 1.52-.664v-.346a.912.912 0 0 0-1-1.047 1.076 1.076 0 0 0-1.165 1.138.378.378 0 0 1-.473-.419c0-.619.674-1.092 1.657-1.092 1.557 0 1.557 1.156 1.557 1.447Zm-.555-1.038a5.657 5.657 0 0 1-1.4.619c-.6.218-.919.446-.919.946a.625.625 0 0 0 .7.664c.965 0 1.575-1.11 1.62-2.23" fill="#db6763"/><path data-name="パス 56" d="M62.039 158.708c0 .528 0 .792.546.865v.228h-1.666v-.228c.547-.082.547-.337.547-.865v-2.194a.806.806 0 0 0-.847-.946 1.977 1.977 0 0 0-1.757 2.066v1.074c0 .528 0 .783.546.865v.228h-1.669v-.228c.546-.073.546-.337.546-.865v-2.23c0-.528 0-.9-.583-.91v-.219l1.038-.218.155.155c-.036.528-.055.591-.072 1.138l-.009.136a2.168 2.168 0 0 1 1.966-1.438c.774 0 1.256.464 1.256 1.392Z" fill="#db6763"/><path data-name="パス 57" d="M68.399 157.379c0 1.356-.655 2.549-2.057 2.549a1.963 1.963 0 0 1-1.457-.619l.019.492v.728c0 .528 0 .792.674.865v.227h-1.794v-.227c.546-.073.546-.337.546-.865v-4.051c0-.537 0-.91-.583-.91v-.228l1.074-.21.155.155c-.027.428-.046.683-.073.992a1.885 1.885 0 0 1 1.693-1.156c1.138 0 1.8.965 1.8 2.257m-.628.055c0-.846-.346-1.93-1.292-1.93-.929 0-1.575.919-1.575 2.194 0 .974.446 1.857 1.411 1.857.755 0 1.456-.528 1.456-2.121" fill="#db6763"/><path data-name="パス 58" d="M73.988 158.67c0 .555 0 .928.583.9v.227l-1.092.118-.137-.136c.027-.473.064-.792.082-1.175v-.027a2 2 0 0 1-1.839 1.347c-.765 0-1.256-.464-1.256-1.4v-2.048c0-.528 0-.9-.583-.91v-.218l1.074-.218.155.155c-.027.391-.073.792-.073 1.156v2.085c0 .318.045.956.883.956 1 0 1.629-1.12 1.629-2.094v-.91c0-.528 0-.9-.583-.91v-.218l1.074-.218.164.164a8.3 8.3 0 0 0-.082 1.147Z" fill="#db6763"/><path data-name="パス 59" d="M37.168 34.659a41.733 41.733 0 0 1-8.475-32.135A2.3 2.3 0 0 1 30.542.615 37.551 37.551 0 0 1 43.835.572a2.3 2.3 0 0 1 1.858 1.893 41.734 41.734 0 0 1-8.2 32.193c-.146.146-.176.147-.321 0m-2.03 4.013c.053-.2.037-.224-.161-.277a41.735 41.735 0 0 0-31.987 8.992 2.3 2.3 0 0 0-.71 2.556 37.574 37.574 0 0 0 6.684 11.491 2.3 2.3 0 0 0 2.578.646 41.735 41.735 0 0 0 23.592-23.407m36.557 8.479a41.733 41.733 0 0 0-32.067-8.728c-.2.053-.213.079-.159.279A41.732 41.732 0 0 0 63.247 61.9a2.3 2.3 0 0 0 2.568-.663 37.523 37.523 0 0 0 6.61-11.534 2.3 2.3 0 0 0-.73-2.556M51.289 2.714a.921.921 0 0 0-1.256.968 45.8 45.8 0 0 1-6.782 29.955.18.18 0 0 0 .162.278 45.812 45.812 0 0 1 29.371 8.859.92.92 0 0 0 1.46-.614A37.3 37.3 0 0 0 51.289 2.714m8.727 62.336A45.8 45.8 0 0 1 37.472 44.2a.18.18 0 0 0-.322 0 45.812 45.812 0 0 1-22.352 21 .92.92 0 0 0-.2 1.57 37.248 37.248 0 0 0 45.629-.157.92.92 0 0 0-.212-1.569m-28.8-31.135a.181.181 0 0 0 .16-.28A45.807 45.807 0 0 1 24.36 3.767a.921.921 0 0 0-1.263-.957A37.294 37.294 0 0 0 .417 42.418a.919.919 0 0 0 1.463.6 45.8 45.8 0 0 1 29.331-9.1" fill="#db6763"/></g></svg>