<svg data-name="グループ 1630" xmlns="http://www.w3.org/2000/svg" width="126" height="57.081"><defs><clipPath id="a"><path data-name="長方形 146" fill="none" d="M0 0h126v57.081H0z"/></clipPath></defs><g data-name="グループ 1630" clip-path="url(#a)"><path data-name="パス 60" d="M87.366 28.22c.885 0 2.212.968 2.212 1.548 0 .249-.221.442-.774.442-2.405 0-11.642.055-13.66.055-.608 0-1.161-.083-1.41-.774-.138-.415-.055-.663.5-.608 2.544.166 9.845.166 11.449.166.5 0 1.106-.829 1.686-.829m3.4 9.561c-.664 0-1.216.94-1.714.94-1.908 0-13.522.111-18.5-.221-.553-.055-.664.194-.526.636.221.664.691.885 1.466.885l20.849-.055c.58 0 .8-.194.8-.47 0-.553-1.6-1.714-2.378-1.714M72.96 21.773c2.018 0 14.13-.055 17.862-.055.553 0 .774-.166.774-.442 0-.525-1.576-1.659-2.322-1.659-.636 0-1.161.912-1.687.912-1.631 0-12.029.166-15.512-.3-.58-.083-.664.221-.525.664.193.636.664.885 1.41.885m46.669 16.463c1.272 1.77 1.051 3.484-.138 3.594-1.023.138-.553-1.3-1.769-3.456a68.668 68.668 0 0 1-9.071 2.4c-.525.083-.249.719-.719.83-.719.111-1.3-1.272-1.465-2.184-.055-.249.166-.387.58-.415 1.493-.11 3.113-.287 5.214-.509a.767.767 0 0 1-.028-.249v-4.779h-1.577a.632.632 0 0 0-.489.636c-.044 1.1-.478 1.3-1.185 1.3-.525 0-.8-.194-.8-.746 0-1.6.028-6.663-.055-8.322-.028-.36.249-.525.636-.5a3.157 3.157 0 0 1 1.521.636h1.867c-.028-1.217-.055-2.023-.111-2.742-1.687.221-2.714.343-4.373.426-.553.028-.636-.443-.111-.525a64.507 64.507 0 0 0 8.948-2.368.848.848 0 0 1 .774-.028c.857.415 1.521 1.3 1.161 1.521-.387.221-.746-.111-1.134.028a19.964 19.964 0 0 1-2.8.587.812.812 0 0 0-.47.774c-.028.332-.028 1.056-.028 2.3 1.106 0 1.259-.028 1.508-.028.415-.055.691-.636 1.272-.636s1.659.636 1.659 1.106c0 .415-.553.415-.553.8 0 .829.055 4.645.083 5.558.055 1.189-.415 1.438-1.161 1.438-.456 0-.726-.161-.746-.591a.661.661 0 0 0-.495-.656h-1.544c.028 1.825.028 3.534.055 3.921a1.643 1.643 0 0 1-.166.94c1.6-.193 2.53-.292 3.47-.458a9.931 9.931 0 0 0-1.659-1.908c-.359-.332-.028-.663.415-.415a9.789 9.789 0 0 1 3.484 2.71m-5.627-10.956c0 1.6 0 3.539.028 5.281h1.544a.631.631 0 0 0 .486-.636c-.01-1.277-.043-2.839-.068-4.037a.631.631 0 0 0-.5-.632c-.444.008-.758.024-1.489.024m-1.769 5.281-.083-5.253c-.94 0-1.065.028-1.618.028-.332.083-.443.332-.443.691 0 .58.042 2.382.053 3.9a.633.633 0 0 0 .491.636Zm13.673 9.534c-.276.526-1.189.526-1.935-.055-2.433-1.936-3.65-5.336-3.788-11.253a97.938 97.938 0 0 1 .412-10.685v.013c-.035-.564-.429-.633-.43-.633-4.275.03-11.36.107-13.835.107a.694.694 0 0 0-.443.636c0 1.3.083 8.6.083 9.926 0 5.944-1.189 9.345-4.562 12.47-.36.331-.774.055-.526-.36 2.295-3.677 3.069-6.968 3.124-12.166 0-1.327-.028-10.23-.083-11.585-.028-.332.166-.553.636-.5a4.372 4.372 0 0 1 1.438.581c3.318.028 11.974-.028 13.992-.028.5 0 .857-.636 1.438-.664.636 0 1.77.691 1.77 1.161 0 .442-.581.5-.636.8a99.291 99.291 0 0 0-.47 10.838c.083 3.7.387 6.5 1.521 8.046.332.47.525.387.691.028.276-.636.663-1.576 1-2.571a.302.302 0 0 1 .58.166 21.367 21.367 0 0 0-.47 3.622c.083 1.161.857 1.576.5 2.1" fill="#fff"/><path data-name="パス 61" d="M83.526 11.79c-1.06-.174-.873.764-1.385.429-2.608-1.663-3.83-4.6-4.167-8.37a11.454 11.454 0 0 1-5.926 8.638c-.224.121-.374-.054-.162-.228C75.142 9.63 77.038 5.847 77.125.75c.012-.188.025-.349.312-.349.412 0 1.2.3 1.2.6s-.474.2-.474.537c0 .147 0 .3-.012.429.125 2.763 1.21 7.672 5.464 9.5.237.107.187.362-.087.322" fill="#fff"/><path data-name="パス 62" d="M103.002 3.715c0 .215-.35.255-.35.443 0 5.526-.349 7.981-2.27 8.155-.673.054-.175-.671-1.559-1.073-.249-.067-.212-.389.075-.335.437.067.948.147 1.322.188 1.023.107 1.472-1.543 1.435-7.216l-3.78.04c-.075 4.171-1.4 6.827-5.239 8.463-.262.121-.4-.161-.162-.309 2.944-1.918 4.292-4.265 4.367-8.141l-3.418.027c-.437 0-.6-.107-.7-.4-.087-.214-.062-.349.187-.309.736.08 2.32.121 3.93.134 0-.778 0-2.24-.025-2.924 0-.135.062-.255.287-.255.362 0 1.135.2 1.135.51 0 .268-.362.228-.362.456V3.38c1.56 0 2.981-.014 3.53-.027.2-.013.387-.335.661-.335.4 0 .936.416.936.7" fill="#fff"/><path data-name="パス 63" d="M124.173 10.382c0 .121-.1.2-.337.2h-5.027c0 .738.013 1.274.013 1.516 0 .63-.262.724-.624.724-.262 0-.349-.094-.349-.376V10.6h-4.928c-.337 0-.537-.054-.611-.335-.037-.188.025-.282.25-.255.636.054 3.006.08 5.3.08V8.5h-2.663v.04c.012.6-.275.711-.649.711-.249 0-.337-.094-.337-.376.012-1.435.037-4.037-.012-5.2-.013-.188.1-.255.287-.241a1.872 1.872 0 0 1 .773.281c.649.014 1.49.027 2.588.027V2.307h-4.379c-.324 0-.511-.054-.6-.349-.062-.188-.025-.309.225-.282.948.094 2.894.121 4.753.134 0-.7-.012-1.234-.012-1.543A.24.24 0 0 1 118.11 0c.412 0 1 .268 1 .5 0 .255-.312.2-.324.429 0 .134-.013.456-.013.885 1.747.013 3.231 0 3.431 0 .224-.013.374-.376.674-.376.324 0 .848.416.848.644 0 .121-.087.215-.325.215h-4.63v1.445c1.285 0 2.164 0 2.438-.027.2-.013.337-.335.624-.335.324 0 .861.362.861.6 0 .188-.275.188-.275.4 0 .671.05 3.608.05 4.024 0 .6-.275.684-.649.684-.237 0-.324-.094-.324-.362v-.235h-2.7c0 .577 0 1.127.012 1.609h3.817c.2 0 .387-.4.674-.4.324 0 .873.429.873.684M117.848 4.2h-2.467a.346.346 0 0 0-.212.349v1.312c.624.013 1.5.013 2.688.013 0-.563 0-1.127-.013-1.677m.013 3.823V6.358h-2.6a.2.2 0 0 1-.087-.013c0 .563.012 1.154.012 1.65.636.027 1.5.027 2.675.027m.911-3.809c0 .523.013 1.086.013 1.663h2.7V4.212Zm2.725 3.809V6.344h-2.712c0 .563 0 1.14.012 1.677Z" fill="#fff"/><path data-name="パス 64" d="M71.252 53.127c0-.4 0-.683-.437-.683v-.171l.806-.157.123.116a4.388 4.388 0 0 0-.061.785v2.6c0 .471-.062 1.462-.97 1.462-.328 0-.71-.137-.71-.505a.3.3 0 0 1 .307-.321c.061.328.232.553.505.553.423-.007.437-.519.437-.826Zm-.171-2.056a.352.352 0 0 1 .383-.369.346.346 0 0 1 .376.369.339.339 0 0 1-.376.355.345.345 0 0 1-.383-.355" fill="#db6763"/><path data-name="パス 65" d="M73.062 55.619v-.171c.41-.054.41-.253.41-.649v-1.673c0-.4 0-.683-.437-.683v-.171l.813-.157.123.116a4.422 4.422 0 0 0-.068.785v1.782c0 .4 0 .594.41.649v.171Zm.253-4.548a.376.376 0 0 1 .751 0 .376.376 0 0 1-.751 0" fill="#db6763"/><path data-name="パス 66" d="M78.491 54.8c0 .4 0 .594.41.649v.171h-1.25v-.171c.41-.061.41-.253.41-.649v-1.646a.6.6 0 0 0-.635-.71 1.483 1.483 0 0 0-1.318 1.55v.806c0 .4 0 .587.41.649v.171h-1.25v-.171c.41-.054.41-.253.41-.649v-1.674c0-.4 0-.676-.437-.683v-.164l.779-.164.116.116c-.027.4-.041.444-.054.854l-.007.1a1.627 1.627 0 0 1 1.475-1.079c.58 0 .943.348.943 1.045Z" fill="#db6763"/><path data-name="パス 67" d="M82.131 52.472a.452.452 0 0 1-.116.307c-.649-.362-1.257.116-1.325 1.229v.792c0 .4 0 .594.5.649v.171h-1.339v-.171c.41-.055.41-.253.41-.649v-1.674c0-.4 0-.676-.437-.683v-.164l.779-.164.116.116c-.034.362-.048.567-.061.854l-.007.219c.219-.826.683-1.2 1.065-1.2a.368.368 0 0 1 .417.362" fill="#db6763"/><path data-name="パス 68" d="M83.073 55.619v-.171c.41-.054.41-.253.41-.649v-1.673c0-.4 0-.683-.437-.683v-.171l.813-.157.123.116a4.425 4.425 0 0 0-.068.785v1.782c0 .4 0 .594.41.649v.171Zm.253-4.548a.376.376 0 0 1 .751 0 .376.376 0 0 1-.751 0" fill="#db6763"/><path data-name="パス 69" d="M88.687 55.433v.164a1.583 1.583 0 0 1-.444.061c-.369 0-.635-.342-1-1.031l-.471-.888a6.724 6.724 0 0 1-.724.519v.539c0 .4 0 .587.41.649v.171h-1.25v-.171c.41-.055.41-.253.41-.649v-3.176c0-.4 0-.683-.437-.683v-.171l.806-.157.116.109c-.021.321-.048.56-.055.888l-.034 2.363c.656-.389 1.537-1.181 1.537-1.42 0-.144-.178-.185-.464-.178v-.171h1.462v.171c-.369 0-.56.171-1.052.7a4.748 4.748 0 0 1-.417.4c.164.321.328.615.471.861.417.7.717 1.12 1.14 1.1" fill="#db6763"/><path data-name="パス 70" d="M89.445 55.619v-.171c.41-.054.41-.253.41-.649v-1.673c0-.4 0-.683-.437-.683v-.171l.812-.157.123.116a4.4 4.4 0 0 0-.068.785v1.782c0 .4 0 .594.41.649v.171Zm.253-4.548a.376.376 0 0 1 .751 0 .376.376 0 0 1-.751 0" fill="#db6763"/><path data-name="パス 71" d="M91.705 54.937c0-.26.164-.43.362-.416-.014.737.451.915.929.915.457 0 .854-.164.854-.628 0-.895-1.994-.621-1.994-1.769 0-.6.5-.929 1.161-.929.546 0 1.127.219 1.127.731 0 .314-.26.376-.335.348-.034-.546-.28-.8-.806-.8s-.744.246-.744.56c0 .806 2.021.56 2.021 1.748 0 .669-.587 1.018-1.3 1.018-.642 0-1.27-.246-1.27-.778" fill="#db6763"/><path data-name="パス 72" d="M98.418 54.8c0 .4 0 .594.41.649v.171h-1.25v-.171c.41-.061.41-.253.41-.649v-1.639a.617.617 0 0 0-.662-.717 1.512 1.512 0 0 0-1.291 1.578v.778c0 .4 0 .587.41.649v.171h-1.25v-.171c.41-.054.41-.253.41-.649v-3.176c0-.4 0-.683-.437-.683v-.171l.806-.157.116.109c-.021.321-.048.608-.055.888l-.041 1.6a1.6 1.6 0 0 1 1.468-1.1.91.91 0 0 1 .956 1.045Z" fill="#db6763"/><path data-name="パス 73" d="M102.427 54.507c0 .649 0 .895.43.84a.414.414 0 0 1-.43.355c-.293 0-.4-.171-.41-.43-.007-.116 0-.376.014-.649a1.409 1.409 0 0 1-1.325 1.093c-.587 0-.908-.321-.908-.772 0-.567.478-.84 1.059-1.011a3.392 3.392 0 0 0 1.14-.5v-.26a.684.684 0 0 0-.751-.785.807.807 0 0 0-.874.854.283.283 0 0 1-.355-.314c0-.464.505-.819 1.243-.819 1.168 0 1.168.867 1.168 1.086Zm-.416-.778a4.243 4.243 0 0 1-1.052.464c-.451.164-.69.335-.69.71a.469.469 0 0 0 .526.5c.724 0 1.181-.833 1.216-1.673" fill="#db6763"/><path data-name="パス 74" d="M105.797 54.937c0-.26.164-.43.362-.416-.014.737.451.915.929.915.457 0 .854-.164.854-.628 0-.895-1.994-.621-1.994-1.769 0-.6.5-.929 1.161-.929.546 0 1.127.219 1.127.731 0 .314-.26.376-.335.348-.034-.546-.28-.8-.806-.8s-.744.246-.744.56c0 .806 2.021.56 2.021 1.748 0 .669-.587 1.018-1.3 1.018-.642 0-1.27-.246-1.27-.778" fill="#db6763"/><path data-name="パス 75" d="M112.036 54.507c0 .649 0 .895.43.84a.414.414 0 0 1-.43.355c-.294 0-.4-.171-.41-.43-.007-.116 0-.376.014-.649a1.409 1.409 0 0 1-1.325 1.093c-.587 0-.908-.321-.908-.772 0-.567.478-.84 1.059-1.011a3.392 3.392 0 0 0 1.14-.5v-.26a.684.684 0 0 0-.751-.785.807.807 0 0 0-.874.854.283.283 0 0 1-.355-.314c0-.464.505-.819 1.243-.819 1.168 0 1.168.867 1.168 1.086Zm-.417-.778a4.244 4.244 0 0 1-1.052.464c-.451.164-.69.335-.69.71a.469.469 0 0 0 .526.5c.724 0 1.181-.833 1.216-1.673" fill="#db6763"/><path data-name="パス 76" d="M116.516 54.8c0 .4 0 .594.41.649v.171h-1.25v-.171c.41-.061.41-.253.41-.649v-1.646a.6.6 0 0 0-.635-.71 1.483 1.483 0 0 0-1.318 1.55v.806c0 .4 0 .587.41.649v.171h-1.25v-.171c.41-.054.41-.253.41-.649v-1.674c0-.4 0-.676-.437-.683v-.164l.779-.164.116.116c-.027.4-.041.444-.054.854l-.007.1a1.627 1.627 0 0 1 1.475-1.079c.58 0 .943.348.943 1.045Z" fill="#db6763"/><path data-name="パス 77" d="M121.289 53.804c0 1.018-.492 1.912-1.544 1.912a1.473 1.473 0 0 1-1.093-.464l.014.369v.546c0 .4 0 .594.505.649v.171h-1.346v-.171c.41-.055.41-.253.41-.649v-3.041c0-.4 0-.683-.437-.683v-.171l.806-.157.116.116c-.02.321-.034.512-.054.744a1.414 1.414 0 0 1 1.27-.867c.854 0 1.352.724 1.352 1.694m-.471.041c0-.635-.259-1.448-.97-1.448s-1.181.69-1.181 1.646c0 .731.335 1.393 1.058 1.393.567 0 1.093-.4 1.093-1.591" fill="#db6763"/><path data-name="パス 78" d="M125.48 54.773c0 .417 0 .7.437.676v.171l-.819.089-.1-.1c.021-.355.048-.594.062-.881v-.02a1.5 1.5 0 0 1-1.38 1.011c-.574 0-.943-.348-.943-1.052V53.13c0-.4 0-.676-.437-.683v-.164l.806-.164.116.116c-.021.294-.055.594-.055.867v1.564c0 .239.034.717.662.717.751 0 1.222-.84 1.222-1.571v-.683c0-.4 0-.676-.437-.683v-.164l.806-.164.123.123a6.223 6.223 0 0 0-.061.861Z" fill="#db6763"/><path data-name="パス 79" d="M27.839 26.596A31.309 31.309 0 0 1 21.481 2.49a1.723 1.723 0 0 1 1.387-1.433 28.172 28.172 0 0 1 9.973-.032 1.722 1.722 0 0 1 1.394 1.42A31.31 31.31 0 0 1 28.08 26.59c-.11.109-.132.11-.241 0m-1.523 3.011c.04-.149.028-.168-.121-.208A31.311 31.311 0 0 0 2.2 36.144a1.723 1.723 0 0 0-.533 1.918 28.181 28.181 0 0 0 5.014 8.621 1.724 1.724 0 0 0 1.934.485 31.31 31.31 0 0 0 17.7-17.56m27.426 6.361a31.309 31.309 0 0 0-24.056-6.549c-.149.04-.16.06-.119.209A31.308 31.308 0 0 0 47.4 47.036a1.722 1.722 0 0 0 1.927-.5 28.165 28.165 0 0 0 4.963-8.646 1.724 1.724 0 0 0-.547-1.918M38.433 2.63a.691.691 0 0 0-.943.726 34.36 34.36 0 0 1-5.09 22.473.135.135 0 0 0 .121.209 34.369 34.369 0 0 1 22.033 6.646.69.69 0 0 0 1.1-.46A27.98 27.98 0 0 0 38.433 2.63m6.547 46.766a34.36 34.36 0 0 1-16.913-15.641.135.135 0 0 0-.241 0 34.369 34.369 0 0 1-16.769 15.758.69.69 0 0 0-.149 1.178 27.944 27.944 0 0 0 34.231-.118.69.69 0 0 0-.159-1.177M23.371 26.038a.135.135 0 0 0 .12-.21A34.368 34.368 0 0 1 18.23 3.42a.691.691 0 0 0-.947-.718A27.982 27.982 0 0 0 .268 32.417a.689.689 0 0 0 1.1.45 34.359 34.359 0 0 1 22.005-6.829" fill="#db6763"/></g></svg>