<svg xmlns="http://www.w3.org/2000/svg" width="244.288" height="60.456"><path data-name="パス 47" d="M0 35.816c0 7.48 2.024 13.64 5.808 18.04a17.844 17.844 0 0 0 13.376 6.336c7.48 0 14.784-5.1 17.424-13.9.088-.088 0-.264-.176-.352a.943.943 0 0 0-.528.176c-1.936 6.688-7.04 9.68-12.408 9.68a16.934 16.934 0 0 1-13.9-7.832 30.879 30.879 0 0 1-4.58-16.812c0-9.856 3.344-17.512 13.816-19.008 5.984-.792 9.944.792 10.472 7.216.352 2.552.7 3.256.968 3.432.352.616 1.144 1.32 3.256 1.32 1.936 0 3.08-.7 3.08-2.728q0-3.3-3.96-6.6c-3.52-2.816-9.24-3.96-13.552-3.432C7.48 12.408 0 24.464 0 35.816Zm40.128.44c0 12.672 9.064 24.2 21.56 24.2 13.64-.004 22.528-12.584 22.528-25.604 0-12.32-9.24-23.76-21.648-23.76-13.376-.004-22.44 12.404-22.44 25.16Zm6.16-4.576c0-9.328 1.848-17.336 12.32-19.448a14.693 14.693 0 0 1 3.256-.352c12.584 0 16.1 16.368 16.1 27.192 0 9.152-.792 17.16-10.56 19.8a18.124 18.124 0 0 1-4.576.7c-12.492.004-16.54-17.156-16.54-27.892Zm40.744-16.628a3.52 3.52 0 0 1 1.584.88 6.952 6.952 0 0 1 1.936 3.784c.176.88.352 3.08.352 11.264v18.472c0 3.168 0 6.864-2.376 9.24h9.944a6.715 6.715 0 0 1-1.584-2.2c-.352-.792-.792-2.288-.792-7.04V30.8a27.8 27.8 0 0 1 3.08-8.536c2.64-4.576 7.744-8.184 12.408-8.184 7.744 0 8.888 9.064 8.888 14.96v20.412c0 3.96-.088 4.928-.352 5.544a7.223 7.223 0 0 1-2.02 3.7h9.94a4.927 4.927 0 0 1-1.5-2.112c-.7-1.408-.968-3.7-.968-7.128v-21.3c0-4.136-.352-7.392-1.056-9.24-1.932-5.364-5.628-7.564-9.676-7.564-6.072 0-12.936 4.84-16.192 10.56a27.856 27.856 0 0 0-2.548 6.072V11.44h-.088Zm45.668-2.2V48.14c0 5.54 1.06 11.348 7.748 11.348a9.668 9.668 0 0 0 5.984-2.288 2.808 2.808 0 0 0 .616-.528 5.686 5.686 0 0 1-2.376.44c-5.632 0-6.864-5.72-6.864-10.208V12.672h4.752a.233.233 0 0 0 .264-.264c0-.176-.088-.44-.264-.44h-4.752V0a20.958 20.958 0 0 1-1.584 3.168 31.444 31.444 0 0 1-5.9 7.128 19.692 19.692 0 0 1-3.076 2.556Zm15.932 35.988c0 6.16 3.432 10.824 9.856 10.824 5.368 0 7.04-3.08 10.736-3.08a11.585 11.585 0 0 1 5.192 1.584 10.283 10.283 0 0 0 4.84 1.672 10.674 10.674 0 0 0 7.216-3.168h-.528c-2.644 0-3.784-1.848-4.224-4.22-.176-.792-.264-2.552-.264-9.152V26.488c0-5.9-.616-8.1-.88-8.8C178.288 12.32 172.304 11 166.584 11c-7.392 0-16.016 4.048-16.016 11 0 1.672.7 3.256 2.552 3.256 2.024 0 2.728-1.408 2.728-3.168l-.088-3.168c0-5.544 6.16-7.216 10.824-7.216 7.568 0 9.416 5.192 9.68 11.616a6.028 6.028 0 0 1-2.2 4.84 33.841 33.841 0 0 1-6.688 3.344c-6.864 2.992-18.744 8.536-18.744 17.336Zm19.1-16.632c3.344-1.5 6.424-2.816 8.536-4.928v26.136c.088 3.08.7 4.488 1.232 5.1.176.176.264.352.44.44a14.2 14.2 0 0 1-3.168-1.32 11.442 11.442 0 0 0-5.456-1.76 9.032 9.032 0 0 0-3.7.792 7.416 7.416 0 0 1-2.64.528 8.737 8.737 0 0 1-6.248-3.08c-8.888-9.852 2.288-18.3 11-21.908Zm20.416 3.608c0 7.48 2.024 13.64 5.808 18.04a17.844 17.844 0 0 0 13.372 6.336c7.48 0 14.784-5.1 17.424-13.9.088-.088 0-.264-.176-.352a.943.943 0 0 0-.528.176c-1.936 6.688-7.04 9.68-12.408 9.68a16.934 16.934 0 0 1-13.9-7.832 30.879 30.879 0 0 1-4.58-16.812c0-9.856 3.344-17.512 13.816-19.008 5.984-.792 9.944.792 10.472 7.216.352 2.552.7 3.256.968 3.432.352.616 1.144 1.32 3.256 1.32 1.936 0 3.08-.7 3.08-2.728q0-3.3-3.96-6.6c-3.52-2.816-9.24-3.96-13.552-3.432-11.616 1.056-19.096 13.112-19.096 24.464Zm41.8-22.968v35.288c0 5.544 1.056 11.352 7.744 11.352a9.668 9.668 0 0 0 5.984-2.288 2.808 2.808 0 0 0 .616-.528 5.686 5.686 0 0 1-2.376.44c-5.632 0-6.864-5.72-6.864-10.208V12.672h4.748a.233.233 0 0 0 .264-.264c0-.176-.088-.44-.264-.44h-4.752V0a20.957 20.957 0 0 1-1.584 3.168 31.444 31.444 0 0 1-5.9 7.128 19.692 19.692 0 0 1-3.08 2.552Z"/></svg>