<svg xmlns="http://www.w3.org/2000/svg" width="454.319" height="167.266"><g data-name="グループ 1627"><g data-name="グループ 75" fill="#fff"><g data-name="グループ 73"><path data-name="パス 37" d="M6.761 44.234c2.134 2.91 7.566 7.76 21.34 14.356 12.028 6.208 19.982 11.058 24.056 15.132 12.416 11.64 8.73 30.652-8.536 35.5a30.911 30.911 0 0 1-8.342 1.164c-13.774 0-26.578-9.7-32.592-22.116v17.848a8.135 8.135 0 0 1 4.268-.97c7.566 0 17.46 6.79 29.294 6.79 16.1 0 32.2-14.938 32.2-31.234 0-11.058-6.984-20.176-21.728-27.16l-17.654-8.536c-8.148-4.074-13.58-7.76-16.49-11.446C2.877 21.34 8.503 6.79 23.441 2.522a33.7 33.7 0 0 1 7.566-.97c14.938 0 23.28 6.79 29.294 19.4V5.434a7 7 0 0 1-3.88 1.164c-1.746.388-4.656-.582-8.342-2.328A35.56 35.56 0 0 0 31.395.002a29.88 29.88 0 0 0-8.342 1.164C6.373 5.82-4.491 30.07 6.761 44.234ZM76.019 84.78c0 13.58 7.566 23.862 21.728 23.862 11.834 0 15.52-6.79 23.668-6.79 2.91 0 6.6.97 11.446 3.492 3.3 1.746 6.6 3.686 10.67 3.686 6.208 0 11.446-2.91 15.908-6.984h-1.164c-5.82 0-8.342-4.074-9.312-9.312-.388-1.746-.582-5.626-.582-20.176V35.502c0-13-1.358-17.848-1.94-19.4-5.044-11.834-18.236-14.744-30.846-14.744-16.3 0-35.308 8.924-35.308 24.25 0 3.686 1.552 7.178 5.626 7.178 4.462 0 6.014-3.1 6.014-6.984l-.194-6.984c0-12.222 13.58-15.908 23.862-15.908 16.684 0 20.758 11.446 21.34 25.608.194 3.88-1.94 8.73-4.85 10.67-4.074 2.91-9.118 5.044-14.744 7.372-15.132 6.596-41.322 18.818-41.322 38.218Zm42.1-36.666c7.372-3.3 14.162-6.208 18.818-10.864v57.618c.194 6.79 1.552 9.894 2.716 11.252.388.388.582.776.97.97a31.3 31.3 0 0 1-6.984-2.91c-3.686-1.94-7.372-3.88-12.028-3.88a19.911 19.911 0 0 0-8.148 1.746 16.349 16.349 0 0 1-5.82 1.164c-5.238 0-9.894-2.716-13.774-6.79-19.596-21.73 5.042-40.354 24.248-48.308Zm45.978-37.83a7.76 7.76 0 0 1 3.492 1.94c1.94 1.746 3.3 4.268 4.268 8.342.388 1.94.776 6.79.776 24.832v40.736c0 6.984 0 15.132-5.238 20.37h21.922a14.8 14.8 0 0 1-3.492-4.85c-.777-1.744-1.748-5.042-1.748-15.52V45.008a61.28 61.28 0 0 1 6.79-18.818c5.82-10.088 17.072-18.042 27.354-18.042 17.072 0 19.594 19.982 19.594 32.98v45.006c0 8.73-.194 10.864-.776 12.222a15.923 15.923 0 0 1-4.462 8.15h21.922a10.863 10.863 0 0 1-3.3-4.656c-1.552-3.1-2.134-8.148-2.134-15.714V39.188c0-9.118-.776-16.3-2.328-20.37-4.266-11.834-12.414-16.684-21.338-16.684-13.386 0-28.518 10.67-35.7 23.28a61.409 61.409 0 0 0-5.626 13.386V2.328h-.194Zm98.164 2.328a13.582 13.582 0 0 1 4.074 8.342c.582 1.94 1.164 6.6 1.164 24.25v94.67c0 9.118-.776 12.028-1.552 13.58a13.248 13.248 0 0 1-3.88 5.238h22.7c-7.764-6.208-6.019-23.858-6.019-32.786V95.448c9.894 9.7 17.072 16.878 32.98 15.52 26.772-2.328 44.038-29.682 44.038-54.126 0-37.442-21.728-54.126-42.486-54.126-14.744 0-29.1 8.342-34.532 23.474V2.716h-.388l-19.205 7.954a7.594 7.594 0 0 1 3.104 1.94Zm16.487 20.368c1.746-15.908 13.192-24.056 26-24.056 17.46 0 37.636 15.52 37.636 47.918 0 19.982-7.372 50.634-30.846 52.574-11.64 1.164-22.5-3.1-27.936-13.58a41.926 41.926 0 0 1-4.85-16.3Zm88.465-23.086c1.358 3.1 1.94 8.148 1.94 15.908v46.754c-.005 15.908 3.295 37.054 23.862 37.054 13.386 0 28.518-10.476 35.7-23.28a64.2 64.2 0 0 0 5.622-13.196v36.476h.194l19.788-8.148c-10.282-3.492-8.73-26-8.73-34.92V5.434h-16.49a11.618 11.618 0 0 1 3.492 4.85c.776 1.746 1.746 4.656 1.746 15.52v41.13a69.669 69.669 0 0 1-6.789 18.62c-5.821 10.28-17.073 18.236-27.355 18.236-17.266 0-19.594-20.176-19.594-33.174l-.194-65.184h-16.49a10.762 10.762 0 0 1 3.298 4.462Z"/><text transform="translate(292.048 59.834)" font-size="41" font-family="HiraMinProN-W6, Hiragino Mincho ProN"><tspan x="-20.5" y="0">三</tspan></text><text transform="translate(321.048 90.834)" font-size="41" font-family="HiraMinProN-W6, Hiragino Mincho ProN"><tspan x="-20.5" y="0">風</tspan></text></g><path data-name="パス 38" d="M0 143.686h2.892v.168h-1l1.348 3.744 1.248-2.964-.3-.78h-.5v-.168h2.384v.168h-.8l1.388 3.72 1.5-3.72H7.032v-.168h1.956v.168h-.64l-2.144 5.38-1.632-4.36-1.824 4.36-1.932-5.38H0Zm13.048 2.004a2.216 2.216 0 0 0 .024-.312v-.3a2.42 2.42 0 0 0-.078-.672 1.093 1.093 0 0 0-.216-.42.763.763 0 0 0-.336-.222 1.339 1.339 0 0 0-.426-.066 1.267 1.267 0 0 0-.672.162 1.193 1.193 0 0 0-.42.438 2.256 2.256 0 0 0-.234.636 4.994 4.994 0 0 0-.1.756Zm-2.472.168q0 .12-.006.246t-.006.318a7.505 7.505 0 0 0 .048.828 2.487 2.487 0 0 0 .21.78 1.454 1.454 0 0 0 .48.576 1.422 1.422 0 0 0 .846.228 2.1 2.1 0 0 0 .87-.156 1.6 1.6 0 0 0 .54-.378 1.637 1.637 0 0 0 .294-.45q.1-.228.144-.372l.18.036a3.446 3.446 0 0 1-.138.378 1.739 1.739 0 0 1-.324.492 1.965 1.965 0 0 1-.6.432 2.22 2.22 0 0 1-.978.186 3.126 3.126 0 0 1-1.11-.192 2.537 2.537 0 0 1-.882-.552 2.494 2.494 0 0 1-.576-.858 2.9 2.9 0 0 1-.2-1.11 2.616 2.616 0 0 1 .21-1.026 2.9 2.9 0 0 1 .576-.882 2.886 2.886 0 0 1 .858-.618 2.427 2.427 0 0 1 1.048-.23 2.42 2.42 0 0 1 .72.12 2.12 2.12 0 0 1 .714.39 2.143 2.143 0 0 1 .554.71 2.456 2.456 0 0 1 .222 1.1Zm7.82 2.808h.924v-4.812h-.924v-.168h1.932v1.26h.02a2.09 2.09 0 0 1 .726-1.056 1.93 1.93 0 0 1 1.146-.336 2.1 2.1 0 0 1 1.062.264 1.289 1.289 0 0 1 .606.876h.024a1.96 1.96 0 0 1 .228-.42 1.641 1.641 0 0 1 .36-.366 1.745 1.745 0 0 1 .51-.258 2.141 2.141 0 0 1 .666-.1 1.565 1.565 0 0 1 1.752 1.788v3.328h.924v.168h-2.88v-.168h.924v-4.08a.873.873 0 0 0-.222-.636.807.807 0 0 0-.606-.228 1.679 1.679 0 0 0-.6.114 1.607 1.607 0 0 0-.54.342 1.7 1.7 0 0 0-.39.588 2.172 2.172 0 0 0-.15.84v3.06h.924v.168h-2.88v-.168h.924v-3.912a1.179 1.179 0 0 0-.216-.78.721.721 0 0 0-.576-.252 1.437 1.437 0 0 0-.552.126 1.667 1.667 0 0 0-.558.4 2.184 2.184 0 0 0-.432.7 2.832 2.832 0 0 0-.174 1.054v2.664h.924v.168h-2.88Zm13.836-2.772h-.024q-.024.156-.4.312l-.9.36a1.312 1.312 0 0 0-.588.438 1.166 1.166 0 0 0-.2.7 2.017 2.017 0 0 0 .036.372.953.953 0 0 0 .132.342.733.733 0 0 0 .27.246.927.927 0 0 0 .45.1 1.117 1.117 0 0 0 .64-.17 1.1 1.1 0 0 0 .372-.42 1.773 1.773 0 0 0 .168-.546 3.805 3.805 0 0 0 .042-.534Zm2.1 2.808a1.644 1.644 0 0 1-.372.21 1.374 1.374 0 0 1-.528.09 1.181 1.181 0 0 1-.834-.246 1.306 1.306 0 0 1-.354-.69h-.024q-.048.108-.132.27a1.07 1.07 0 0 1-.258.312 1.436 1.436 0 0 1-.462.252 2.224 2.224 0 0 1-.732.1 2.318 2.318 0 0 1-.8-.114 1.312 1.312 0 0 1-.468-.282.818.818 0 0 1-.222-.378 1.573 1.573 0 0 1-.058-.392 1.194 1.194 0 0 1 .168-.672 1.244 1.244 0 0 1 .438-.4 2.9 2.9 0 0 1 .6-.246l.666-.2q.4-.132.654-.228a1.159 1.159 0 0 0 .4-.234.718.718 0 0 0 .2-.348 2.384 2.384 0 0 0 .054-.57 3.332 3.332 0 0 0-.036-.516 1.094 1.094 0 0 0-.132-.39.613.613 0 0 0-.276-.246 1.148 1.148 0 0 0-.48-.084 1.378 1.378 0 0 0-.654.134.472.472 0 0 0-.258.45 2.243 2.243 0 0 0 .036.4 1.823 1.823 0 0 1 .036.294.373.373 0 0 1-.12.282.486.486 0 0 1-.348.114q-.4 0-.492-.144a.658.658 0 0 1-.1-.372 1.113 1.113 0 0 1 .12-.5 1.27 1.27 0 0 1 .354-.426 1.761 1.761 0 0 1 .588-.294 2.777 2.777 0 0 1 .81-.108 2.678 2.678 0 0 1 .924.138 1.6 1.6 0 0 1 .6.372 1.351 1.351 0 0 1 .324.528 1.978 1.978 0 0 1 .1.618v2.988a.727.727 0 0 0 .108.468.4.4 0 0 0 .312.12.872.872 0 0 0 .276-.048 1.013 1.013 0 0 0 .276-.144Zm.372-.036h.924v-8.316h-.924v-.168h1.956v5.736h.132l2.388-2.064h-.852v-.168h1.86v.168h-.72l-1.872 1.608 2.652 3.204h.516v.168h-2.7v-.168h.852l-2.124-2.58h-.132v2.58h.66v.168h-2.616Zm10.212-2.976a2.215 2.215 0 0 0 .024-.312v-.3a2.42 2.42 0 0 0-.078-.672 1.093 1.093 0 0 0-.216-.42.763.763 0 0 0-.336-.222 1.339 1.339 0 0 0-.426-.066 1.267 1.267 0 0 0-.672.162 1.193 1.193 0 0 0-.42.438 2.256 2.256 0 0 0-.234.636 4.994 4.994 0 0 0-.1.756Zm-2.468.168q0 .12-.006.246t-.006.318a7.506 7.506 0 0 0 .048.828 2.487 2.487 0 0 0 .21.78 1.454 1.454 0 0 0 .48.576 1.422 1.422 0 0 0 .842.228 2.1 2.1 0 0 0 .87-.156 1.6 1.6 0 0 0 .54-.378 1.637 1.637 0 0 0 .294-.45q.1-.228.144-.372l.184.036a3.447 3.447 0 0 1-.138.378 1.739 1.739 0 0 1-.324.492 1.965 1.965 0 0 1-.6.432 2.22 2.22 0 0 1-.978.186 3.126 3.126 0 0 1-1.11-.192 2.537 2.537 0 0 1-.882-.552 2.494 2.494 0 0 1-.576-.858 2.9 2.9 0 0 1-.2-1.11 2.616 2.616 0 0 1 .21-1.026 2.9 2.9 0 0 1 .576-.882 2.886 2.886 0 0 1 .858-.618 2.427 2.427 0 0 1 1.048-.23 2.42 2.42 0 0 1 .72.12 2.12 2.12 0 0 1 .714.39 2.143 2.143 0 0 1 .552.714 2.456 2.456 0 0 1 .222 1.1Zm7.52-2.172h2.94v.168H51.9l1.548 3.768 1.62-3.768h-1v-.168h1.84v.168h-.648l-1.98 4.632q-.232.516-.432 1.038t-.408 1.05a7.78 7.78 0 0 1-.336.756 2.469 2.469 0 0 1-.354.528 1.3 1.3 0 0 1-.4.306 1.169 1.169 0 0 1-.5.1 1.226 1.226 0 0 1-.558-.108 1.042 1.042 0 0 1-.33-.252.723.723 0 0 1-.156-.3 1.208 1.208 0 0 1-.036-.264.572.572 0 0 1 .168-.45.591.591 0 0 1 .408-.15.979.979 0 0 1 .18.018.573.573 0 0 1 .18.066.451.451 0 0 1 .144.132.342.342 0 0 1 .06.2.556.556 0 0 1-.1.318.574.574 0 0 0-.1.33.216.216 0 0 0 .084.2.46.46 0 0 0 .228.048.717.717 0 0 0 .354-.09 1.072 1.072 0 0 0 .318-.294 2.994 2.994 0 0 0 .312-.534q.156-.33.348-.81l.518-1.334-2.076-5.136h-.828Zm7.452 2.58a5.558 5.558 0 0 0 .128 1.356 2.085 2.085 0 0 0 .348.774 1 1 0 0 0 .5.354 2.176 2.176 0 0 0 .62.084 2.176 2.176 0 0 0 .612-.084 1 1 0 0 0 .5-.354 2.085 2.085 0 0 0 .348-.774 5.558 5.558 0 0 0 .132-1.356 6.364 6.364 0 0 0-.1-1.206 2.261 2.261 0 0 0-.294-.792 1.134 1.134 0 0 0-.5-.438 1.747 1.747 0 0 0-.708-.132 1.747 1.747 0 0 0-.698.136 1.134 1.134 0 0 0-.5.438 2.261 2.261 0 0 0-.294.792 6.364 6.364 0 0 0-.094 1.202Zm-1.2 0a2.362 2.362 0 0 1 .258-1.092 3.034 3.034 0 0 1 .66-.87 3.038 3.038 0 0 1 .9-.57 2.568 2.568 0 0 1 .978-.2 2.568 2.568 0 0 1 .978.2 3.038 3.038 0 0 1 .9.57 3.034 3.034 0 0 1 .66.87 2.362 2.362 0 0 1 .258 1.092 2.415 2.415 0 0 1-.24 1.062 2.977 2.977 0 0 1-.63.87 2.991 2.991 0 0 1-.894.588 2.6 2.6 0 0 1-1.032.216 2.6 2.6 0 0 1-1.032-.216 2.991 2.991 0 0 1-.894-.588 2.977 2.977 0 0 1-.63-.87 2.415 2.415 0 0 1-.24-1.062Zm12.96 2.568h-1.932v-1.212h-.024a4.418 4.418 0 0 1-.258.486 1.961 1.961 0 0 1-.372.444 1.882 1.882 0 0 1-.516.324 1.742 1.742 0 0 1-.69.126 2.346 2.346 0 0 1-.78-.108 1.961 1.961 0 0 1-.468-.228 2.359 2.359 0 0 1-.186-.15.881.881 0 0 1-.186-.246 1.715 1.715 0 0 1-.144-.4 2.6 2.6 0 0 1-.06-.606v-3.41h-.924v-.168h1.956v3.684a3.675 3.675 0 0 0 .042.576 1.266 1.266 0 0 0 .162.462.9.9 0 0 0 .312.312.98.98 0 0 0 .5.114 1.127 1.127 0 0 0 .546-.156 1.778 1.778 0 0 0 .52-.444 2.545 2.545 0 0 0 .39-.69 2.488 2.488 0 0 0 .156-.906v-2.784h-.912v-.168h1.944v4.98h.924Zm.612-.168h.924v-4.812h-.924v-.168h1.932v1.212h.024a2.444 2.444 0 0 1 .156-.408 1.781 1.781 0 0 1 .3-.438 1.709 1.709 0 0 1 .462-.354 1.374 1.374 0 0 1 .654-.144 1.181 1.181 0 0 1 .48.09 1.037 1.037 0 0 1 .336.228.838.838 0 0 1 .192.318 1.132 1.132 0 0 1 .06.36.625.625 0 0 1-.18.528.691.691 0 0 1-.42.132q-.528 0-.528-.336a.52.52 0 0 1 .024-.174q.024-.066.054-.132a1.082 1.082 0 0 0 .054-.15.922.922 0 0 0 .024-.24q0-.384-.42-.384a.744.744 0 0 0-.408.144 1.5 1.5 0 0 0-.4.42 2.639 2.639 0 0 0-.312.666 2.907 2.907 0 0 0-.126.894v2.748h1.044v.168h-3Zm8.568-1.512h.132a4.494 4.494 0 0 0 .216.582 2.065 2.065 0 0 0 .354.54 1.745 1.745 0 0 0 .546.4 1.785 1.785 0 0 0 .78.158 1.082 1.082 0 0 0 .684-.234.907.907 0 0 0 .3-.762.776.776 0 0 0-.234-.642 1.832 1.832 0 0 0-.546-.294l-.936-.324q-.18-.06-.39-.15a1.414 1.414 0 0 1-.39-.252 1.229 1.229 0 0 1-.294-.414 1.581 1.581 0 0 1-.114-.648 1.479 1.479 0 0 1 .132-.624 1.614 1.614 0 0 1 .36-.5 1.609 1.609 0 0 1 .546-.336 1.939 1.939 0 0 1 .69-.12 1.752 1.752 0 0 1 .426.042q.162.042.282.084t.216.084a.566.566 0 0 0 .228.042.209.209 0 0 0 .192-.1h.132v1.368h-.132a5.159 5.159 0 0 0-.192-.51 2.038 2.038 0 0 0-.258-.438 1.046 1.046 0 0 0-.372-.3 1.181 1.181 0 0 0-.522-.108 1.384 1.384 0 0 0-.894.258.843.843 0 0 0-.318.69.676.676 0 0 0 .27.582 2.83 2.83 0 0 0 .8.366l.876.288a2.525 2.525 0 0 1 .924.528 1.157 1.157 0 0 1 .36.888 1.685 1.685 0 0 1-.126.636 1.543 1.543 0 0 1-.372.546 1.9 1.9 0 0 1-.6.378 2.136 2.136 0 0 1-.81.144 2.055 2.055 0 0 1-.488-.054q-.222-.054-.408-.114t-.342-.114a.886.886 0 0 0-.288-.054.282.282 0 0 0-.192.054.5.5 0 0 0-.1.114h-.132Zm9.732-1.068a7.35 7.35 0 0 0-.06-.99 2.52 2.52 0 0 0-.21-.75 1.121 1.121 0 0 0-.42-.48 1.287 1.287 0 0 0-.69-.168 1.527 1.527 0 0 0-.732.156 1.42 1.42 0 0 0-.468.4 1.486 1.486 0 0 0-.21.36 2.324 2.324 0 0 0-.126.456 4.842 4.842 0 0 0-.066.606q-.018.342-.018.81a5.769 5.769 0 0 0 .06.816 2.528 2.528 0 0 0 .228.762 1.458 1.458 0 0 0 .474.558 1.377 1.377 0 0 0 .81.216 1.389 1.389 0 0 0 .78-.192 1.158 1.158 0 0 0 .432-.552 2.9 2.9 0 0 0 .18-.87q.036-.514.036-1.138Zm-4.956 5.94h.924v-8.172h-.924v-.168h1.932v1.008h.024a1.834 1.834 0 0 1 .594-.834 1.671 1.671 0 0 1 1.074-.33 2.192 2.192 0 0 1 .972.222 2.779 2.779 0 0 1 .8.588 2.773 2.773 0 0 1 .552.858 2.668 2.668 0 0 1 .2 1.032 2.675 2.675 0 0 1-.21 1.05 2.959 2.959 0 0 1-.57.882 2.793 2.793 0 0 1-.834.612 2.283 2.283 0 0 1-1 .228 1.56 1.56 0 0 1-.69-.138 1.635 1.635 0 0 1-.462-.324 1.494 1.494 0 0 1-.27-.384 2.281 2.281 0 0 1-.132-.322h-.024v4.192h.924v.168h-2.88Zm11-6.336a2.216 2.216 0 0 0 .024-.312v-.3a2.42 2.42 0 0 0-.078-.672 1.093 1.093 0 0 0-.216-.42.763.763 0 0 0-.336-.222 1.339 1.339 0 0 0-.426-.066 1.267 1.267 0 0 0-.672.162 1.193 1.193 0 0 0-.42.438 2.256 2.256 0 0 0-.234.636 5 5 0 0 0-.1.756Zm-2.472.168q0 .12-.006.246t-.006.318a7.5 7.5 0 0 0 .048.828 2.487 2.487 0 0 0 .21.78 1.454 1.454 0 0 0 .48.576 1.422 1.422 0 0 0 .85.228 2.1 2.1 0 0 0 .87-.156 1.6 1.6 0 0 0 .54-.378 1.637 1.637 0 0 0 .294-.45q.1-.228.144-.372l.18.036a3.445 3.445 0 0 1-.138.378 1.739 1.739 0 0 1-.324.492 1.965 1.965 0 0 1-.6.432 2.22 2.22 0 0 1-.978.186 3.126 3.126 0 0 1-1.11-.192 2.537 2.537 0 0 1-.882-.552 2.494 2.494 0 0 1-.576-.858 2.9 2.9 0 0 1-.2-1.11 2.616 2.616 0 0 1 .21-1.026 2.9 2.9 0 0 1 .576-.882 2.886 2.886 0 0 1 .858-.618 2.427 2.427 0 0 1 1.052-.23 2.42 2.42 0 0 1 .72.12 2.12 2.12 0 0 1 .714.39 2.143 2.143 0 0 1 .552.714 2.456 2.456 0 0 1 .222 1.1Zm9.6 1.656a3.445 3.445 0 0 1-.138.378 1.739 1.739 0 0 1-.324.492 1.965 1.965 0 0 1-.6.432 2.22 2.22 0 0 1-.978.186 3.371 3.371 0 0 1-.948-.144 2.673 2.673 0 0 1-.9-.462 2.394 2.394 0 0 1-.666-.834 2.826 2.826 0 0 1-.258-1.272 2.679 2.679 0 0 1 .222-1.092 2.8 2.8 0 0 1 .6-.876 2.737 2.737 0 0 1 .888-.582 2.824 2.824 0 0 1 1.086-.206 2.991 2.991 0 0 1 .666.078 2.248 2.248 0 0 1 .624.24 1.475 1.475 0 0 1 .468.42 1.049 1.049 0 0 1 .186.63.561.561 0 0 1-.162.414.625.625 0 0 1-.462.162.885.885 0 0 1-.39-.09.314.314 0 0 1-.186-.306 1.275 1.275 0 0 1 .084-.408 1.255 1.255 0 0 0 .084-.4.466.466 0 0 0-.276-.426 1.311 1.311 0 0 0-.636-.15 2.393 2.393 0 0 0-.546.066 1 1 0 0 0-.516.33 2.029 2.029 0 0 0-.384.792 5.482 5.482 0 0 0-.15 1.44 6.791 6.791 0 0 0 .066.972 2.56 2.56 0 0 0 .24.8 1.367 1.367 0 0 0 .48.54 1.447 1.447 0 0 0 .8.2 2.1 2.1 0 0 0 .87-.156 1.6 1.6 0 0 0 .54-.378 1.637 1.637 0 0 0 .294-.45q.1-.228.144-.372Zm1.536-6.624a.613.613 0 0 1 .186-.45.613.613 0 0 1 .45-.186.613.613 0 0 1 .45.186.613.613 0 0 1 .186.45.613.613 0 0 1-.186.45.613.613 0 0 1-.45.186.613.613 0 0 1-.45-.186.613.613 0 0 1-.182-.45Zm-.78 7.776h.924v-4.812h-.924v-.168h1.956v4.98h.924v.168h-2.88Zm6.852-2.772h-.024q-.024.156-.4.312l-.9.36a1.312 1.312 0 0 0-.588.438 1.166 1.166 0 0 0-.2.7 2.018 2.018 0 0 0 .036.372.953.953 0 0 0 .132.342.733.733 0 0 0 .27.246.927.927 0 0 0 .45.1 1.117 1.117 0 0 0 .642-.168 1.1 1.1 0 0 0 .372-.42 1.773 1.773 0 0 0 .168-.546 3.806 3.806 0 0 0 .042-.534Zm2.1 2.808a1.644 1.644 0 0 1-.372.21 1.374 1.374 0 0 1-.528.09 1.181 1.181 0 0 1-.834-.246 1.306 1.306 0 0 1-.354-.69h-.024q-.048.108-.132.27a1.07 1.07 0 0 1-.258.312 1.436 1.436 0 0 1-.462.252 2.224 2.224 0 0 1-.732.1 2.318 2.318 0 0 1-.8-.114 1.312 1.312 0 0 1-.468-.282.818.818 0 0 1-.222-.378 1.572 1.572 0 0 1-.054-.39 1.194 1.194 0 0 1 .168-.672 1.244 1.244 0 0 1 .438-.4 2.9 2.9 0 0 1 .6-.246l.666-.2q.4-.132.654-.228a1.159 1.159 0 0 0 .4-.234.718.718 0 0 0 .2-.348 2.384 2.384 0 0 0 .054-.57 3.333 3.333 0 0 0-.036-.516 1.094 1.094 0 0 0-.132-.39.613.613 0 0 0-.276-.246 1.148 1.148 0 0 0-.48-.084 1.378 1.378 0 0 0-.654.138.472.472 0 0 0-.258.45 2.242 2.242 0 0 0 .036.4 1.824 1.824 0 0 1 .036.294.373.373 0 0 1-.12.282.486.486 0 0 1-.348.114q-.4 0-.492-.144a.658.658 0 0 1-.1-.372 1.113 1.113 0 0 1 .12-.5 1.27 1.27 0 0 1 .354-.426 1.761 1.761 0 0 1 .588-.294 2.777 2.777 0 0 1 .81-.108 2.678 2.678 0 0 1 .924.138 1.6 1.6 0 0 1 .6.372 1.351 1.351 0 0 1 .324.528 1.978 1.978 0 0 1 .1.618v2.982a.727.727 0 0 0 .108.468.4.4 0 0 0 .312.12.872.872 0 0 0 .276-.048 1.013 1.013 0 0 0 .276-.144Zm.372-.036h.924v-8.316h-.92v-.168h1.956v8.484h.924v.168h-2.88Zm8.376-2.58q0 .624.036 1.134a2.9 2.9 0 0 0 .18.87 1.158 1.158 0 0 0 .432.552 1.389 1.389 0 0 0 .78.192 1.377 1.377 0 0 0 .81-.216 1.458 1.458 0 0 0 .474-.558 2.528 2.528 0 0 0 .228-.762 5.769 5.769 0 0 0 .06-.816q0-.468-.018-.81a4.841 4.841 0 0 0-.066-.606 2.062 2.062 0 0 0-.132-.456 1.989 1.989 0 0 0-.2-.36 1.42 1.42 0 0 0-.468-.4 1.527 1.527 0 0 0-.732-.156 1.287 1.287 0 0 0-.69.168 1.121 1.121 0 0 0-.42.48 2.52 2.52 0 0 0-.21.75 7.35 7.35 0 0 0-.06.994Zm2.076-5.9h1.956v8.48h.924v.168h-1.928v-1.044h-.024a3.282 3.282 0 0 1-.144.348 1.479 1.479 0 0 1-.282.4 1.658 1.658 0 0 1-.468.33 1.56 1.56 0 0 1-.69.138 2.283 2.283 0 0 1-1-.228 2.793 2.793 0 0 1-.834-.612 2.959 2.959 0 0 1-.57-.882 2.675 2.675 0 0 1-.21-1.05 2.668 2.668 0 0 1 .2-1.032 2.773 2.773 0 0 1 .552-.858 2.779 2.779 0 0 1 .8-.588 2.192 2.192 0 0 1 .972-.222 1.666 1.666 0 0 1 1.068.324 1.755 1.755 0 0 1 .576.792h.024v-4.3h-.924Zm6.852 5.708h-.024q-.024.156-.4.312l-.9.36a1.312 1.312 0 0 0-.588.438 1.166 1.166 0 0 0-.2.7 2.018 2.018 0 0 0 .036.372.953.953 0 0 0 .132.342.733.733 0 0 0 .27.246.927.927 0 0 0 .45.1 1.117 1.117 0 0 0 .642-.168 1.1 1.1 0 0 0 .372-.42 1.773 1.773 0 0 0 .168-.546 3.806 3.806 0 0 0 .042-.534Zm2.1 2.808a1.644 1.644 0 0 1-.372.21 1.374 1.374 0 0 1-.528.09 1.181 1.181 0 0 1-.834-.246 1.306 1.306 0 0 1-.354-.69h-.024q-.048.108-.132.27a1.07 1.07 0 0 1-.258.312 1.436 1.436 0 0 1-.462.252 2.224 2.224 0 0 1-.732.1 2.318 2.318 0 0 1-.8-.114 1.312 1.312 0 0 1-.468-.282.818.818 0 0 1-.222-.378 1.572 1.572 0 0 1-.054-.392 1.194 1.194 0 0 1 .168-.672 1.244 1.244 0 0 1 .438-.4 2.9 2.9 0 0 1 .6-.246l.666-.2q.4-.132.654-.228a1.159 1.159 0 0 0 .4-.234.718.718 0 0 0 .2-.348 2.384 2.384 0 0 0 .054-.57 3.332 3.332 0 0 0-.036-.516 1.093 1.093 0 0 0-.132-.39.613.613 0 0 0-.276-.246 1.148 1.148 0 0 0-.48-.084 1.378 1.378 0 0 0-.654.138.472.472 0 0 0-.258.45 2.242 2.242 0 0 0 .036.4 1.824 1.824 0 0 1 .036.294.373.373 0 0 1-.12.282.486.486 0 0 1-.348.114q-.4 0-.492-.144a.658.658 0 0 1-.1-.372 1.113 1.113 0 0 1 .12-.5 1.27 1.27 0 0 1 .354-.426 1.761 1.761 0 0 1 .588-.294 2.777 2.777 0 0 1 .81-.108 2.678 2.678 0 0 1 .924.138 1.6 1.6 0 0 1 .6.372 1.351 1.351 0 0 1 .324.528 1.978 1.978 0 0 1 .1.618v2.984a.727.727 0 0 0 .108.468.4.4 0 0 0 .312.12.872.872 0 0 0 .276-.048 1.013 1.013 0 0 0 .276-.144Zm-.2-5.016h2.94v.168h-1.008l1.548 3.768 1.62-3.768h-1v-.168h1.836v.168h-.648l-1.98 4.632q-.228.516-.432 1.038t-.408 1.05a7.78 7.78 0 0 1-.336.756 2.469 2.469 0 0 1-.354.528 1.3 1.3 0 0 1-.4.306 1.169 1.169 0 0 1-.5.1 1.226 1.226 0 0 1-.558-.108 1.042 1.042 0 0 1-.33-.252.723.723 0 0 1-.156-.3 1.208 1.208 0 0 1-.036-.264.572.572 0 0 1 .168-.45.591.591 0 0 1 .408-.15.98.98 0 0 1 .18.018.573.573 0 0 1 .18.066.451.451 0 0 1 .144.132.342.342 0 0 1 .06.2.556.556 0 0 1-.1.318.574.574 0 0 0-.1.33.216.216 0 0 0 .084.2.46.46 0 0 0 .228.048.717.717 0 0 0 .354-.09 1.072 1.072 0 0 0 .318-.294 3 3 0 0 0 .312-.534q.156-.33.348-.81l.518-1.334-2.072-5.136h-.828Zm14.46 2.4a7.349 7.349 0 0 0-.06-.99 2.52 2.52 0 0 0-.21-.75 1.121 1.121 0 0 0-.42-.48 1.287 1.287 0 0 0-.69-.168 1.527 1.527 0 0 0-.732.156 1.419 1.419 0 0 0-.468.4 1.486 1.486 0 0 0-.21.36 2.323 2.323 0 0 0-.126.456 4.844 4.844 0 0 0-.066.606q-.018.342-.018.81a5.77 5.77 0 0 0 .06.816 2.528 2.528 0 0 0 .228.762 1.459 1.459 0 0 0 .474.558 1.377 1.377 0 0 0 .81.216 1.389 1.389 0 0 0 .78-.192 1.158 1.158 0 0 0 .432-.552 2.9 2.9 0 0 0 .18-.87q.036-.514.036-1.138Zm-4.96 2.58h.924v-8.316h-.924v-.168h1.956v4.464h.024a1.755 1.755 0 0 1 .576-.792 1.667 1.667 0 0 1 1.068-.324 2.192 2.192 0 0 1 .972.222 2.779 2.779 0 0 1 .8.588 2.773 2.773 0 0 1 .552.858 2.668 2.668 0 0 1 .2 1.032 2.675 2.675 0 0 1-.21 1.05 2.958 2.958 0 0 1-.57.882 2.793 2.793 0 0 1-.834.612 2.283 2.283 0 0 1-1 .228 1.56 1.56 0 0 1-.69-.138 1.658 1.658 0 0 1-.468-.33 1.479 1.479 0 0 1-.282-.4 3.28 3.28 0 0 1-.144-.348h-.024v1.048h-1.926Zm11-2.976a2.215 2.215 0 0 0 .024-.312v-.3a2.42 2.42 0 0 0-.078-.672 1.093 1.093 0 0 0-.216-.42.763.763 0 0 0-.336-.222 1.339 1.339 0 0 0-.426-.066 1.267 1.267 0 0 0-.672.162 1.193 1.193 0 0 0-.42.438 2.256 2.256 0 0 0-.234.636 4.993 4.993 0 0 0-.1.756Zm-2.472.168q0 .12-.006.246t-.006.318a7.506 7.506 0 0 0 .048.828 2.487 2.487 0 0 0 .21.78 1.454 1.454 0 0 0 .48.576 1.422 1.422 0 0 0 .846.228 2.1 2.1 0 0 0 .87-.156 1.6 1.6 0 0 0 .54-.378 1.637 1.637 0 0 0 .294-.45q.1-.228.144-.372l.18.036a3.448 3.448 0 0 1-.128.378 1.739 1.739 0 0 1-.324.492 1.965 1.965 0 0 1-.6.432 2.22 2.22 0 0 1-.978.186 3.126 3.126 0 0 1-1.11-.192 2.537 2.537 0 0 1-.882-.552 2.494 2.494 0 0 1-.576-.858 2.9 2.9 0 0 1-.2-1.11 2.616 2.616 0 0 1 .21-1.026 2.9 2.9 0 0 1 .576-.882 2.886 2.886 0 0 1 .858-.618 2.427 2.427 0 0 1 1.056-.234 2.42 2.42 0 0 1 .72.12 2.12 2.12 0 0 1 .714.39 2.143 2.143 0 0 1 .552.714 2.456 2.456 0 0 1 .222 1.1Zm4.452-2.172h.924v-1.552q.1.036.18.06a1.186 1.186 0 0 0 .288.024 1.033 1.033 0 0 0 .312-.042.783.783 0 0 0 .252-.138v1.644h1.7v.168h-1.7v3.924a1.865 1.865 0 0 0 .066.546.825.825 0 0 0 .174.324.521.521 0 0 0 .234.15.893.893 0 0 0 .246.036.844.844 0 0 0 .678-.306 1.482 1.482 0 0 0 .33-.7l.168.06a2.792 2.792 0 0 1-.108.348 1.213 1.213 0 0 1-.222.366 1.166 1.166 0 0 1-.39.288 1.4 1.4 0 0 1-.6.114 1.774 1.774 0 0 1-1.254-.348 1.318 1.318 0 0 1-.354-.984v-3.814h-.924Zm4 0h.924v-1.552q.1.036.18.06a1.186 1.186 0 0 0 .288.024 1.033 1.033 0 0 0 .312-.042.783.783 0 0 0 .252-.138v1.644h1.7v.168h-1.7v3.924a1.865 1.865 0 0 0 .066.546.825.825 0 0 0 .174.324.521.521 0 0 0 .234.15.893.893 0 0 0 .25.04.844.844 0 0 0 .678-.306 1.482 1.482 0 0 0 .33-.7l.168.06a2.792 2.792 0 0 1-.108.348 1.213 1.213 0 0 1-.222.366 1.166 1.166 0 0 1-.39.288 1.4 1.4 0 0 1-.6.114 1.774 1.774 0 0 1-1.254-.348 1.318 1.318 0 0 1-.354-.984v-3.818h-.924Zm8.016 2a2.215 2.215 0 0 0 .024-.312v-.3a2.42 2.42 0 0 0-.078-.672 1.093 1.093 0 0 0-.216-.42.763.763 0 0 0-.336-.222 1.339 1.339 0 0 0-.426-.066 1.267 1.267 0 0 0-.672.162 1.193 1.193 0 0 0-.42.438 2.256 2.256 0 0 0-.234.636 4.993 4.993 0 0 0-.1.756Zm-2.472.168q0 .12-.006.246t-.006.318a7.506 7.506 0 0 0 .048.828 2.487 2.487 0 0 0 .21.78 1.454 1.454 0 0 0 .48.576 1.422 1.422 0 0 0 .85.232 2.1 2.1 0 0 0 .87-.156 1.6 1.6 0 0 0 .54-.378 1.637 1.637 0 0 0 .294-.45q.1-.228.144-.372l.18.036a3.448 3.448 0 0 1-.138.378 1.739 1.739 0 0 1-.324.492 1.965 1.965 0 0 1-.6.432 2.22 2.22 0 0 1-.978.186 3.126 3.126 0 0 1-1.11-.192 2.537 2.537 0 0 1-.882-.552 2.494 2.494 0 0 1-.576-.858 2.9 2.9 0 0 1-.2-1.11 2.616 2.616 0 0 1 .21-1.026 2.9 2.9 0 0 1 .576-.882 2.886 2.886 0 0 1 .858-.618 2.427 2.427 0 0 1 1.056-.234 2.42 2.42 0 0 1 .72.12 2.12 2.12 0 0 1 .714.39 2.143 2.143 0 0 1 .546.714 2.456 2.456 0 0 1 .222 1.1Zm4.576 2.812h.924v-4.812h-.924v-.168h1.932v1.212h.024a2.443 2.443 0 0 1 .156-.408 1.782 1.782 0 0 1 .3-.438 1.709 1.709 0 0 1 .462-.354 1.374 1.374 0 0 1 .654-.144 1.181 1.181 0 0 1 .48.09 1.037 1.037 0 0 1 .336.228.838.838 0 0 1 .192.318 1.133 1.133 0 0 1 .06.36.625.625 0 0 1-.18.528.691.691 0 0 1-.42.132q-.528 0-.528-.336a.52.52 0 0 1 .024-.174q.024-.066.054-.132a1.082 1.082 0 0 0 .054-.15.921.921 0 0 0 .024-.24q0-.384-.42-.384a.744.744 0 0 0-.408.144 1.5 1.5 0 0 0-.4.42 2.639 2.639 0 0 0-.312.666 2.907 2.907 0 0 0-.126.894v2.748h1.042v.168h-3Zm4.428 2.22a4.109 4.109 0 0 0 .57-.486 2.615 2.615 0 0 0 .348-.444 1.43 1.43 0 0 0 .168-.378 1.217 1.217 0 0 0 .042-.288.9.9 0 0 0-.216-.624.606.606 0 0 1-.516.3.717.717 0 0 1-.444-.168.572.572 0 0 1-.216-.48.648.648 0 0 1 .21-.48.72.72 0 0 1 .526-.204.809.809 0 0 1 .414.108 1.108 1.108 0 0 1 .318.276 1.151 1.151 0 0 1 .2.4 1.633 1.633 0 0 1 .066.456 1.765 1.765 0 0 1-.144.69 3.3 3.3 0 0 1-.348.63 3.031 3.031 0 0 1-.444.5 3.824 3.824 0 0 1-.42.336ZM3.684 160.894H3.66q-.024.156-.4.312l-.9.36a1.312 1.312 0 0 0-.588.438 1.166 1.166 0 0 0-.2.7 2.018 2.018 0 0 0 .036.372.953.953 0 0 0 .132.342.733.733 0 0 0 .27.246.927.927 0 0 0 .45.1 1.117 1.117 0 0 0 .642-.168 1.1 1.1 0 0 0 .372-.42 1.773 1.773 0 0 0 .168-.546 3.806 3.806 0 0 0 .042-.534Zm2.1 2.808a1.644 1.644 0 0 1-.372.21 1.374 1.374 0 0 1-.528.09 1.181 1.181 0 0 1-.836-.246 1.306 1.306 0 0 1-.354-.69h-.022q-.048.108-.132.27a1.07 1.07 0 0 1-.258.312 1.436 1.436 0 0 1-.462.252 2.224 2.224 0 0 1-.732.1 2.318 2.318 0 0 1-.8-.114 1.312 1.312 0 0 1-.468-.282.818.818 0 0 1-.222-.378 1.572 1.572 0 0 1-.058-.392 1.194 1.194 0 0 1 .168-.672 1.244 1.244 0 0 1 .438-.4 2.9 2.9 0 0 1 .6-.246l.666-.2q.4-.132.654-.228a1.159 1.159 0 0 0 .4-.234.718.718 0 0 0 .2-.348 2.384 2.384 0 0 0 .054-.57 3.332 3.332 0 0 0-.036-.516 1.094 1.094 0 0 0-.132-.39.613.613 0 0 0-.276-.246 1.148 1.148 0 0 0-.48-.084 1.378 1.378 0 0 0-.654.134.472.472 0 0 0-.258.45 2.243 2.243 0 0 0 .036.4 1.823 1.823 0 0 1 .036.294.373.373 0 0 1-.12.282.486.486 0 0 1-.348.114q-.4 0-.492-.144a.658.658 0 0 1-.1-.372 1.113 1.113 0 0 1 .12-.5 1.27 1.27 0 0 1 .354-.426 1.761 1.761 0 0 1 .592-.298 2.777 2.777 0 0 1 .81-.108 2.678 2.678 0 0 1 .924.138 1.6 1.6 0 0 1 .6.372 1.351 1.351 0 0 1 .324.528 1.978 1.978 0 0 1 .1.618v2.992a.727.727 0 0 0 .108.468.4.4 0 0 0 .312.12.872.872 0 0 0 .276-.048 1.013 1.013 0 0 0 .276-.144Zm.336-.036h.928v-4.812H6.12v-.168h1.928v1.284h.024q.072-.156.21-.4a2.089 2.089 0 0 1 .378-.468 2.055 2.055 0 0 1 1.476-.552 2.053 2.053 0 0 1 1.29.384 1.448 1.448 0 0 1 .5 1.224v3.5h.922v.176H9.972v-.168h.924v-3.876a1.257 1.257 0 0 0-.222-.768.8.8 0 0 0-.69-.3 1.663 1.663 0 0 0-.732.168 1.923 1.923 0 0 0-.612.468 2.217 2.217 0 0 0-.414.708 2.555 2.555 0 0 0-.15.888v2.712H9v.168H6.12Zm8.856-2.58q0 .624.036 1.134a2.9 2.9 0 0 0 .18.87 1.158 1.158 0 0 0 .432.552 1.653 1.653 0 0 0 1.59-.024 1.458 1.458 0 0 0 .474-.558 2.528 2.528 0 0 0 .228-.762 5.769 5.769 0 0 0 .06-.816q0-.468-.018-.81a4.842 4.842 0 0 0-.066-.606 2.063 2.063 0 0 0-.132-.456 1.989 1.989 0 0 0-.2-.36 1.42 1.42 0 0 0-.468-.4 1.527 1.527 0 0 0-.732-.156 1.287 1.287 0 0 0-.69.168 1.121 1.121 0 0 0-.42.48 2.52 2.52 0 0 0-.21.75 7.35 7.35 0 0 0-.064.994Zm2.072-5.904h1.96v8.484h.924v.168H18v-1.044h-.024a3.283 3.283 0 0 1-.144.348 1.479 1.479 0 0 1-.282.4 1.658 1.658 0 0 1-.468.33 1.56 1.56 0 0 1-.69.138 2.283 2.283 0 0 1-1-.228 2.793 2.793 0 0 1-.834-.612 2.959 2.959 0 0 1-.57-.882 2.721 2.721 0 0 1-.006-2.082 2.758 2.758 0 0 1 1.356-1.446 2.192 2.192 0 0 1 .97-.222 1.666 1.666 0 0 1 1.068.324 1.755 1.755 0 0 1 .576.792h.024v-4.3h-.928Zm6.492 3.5h2.94v.168h-1.004l1.548 3.768 1.624-3.764h-1v-.168h1.836v.168h-.648l-1.98 4.632q-.228.516-.432 1.038t-.408 1.05a7.78 7.78 0 0 1-.336.756 2.469 2.469 0 0 1-.354.528 1.3 1.3 0 0 1-.4.306 1.169 1.169 0 0 1-.5.1 1.226 1.226 0 0 1-.558-.108 1.042 1.042 0 0 1-.33-.252.723.723 0 0 1-.156-.3 1.208 1.208 0 0 1-.036-.264.572.572 0 0 1 .168-.45.591.591 0 0 1 .408-.15.98.98 0 0 1 .18.018.573.573 0 0 1 .18.066.451.451 0 0 1 .144.132.342.342 0 0 1 .06.2.556.556 0 0 1-.1.318.574.574 0 0 0-.1.33.216.216 0 0 0 .084.2.46.46 0 0 0 .228.048.717.717 0 0 0 .354-.09 1.072 1.072 0 0 0 .318-.294 2.994 2.994 0 0 0 .312-.534q.156-.33.348-.81l.528-1.344-2.086-5.126h-.824Zm7.452 2.58a5.559 5.559 0 0 0 .132 1.356 2.086 2.086 0 0 0 .348.774 1 1 0 0 0 .5.354 2.271 2.271 0 0 0 1.224 0 1 1 0 0 0 .5-.354 2.086 2.086 0 0 0 .348-.774 5.558 5.558 0 0 0 .132-1.356 6.364 6.364 0 0 0-.1-1.206 2.261 2.261 0 0 0-.294-.792 1.134 1.134 0 0 0-.5-.438 1.965 1.965 0 0 0-1.416 0 1.134 1.134 0 0 0-.5.438 2.261 2.261 0 0 0-.294.792 6.363 6.363 0 0 0-.076 1.21Zm-1.2 0a2.362 2.362 0 0 1 .258-1.092 3.036 3.036 0 0 1 1.56-1.44 2.446 2.446 0 0 1 1.956 0 3.036 3.036 0 0 1 1.56 1.44 2.362 2.362 0 0 1 .258 1.092 2.415 2.415 0 0 1-.24 1.062 2.976 2.976 0 0 1-1.524 1.458 2.573 2.573 0 0 1-2.064 0 2.976 2.976 0 0 1-1.524-1.458 2.415 2.415 0 0 1-.236-1.058Zm12.964 2.572h-1.932v-1.212H40.8a4.417 4.417 0 0 1-.258.486 1.961 1.961 0 0 1-.372.444 1.882 1.882 0 0 1-.516.324 1.742 1.742 0 0 1-.69.126 2.346 2.346 0 0 1-.78-.108 1.961 1.961 0 0 1-.468-.228 2.358 2.358 0 0 1-.186-.15.881.881 0 0 1-.186-.246 1.715 1.715 0 0 1-.144-.4 2.6 2.6 0 0 1-.06-.606v-3.41h-.924v-.168h1.956v3.684a3.675 3.675 0 0 0 .042.576 1.266 1.266 0 0 0 .162.462.9.9 0 0 0 .312.312.98.98 0 0 0 .5.114 1.127 1.127 0 0 0 .546-.156 1.778 1.778 0 0 0 .516-.444 2.545 2.545 0 0 0 .39-.69 2.488 2.488 0 0 0 .156-.906v-2.784h-.908v-.168h1.944v4.98h.924Zm1.356-5.508a4.11 4.11 0 0 0 .57-.486 2.614 2.614 0 0 0 .348-.444 1.43 1.43 0 0 0 .168-.378 1.217 1.217 0 0 0 .042-.288.9.9 0 0 0-.216-.624.606.606 0 0 1-.516.3.717.717 0 0 1-.444-.168.572.572 0 0 1-.216-.48.648.648 0 0 1 .21-.48.72.72 0 0 1 .522-.2.809.809 0 0 1 .414.108 1.108 1.108 0 0 1 .318.276 1.151 1.151 0 0 1 .2.4 1.633 1.633 0 0 1 .066.456 1.764 1.764 0 0 1-.144.69 3.3 3.3 0 0 1-.348.63 3.031 3.031 0 0 1-.444.5 3.826 3.826 0 0 1-.42.336Zm2.148 5.34h.924v-4.812h-.924v-.168h1.932v1.212h.024a2.443 2.443 0 0 1 .156-.408 1.781 1.781 0 0 1 .3-.438 1.709 1.709 0 0 1 .462-.354 1.374 1.374 0 0 1 .654-.144 1.181 1.181 0 0 1 .48.09 1.037 1.037 0 0 1 .336.228.838.838 0 0 1 .192.318 1.133 1.133 0 0 1 .06.36.625.625 0 0 1-.18.528.691.691 0 0 1-.42.132q-.528 0-.528-.336a.52.52 0 0 1 .024-.174q.024-.066.054-.132a1.081 1.081 0 0 0 .054-.15.922.922 0 0 0 .024-.24q0-.384-.42-.384a.744.744 0 0 0-.408.144 1.5 1.5 0 0 0-.4.42 2.639 2.639 0 0 0-.312.666 2.907 2.907 0 0 0-.126.894v2.748h1.044v.168h-3Zm8.788-2.976a2.215 2.215 0 0 0 .024-.312v-.3a2.42 2.42 0 0 0-.078-.672 1.093 1.093 0 0 0-.216-.42.763.763 0 0 0-.336-.222 1.339 1.339 0 0 0-.426-.066 1.267 1.267 0 0 0-.672.162 1.193 1.193 0 0 0-.42.438 2.256 2.256 0 0 0-.234.636 4.994 4.994 0 0 0-.1.756Zm-2.472.168q0 .12-.006.246t-.006.318a7.506 7.506 0 0 0 .048.828 2.487 2.487 0 0 0 .21.78 1.454 1.454 0 0 0 .48.576 1.422 1.422 0 0 0 .846.228 2.1 2.1 0 0 0 .87-.156 1.6 1.6 0 0 0 .54-.378 1.637 1.637 0 0 0 .294-.45q.1-.228.144-.372l.18.036a3.447 3.447 0 0 1-.138.378 1.739 1.739 0 0 1-.324.492 1.965 1.965 0 0 1-.6.432 2.22 2.22 0 0 1-.978.186 3.126 3.126 0 0 1-1.11-.192 2.537 2.537 0 0 1-.882-.552 2.494 2.494 0 0 1-.576-.858 2.9 2.9 0 0 1-.2-1.11 2.616 2.616 0 0 1 .21-1.026 2.884 2.884 0 0 1 1.434-1.5 2.38 2.38 0 0 1 1.776-.114 2.12 2.12 0 0 1 .714.39 2.143 2.143 0 0 1 .546.714 2.456 2.456 0 0 1 .222 1.1Zm9.912 3.336-.318.2a1.172 1.172 0 0 0-.288.258 1.294 1.294 0 0 0-.2.366 1.779 1.779 0 0 0 .072 1.236 1.344 1.344 0 0 0 .384.456 1.459 1.459 0 0 0 .522.246 2.32 2.32 0 0 0 .564.072 2.235 2.235 0 0 0 .786-.132 2 2 0 0 0 .612-.354 1.558 1.558 0 0 0 .4-.51 1.372 1.372 0 0 0 .138-.6 1.132 1.132 0 0 0-.366-.954 1.6 1.6 0 0 0-1-.282Zm1.944-3.9a4.4 4.4 0 0 0-.036-.558 1.645 1.645 0 0 0-.15-.516.9.9 0 0 0-.348-.378 1.2 1.2 0 0 0-.63-.144 1.138 1.138 0 0 0-.924.372 1.906 1.906 0 0 0-.312 1.224 3.534 3.534 0 0 0 .054.648 1.289 1.289 0 0 0 .2.5.907.907 0 0 0 .384.318 1.5 1.5 0 0 0 .612.108.993.993 0 0 0 .888-.39 2.128 2.128 0 0 0 .258-1.184Zm-3.744 2.76a1.209 1.209 0 0 1 .12-.558 1.612 1.612 0 0 1 .294-.408 1.631 1.631 0 0 1 .372-.282q.2-.108.354-.18a1.5 1.5 0 0 1-.7-1.3 1.428 1.428 0 0 1 .2-.756 2.009 2.009 0 0 1 .516-.57 2.3 2.3 0 0 1 .69-.354 2.4 2.4 0 0 1 .726-.12 1.891 1.891 0 0 1 .93.216 2.629 2.629 0 0 1 .57.4 1.417 1.417 0 0 1 .39-.42 1.045 1.045 0 0 1 .642-.192.979.979 0 0 1 .444.1.441.441 0 0 1 .2.438.386.386 0 0 1-.138.324.454.454 0 0 1-.282.108.281.281 0 0 1-.24-.1 1.333 1.333 0 0 1-.126-.2q-.054-.108-.114-.2a.2.2 0 0 0-.18-.1.4.4 0 0 0-.246.1 1.232 1.232 0 0 0-.222.234 2.652 2.652 0 0 1 .276.408 1.41 1.41 0 0 1 .168.72 1.259 1.259 0 0 1-.18.66 1.91 1.91 0 0 1-.474.528 2.217 2.217 0 0 1-.684.354 2.58 2.58 0 0 1-.8.126 2.131 2.131 0 0 1-.732-.114 4.868 4.868 0 0 1-.48-.2q-.132.06-.282.132a1.26 1.26 0 0 0-.276.18.944.944 0 0 0-.21.258.688.688 0 0 0-.084.342.575.575 0 0 0 .072.3.472.472 0 0 0 .186.18.85.85 0 0 0 .258.084 1.823 1.823 0 0 0 .3.024h1.9a2.068 2.068 0 0 1 1.338.4 1.531 1.531 0 0 1 .5 1.266 2.025 2.025 0 0 1-.228.96 2.492 2.492 0 0 1-.606.75 2.775 2.775 0 0 1-.87.492 3 3 0 0 1-1.008.174 3.209 3.209 0 0 1-.858-.108 2.445 2.445 0 0 1-.678-.294 1.421 1.421 0 0 1-.45-.45 1.1 1.1 0 0 1-.162-.588 1.281 1.281 0 0 1 .126-.57 1.686 1.686 0 0 1 .324-.456 2.12 2.12 0 0 1 .45-.342 3.6 3.6 0 0 1 .5-.24v-.016a2.1 2.1 0 0 1-1.17-.258.99.99 0 0 1-.37-.882Zm7.44-1.788a5.558 5.558 0 0 0 .132 1.356 2.085 2.085 0 0 0 .348.774 1 1 0 0 0 .5.354 2.271 2.271 0 0 0 1.224 0 1 1 0 0 0 .5-.354 2.086 2.086 0 0 0 .348-.774 5.559 5.559 0 0 0 .132-1.356 6.363 6.363 0 0 0-.1-1.206 2.261 2.261 0 0 0-.294-.792 1.134 1.134 0 0 0-.5-.438 1.965 1.965 0 0 0-1.416 0 1.135 1.135 0 0 0-.5.438 2.261 2.261 0 0 0-.294.792 6.363 6.363 0 0 0-.084 1.206Zm-1.2 0a2.362 2.362 0 0 1 .258-1.092 3.036 3.036 0 0 1 1.56-1.44 2.446 2.446 0 0 1 1.956 0 3.036 3.036 0 0 1 1.56 1.44 2.362 2.362 0 0 1 .258 1.092 2.415 2.415 0 0 1-.24 1.062 2.976 2.976 0 0 1-1.532 1.458 2.573 2.573 0 0 1-2.064 0 2.976 2.976 0 0 1-1.524-1.458 2.415 2.415 0 0 1-.236-1.062Zm6.432 2.4h.924v-4.812h-.924v-.168h1.928v1.284h.024q.072-.156.21-.4a2.089 2.089 0 0 1 .378-.468 2.055 2.055 0 0 1 1.476-.552 2.053 2.053 0 0 1 1.29.384 1.448 1.448 0 0 1 .5 1.224v3.5h.924v.176h-2.882v-.168h.924v-3.876a1.257 1.257 0 0 0-.222-.768.8.8 0 0 0-.69-.3 1.663 1.663 0 0 0-.732.168 1.923 1.923 0 0 0-.612.468 2.217 2.217 0 0 0-.414.708 2.555 2.555 0 0 0-.15.888v2.712h.924v.168h-2.88Zm7.332 0h.924v-4.812h-.928v-.168h1.932v1.284h.028q.072-.156.21-.4a2.089 2.089 0 0 1 .378-.468 2.055 2.055 0 0 1 1.472-.548 2.053 2.053 0 0 1 1.29.384 1.448 1.448 0 0 1 .5 1.224v3.5h.924v.172h-2.88v-.168h.924v-3.876a1.257 1.257 0 0 0-.222-.768.8.8 0 0 0-.69-.3 1.663 1.663 0 0 0-.732.168 1.923 1.923 0 0 0-.612.468 2.217 2.217 0 0 0-.414.708 2.555 2.555 0 0 0-.15.888v2.712h.924v.168h-2.882Zm10.664-2.772h-.024q-.024.156-.4.312l-.9.36a1.312 1.312 0 0 0-.588.438 1.166 1.166 0 0 0-.2.7 2.018 2.018 0 0 0 .036.372.953.953 0 0 0 .132.342.733.733 0 0 0 .27.246.927.927 0 0 0 .45.1 1.117 1.117 0 0 0 .642-.168 1.1 1.1 0 0 0 .372-.42 1.773 1.773 0 0 0 .168-.546 3.806 3.806 0 0 0 .042-.534Zm2.1 2.808a1.644 1.644 0 0 1-.372.21 1.374 1.374 0 0 1-.528.09 1.181 1.181 0 0 1-.834-.246 1.306 1.306 0 0 1-.354-.69h-.02q-.048.108-.132.27a1.07 1.07 0 0 1-.258.312 1.436 1.436 0 0 1-.462.252 2.224 2.224 0 0 1-.732.1 2.318 2.318 0 0 1-.8-.114 1.312 1.312 0 0 1-.468-.282.818.818 0 0 1-.222-.378 1.572 1.572 0 0 1-.054-.39 1.194 1.194 0 0 1 .168-.672 1.244 1.244 0 0 1 .438-.4 2.9 2.9 0 0 1 .6-.246l.666-.2q.4-.132.654-.228a1.159 1.159 0 0 0 .4-.234.718.718 0 0 0 .2-.348 2.384 2.384 0 0 0 .054-.57 3.333 3.333 0 0 0-.036-.516 1.094 1.094 0 0 0-.132-.39.613.613 0 0 0-.276-.246 1.148 1.148 0 0 0-.48-.084 1.378 1.378 0 0 0-.654.138.472.472 0 0 0-.258.45 2.242 2.242 0 0 0 .036.4 1.824 1.824 0 0 1 .036.294.373.373 0 0 1-.12.282.486.486 0 0 1-.348.114q-.4 0-.492-.144a.658.658 0 0 1-.1-.372 1.113 1.113 0 0 1 .12-.5 1.27 1.27 0 0 1 .352-.43 1.761 1.761 0 0 1 .588-.294 2.777 2.777 0 0 1 .812-.106 2.678 2.678 0 0 1 .924.138 1.6 1.6 0 0 1 .6.372 1.351 1.351 0 0 1 .324.528 1.978 1.978 0 0 1 .1.618v2.984a.727.727 0 0 0 .108.468.4.4 0 0 0 .312.12.872.872 0 0 0 .276-.048 1.013 1.013 0 0 0 .276-.144Zm3.672-.036h.92v-8.316h-.92v-.168h1.956v4.716h.024a2.5 2.5 0 0 1 .2-.39 1.9 1.9 0 0 1 .39-.444 2.3 2.3 0 0 1 .6-.36 2.162 2.162 0 0 1 .846-.15 2.053 2.053 0 0 1 1.29.384 1.448 1.448 0 0 1 .5 1.224v3.5h.924v.172h-2.88v-.168h.924v-3.876a1.257 1.257 0 0 0-.222-.768.8.8 0 0 0-.69-.3 1.663 1.663 0 0 0-.732.168 1.923 1.923 0 0 0-.612.468 2.217 2.217 0 0 0-.414.708 2.555 2.555 0 0 0-.15.888v2.712h.924v.168h-2.878Zm10.668-2.772h-.024q-.024.156-.4.312l-.9.36a1.312 1.312 0 0 0-.588.438 1.166 1.166 0 0 0-.2.7 2.018 2.018 0 0 0 .036.372.953.953 0 0 0 .132.342.733.733 0 0 0 .27.246.927.927 0 0 0 .45.1 1.117 1.117 0 0 0 .642-.168 1.1 1.1 0 0 0 .372-.42 1.773 1.773 0 0 0 .168-.546 3.806 3.806 0 0 0 .042-.534Zm2.1 2.808a1.644 1.644 0 0 1-.372.21 1.374 1.374 0 0 1-.528.09 1.181 1.181 0 0 1-.834-.246 1.306 1.306 0 0 1-.354-.69h-.024q-.048.108-.132.27a1.07 1.07 0 0 1-.258.312 1.436 1.436 0 0 1-.462.252 2.224 2.224 0 0 1-.732.1 2.318 2.318 0 0 1-.8-.114 1.312 1.312 0 0 1-.468-.282.818.818 0 0 1-.222-.378 1.572 1.572 0 0 1-.062-.392 1.194 1.194 0 0 1 .168-.672 1.244 1.244 0 0 1 .438-.4 2.9 2.9 0 0 1 .6-.246l.666-.2q.4-.132.654-.228a1.159 1.159 0 0 0 .4-.234.718.718 0 0 0 .2-.348 2.384 2.384 0 0 0 .054-.57 3.333 3.333 0 0 0-.036-.516 1.094 1.094 0 0 0-.132-.39.613.613 0 0 0-.276-.246 1.148 1.148 0 0 0-.48-.084 1.378 1.378 0 0 0-.654.138.472.472 0 0 0-.258.45 2.242 2.242 0 0 0 .036.4 1.824 1.824 0 0 1 .036.294.373.373 0 0 1-.12.282.486.486 0 0 1-.348.114q-.4 0-.492-.144a.658.658 0 0 1-.1-.372 1.113 1.113 0 0 1 .12-.5 1.27 1.27 0 0 1 .354-.426 1.761 1.761 0 0 1 .588-.294 2.777 2.777 0 0 1 .81-.108 2.678 2.678 0 0 1 .924.138 1.6 1.6 0 0 1 .6.372 1.351 1.351 0 0 1 .324.528 1.978 1.978 0 0 1 .1.618v2.984a.727.727 0 0 0 .108.468.4.4 0 0 0 .312.12.872.872 0 0 0 .276-.048 1.013 1.013 0 0 0 .276-.144Zm5.328-2.616a7.35 7.35 0 0 0-.06-.99 2.52 2.52 0 0 0-.21-.75 1.121 1.121 0 0 0-.42-.48 1.287 1.287 0 0 0-.69-.168 1.527 1.527 0 0 0-.732.156 1.42 1.42 0 0 0-.468.4 1.486 1.486 0 0 0-.21.36 2.324 2.324 0 0 0-.126.456 4.842 4.842 0 0 0-.066.606q-.018.342-.018.81a5.769 5.769 0 0 0 .06.816 2.528 2.528 0 0 0 .228.762 1.458 1.458 0 0 0 .474.558 1.652 1.652 0 0 0 1.59.024 1.158 1.158 0 0 0 .432-.552 2.9 2.9 0 0 0 .18-.87q.036-.514.036-1.138Zm-4.956 5.94h.924v-8.172h-.924v-.168h1.932v1.008h.024a1.834 1.834 0 0 1 .594-.834 1.671 1.671 0 0 1 1.074-.33 2.192 2.192 0 0 1 .972.222 2.758 2.758 0 0 1 1.356 1.446 2.721 2.721 0 0 1-.006 2.082 2.959 2.959 0 0 1-.57.882 2.793 2.793 0 0 1-.834.612 2.283 2.283 0 0 1-1 .228 1.56 1.56 0 0 1-.69-.138 1.635 1.635 0 0 1-.462-.324 1.494 1.494 0 0 1-.276-.384 2.281 2.281 0 0 1-.134-.322h-.024v4.188h.924v.168h-2.88Zm12.072-5.94a7.35 7.35 0 0 0-.06-.99 2.52 2.52 0 0 0-.21-.75 1.121 1.121 0 0 0-.42-.48 1.287 1.287 0 0 0-.69-.168 1.527 1.527 0 0 0-.732.156 1.42 1.42 0 0 0-.468.4 1.486 1.486 0 0 0-.21.36 2.324 2.324 0 0 0-.126.456 4.842 4.842 0 0 0-.066.606q-.018.342-.018.81a5.769 5.769 0 0 0 .06.816 2.528 2.528 0 0 0 .228.762 1.458 1.458 0 0 0 .474.558 1.652 1.652 0 0 0 1.59.024 1.158 1.158 0 0 0 .432-.552 2.9 2.9 0 0 0 .18-.87q.036-.514.036-1.138Zm-4.956 5.94h.924v-8.172h-.924v-.168h1.932v1.008h.024a1.834 1.834 0 0 1 .594-.834 1.671 1.671 0 0 1 1.074-.33 2.192 2.192 0 0 1 .972.222 2.758 2.758 0 0 1 1.356 1.446 2.721 2.721 0 0 1-.006 2.082 2.959 2.959 0 0 1-.57.882 2.793 2.793 0 0 1-.834.612 2.283 2.283 0 0 1-1 .228 1.56 1.56 0 0 1-.69-.138 1.635 1.635 0 0 1-.462-.324 1.494 1.494 0 0 1-.276-.384 2.281 2.281 0 0 1-.132-.318h-.024v4.188h.924v.168h-2.88Zm7.9-11.136a.635.635 0 1 1 .186.45.613.613 0 0 1-.19-.45Zm-.78 7.776h.924v-4.812h-.924v-.168h1.956v4.98h.924v.168h-2.88Zm7.44-2.976a2.215 2.215 0 0 0 .024-.312v-.3a2.42 2.42 0 0 0-.078-.672 1.093 1.093 0 0 0-.216-.42.763.763 0 0 0-.336-.222 1.339 1.339 0 0 0-.426-.066 1.267 1.267 0 0 0-.672.162 1.193 1.193 0 0 0-.42.438 2.256 2.256 0 0 0-.234.636 4.993 4.993 0 0 0-.1.756Zm-2.472.168q0 .12-.006.246t-.006.318a7.506 7.506 0 0 0 .048.828 2.487 2.487 0 0 0 .21.78 1.454 1.454 0 0 0 .48.576 1.422 1.422 0 0 0 .846.228 2.1 2.1 0 0 0 .87-.156 1.6 1.6 0 0 0 .54-.378 1.637 1.637 0 0 0 .294-.45q.1-.228.144-.372l.18.036a3.448 3.448 0 0 1-.138.378 1.739 1.739 0 0 1-.324.492 1.965 1.965 0 0 1-.6.432 2.22 2.22 0 0 1-.978.186 3.126 3.126 0 0 1-1.11-.192 2.537 2.537 0 0 1-.882-.552 2.494 2.494 0 0 1-.576-.858 2.9 2.9 0 0 1-.2-1.11 2.616 2.616 0 0 1 .21-1.026 2.884 2.884 0 0 1 1.434-1.5 2.38 2.38 0 0 1 1.776-.114 2.12 2.12 0 0 1 .714.39 2.143 2.143 0 0 1 .552.714 2.456 2.456 0 0 1 .222 1.1Zm4.572 2.808h.924v-4.812h-.924v-.168h1.932v1.212H136a2.443 2.443 0 0 1 .156-.408 1.782 1.782 0 0 1 .3-.438 1.709 1.709 0 0 1 .462-.354 1.374 1.374 0 0 1 .654-.144 1.181 1.181 0 0 1 .48.09 1.037 1.037 0 0 1 .336.228.838.838 0 0 1 .192.318 1.133 1.133 0 0 1 .06.36.625.625 0 0 1-.18.528.691.691 0 0 1-.42.132q-.528 0-.528-.336a.52.52 0 0 1 .024-.174q.024-.066.054-.132a1.082 1.082 0 0 0 .054-.15.921.921 0 0 0 .024-.24q0-.384-.42-.384a.744.744 0 0 0-.408.144 1.5 1.5 0 0 0-.4.42 2.639 2.639 0 0 0-.312.666 2.907 2.907 0 0 0-.126.894v2.748h1.044v.168h-3Zm8.1-4.98h.924v-1.552q.1.036.18.06a1.186 1.186 0 0 0 .288.024 1.033 1.033 0 0 0 .312-.042.783.783 0 0 0 .252-.138v1.648h1.7v.168h-1.7v3.924a1.865 1.865 0 0 0 .066.546.825.825 0 0 0 .174.324.521.521 0 0 0 .234.15.893.893 0 0 0 .246.036.844.844 0 0 0 .678-.306 1.482 1.482 0 0 0 .33-.7l.168.06a2.792 2.792 0 0 1-.108.348 1.213 1.213 0 0 1-.222.366 1.166 1.166 0 0 1-.39.288 1.4 1.4 0 0 1-.6.114 1.774 1.774 0 0 1-1.254-.348 1.318 1.318 0 0 1-.354-.984v-3.818h-.924Zm4.092 4.98h.924v-8.316h-.924v-.168h1.956v4.716h.024a2.5 2.5 0 0 1 .2-.39 1.9 1.9 0 0 1 .39-.444 2.3 2.3 0 0 1 .6-.36 2.162 2.162 0 0 1 .846-.15 2.053 2.053 0 0 1 1.29.384 1.448 1.448 0 0 1 .5 1.224v3.5h.924v.172h-2.88v-.168h.924v-3.876a1.257 1.257 0 0 0-.222-.768.8.8 0 0 0-.69-.3 1.663 1.663 0 0 0-.732.168 1.923 1.923 0 0 0-.612.468 2.217 2.217 0 0 0-.414.708 2.554 2.554 0 0 0-.15.888v2.712h.924v.168h-2.88Zm10.668-2.772h-.024q-.024.156-.4.312l-.9.36a1.312 1.312 0 0 0-.588.438 1.166 1.166 0 0 0-.2.7 2.017 2.017 0 0 0 .036.372.953.953 0 0 0 .132.342.732.732 0 0 0 .27.246.927.927 0 0 0 .45.1 1.117 1.117 0 0 0 .642-.168 1.1 1.1 0 0 0 .372-.42 1.773 1.773 0 0 0 .168-.546 3.806 3.806 0 0 0 .042-.534Zm2.1 2.808a1.644 1.644 0 0 1-.372.21 1.374 1.374 0 0 1-.528.09 1.181 1.181 0 0 1-.834-.246 1.306 1.306 0 0 1-.354-.69h-.024q-.048.108-.132.27a1.07 1.07 0 0 1-.258.312 1.436 1.436 0 0 1-.462.252 2.224 2.224 0 0 1-.732.1 2.318 2.318 0 0 1-.8-.114 1.312 1.312 0 0 1-.468-.282.818.818 0 0 1-.222-.378 1.573 1.573 0 0 1-.054-.39 1.194 1.194 0 0 1 .168-.672 1.244 1.244 0 0 1 .438-.4 2.9 2.9 0 0 1 .6-.246l.666-.2q.4-.132.654-.228a1.159 1.159 0 0 0 .4-.234.718.718 0 0 0 .2-.348 2.384 2.384 0 0 0 .054-.57 3.332 3.332 0 0 0-.036-.516 1.093 1.093 0 0 0-.132-.39.613.613 0 0 0-.276-.246 1.148 1.148 0 0 0-.48-.084 1.378 1.378 0 0 0-.654.138.472.472 0 0 0-.258.45 2.242 2.242 0 0 0 .036.4 1.823 1.823 0 0 1 .036.294.373.373 0 0 1-.12.282.486.486 0 0 1-.348.114q-.4 0-.492-.144a.659.659 0 0 1-.1-.372 1.113 1.113 0 0 1 .12-.5 1.27 1.27 0 0 1 .354-.426 1.761 1.761 0 0 1 .588-.294 2.777 2.777 0 0 1 .81-.108 2.678 2.678 0 0 1 .924.138 1.6 1.6 0 0 1 .6.372 1.351 1.351 0 0 1 .324.528 1.978 1.978 0 0 1 .1.618v2.982a.727.727 0 0 0 .108.468.4.4 0 0 0 .312.12.872.872 0 0 0 .276-.048 1.013 1.013 0 0 0 .276-.144Zm.336-.036h.924v-4.812h-.924v-.168h1.932v1.284h.024q.072-.156.21-.4a2.089 2.089 0 0 1 .378-.468 2.055 2.055 0 0 1 1.476-.552 2.053 2.053 0 0 1 1.29.384 1.448 1.448 0 0 1 .5 1.224v3.5h.924v.176h-2.88v-.168h.924v-3.876a1.257 1.257 0 0 0-.222-.768.8.8 0 0 0-.69-.3 1.663 1.663 0 0 0-.732.168 1.923 1.923 0 0 0-.612.468 2.217 2.217 0 0 0-.414.708 2.554 2.554 0 0 0-.15.888v2.712h.924v.168h-2.88Zm10.308-4.98h2.94v.168h-1.008l1.548 3.768 1.62-3.768h-1v-.168h1.836v.168h-.648l-1.98 4.632q-.228.516-.432 1.038t-.408 1.05a7.78 7.78 0 0 1-.336.756 2.468 2.468 0 0 1-.354.528 1.3 1.3 0 0 1-.4.306 1.169 1.169 0 0 1-.5.1 1.226 1.226 0 0 1-.558-.108 1.042 1.042 0 0 1-.33-.252.723.723 0 0 1-.156-.3 1.208 1.208 0 0 1-.036-.264.572.572 0 0 1 .168-.45.591.591 0 0 1 .408-.15.98.98 0 0 1 .18.018.573.573 0 0 1 .18.066.451.451 0 0 1 .144.132.342.342 0 0 1 .06.2.556.556 0 0 1-.1.318.574.574 0 0 0-.1.33.216.216 0 0 0 .084.2.46.46 0 0 0 .228.048.717.717 0 0 0 .354-.09 1.072 1.072 0 0 0 .318-.294 3 3 0 0 0 .312-.534q.156-.33.348-.81l.528-1.344-2.076-5.136h-.834Zm7.452 2.58a5.559 5.559 0 0 0 .132 1.356 2.086 2.086 0 0 0 .348.774 1 1 0 0 0 .5.354 2.271 2.271 0 0 0 1.224 0 1 1 0 0 0 .5-.354 2.086 2.086 0 0 0 .348-.774 5.559 5.559 0 0 0 .132-1.356 6.362 6.362 0 0 0-.1-1.206 2.261 2.261 0 0 0-.294-.792 1.135 1.135 0 0 0-.5-.438 1.965 1.965 0 0 0-1.416 0 1.135 1.135 0 0 0-.5.438 2.261 2.261 0 0 0-.294.792 6.364 6.364 0 0 0-.084 1.206Zm-1.2 0a2.361 2.361 0 0 1 .258-1.092 3.036 3.036 0 0 1 1.56-1.44 2.446 2.446 0 0 1 1.956 0 3.036 3.036 0 0 1 1.56 1.44 2.361 2.361 0 0 1 .258 1.092 2.415 2.415 0 0 1-.24 1.062 2.976 2.976 0 0 1-1.524 1.458 2.573 2.573 0 0 1-2.064 0 2.976 2.976 0 0 1-1.524-1.458 2.415 2.415 0 0 1-.244-1.062Zm12.956 2.568h-1.932v-1.212h-.024a4.42 4.42 0 0 1-.258.486 1.961 1.961 0 0 1-.372.444 1.882 1.882 0 0 1-.516.324 1.742 1.742 0 0 1-.69.126 2.346 2.346 0 0 1-.78-.108 1.961 1.961 0 0 1-.468-.228 2.358 2.358 0 0 1-.186-.15.881.881 0 0 1-.186-.246 1.715 1.715 0 0 1-.144-.4 2.6 2.6 0 0 1-.06-.606v-3.41h-.924v-.168h1.956v3.684a3.675 3.675 0 0 0 .042.576 1.266 1.266 0 0 0 .162.462.9.9 0 0 0 .312.312.98.98 0 0 0 .5.114 1.127 1.127 0 0 0 .546-.156 1.778 1.778 0 0 0 .516-.444 2.545 2.545 0 0 0 .39-.69 2.488 2.488 0 0 0 .156-.906v-2.784h-.912v-.168h1.944v4.98h.924Zm1.356-5.508a4.109 4.109 0 0 0 .57-.486 2.615 2.615 0 0 0 .348-.444 1.43 1.43 0 0 0 .168-.378 1.217 1.217 0 0 0 .042-.288.9.9 0 0 0-.216-.624.606.606 0 0 1-.516.3.717.717 0 0 1-.444-.168.572.572 0 0 1-.216-.48.648.648 0 0 1 .21-.48.72.72 0 0 1 .522-.2.809.809 0 0 1 .414.108 1.108 1.108 0 0 1 .318.276 1.151 1.151 0 0 1 .2.4 1.633 1.633 0 0 1 .066.456 1.765 1.765 0 0 1-.144.69 3.3 3.3 0 0 1-.348.63 3.031 3.031 0 0 1-.444.5 3.824 3.824 0 0 1-.42.336Zm2.148 5.34h.924v-4.812h-.924v-.168h1.932v1.212h.024a2.443 2.443 0 0 1 .156-.408 1.782 1.782 0 0 1 .3-.438 1.709 1.709 0 0 1 .462-.354 1.374 1.374 0 0 1 .654-.144 1.181 1.181 0 0 1 .48.09 1.037 1.037 0 0 1 .336.228.838.838 0 0 1 .192.318 1.133 1.133 0 0 1 .06.36.625.625 0 0 1-.18.528.691.691 0 0 1-.42.132q-.528 0-.528-.336a.52.52 0 0 1 .024-.174q.024-.066.054-.132a1.082 1.082 0 0 0 .054-.15.921.921 0 0 0 .024-.24q0-.384-.42-.384a.744.744 0 0 0-.408.144 1.5 1.5 0 0 0-.4.42 2.639 2.639 0 0 0-.312.666 2.907 2.907 0 0 0-.126.894v2.748h1.044v.168h-3Zm8.784-2.976a2.215 2.215 0 0 0 .024-.312v-.3a2.42 2.42 0 0 0-.078-.672 1.093 1.093 0 0 0-.216-.42.763.763 0 0 0-.336-.222 1.339 1.339 0 0 0-.426-.066 1.267 1.267 0 0 0-.672.162 1.193 1.193 0 0 0-.42.438 2.256 2.256 0 0 0-.234.636 5 5 0 0 0-.1.756Zm-2.472.168q0 .12-.006.246t-.006.318a7.506 7.506 0 0 0 .048.828 2.487 2.487 0 0 0 .21.78 1.454 1.454 0 0 0 .48.576 1.422 1.422 0 0 0 .85.228 2.1 2.1 0 0 0 .87-.156 1.6 1.6 0 0 0 .54-.378 1.637 1.637 0 0 0 .294-.45q.1-.228.144-.372l.18.036a3.448 3.448 0 0 1-.138.378 1.739 1.739 0 0 1-.324.492 1.965 1.965 0 0 1-.6.432 2.22 2.22 0 0 1-.978.186 3.126 3.126 0 0 1-1.11-.192 2.537 2.537 0 0 1-.882-.552 2.494 2.494 0 0 1-.576-.858 2.9 2.9 0 0 1-.2-1.11 2.616 2.616 0 0 1 .21-1.026 2.884 2.884 0 0 1 1.434-1.5 2.38 2.38 0 0 1 1.776-.114 2.12 2.12 0 0 1 .714.39 2.143 2.143 0 0 1 .552.714 2.456 2.456 0 0 1 .222 1.1Zm7.788-2.172h.924v-1.552q.1.036.18.06a1.186 1.186 0 0 0 .288.024 1.033 1.033 0 0 0 .312-.042.783.783 0 0 0 .252-.138v1.648h1.7v.168h-1.7v3.924a1.865 1.865 0 0 0 .066.546.825.825 0 0 0 .174.324.521.521 0 0 0 .234.15.893.893 0 0 0 .246.036.844.844 0 0 0 .678-.306 1.482 1.482 0 0 0 .33-.7l.168.06a2.792 2.792 0 0 1-.108.348 1.213 1.213 0 0 1-.222.366 1.166 1.166 0 0 1-.39.288 1.4 1.4 0 0 1-.6.114 1.774 1.774 0 0 1-1.254-.348 1.318 1.318 0 0 1-.354-.984v-3.818h-.924Zm4.092 4.98h.924v-8.316h-.928v-.168h1.956v4.716h.024a2.5 2.5 0 0 1 .2-.39 1.9 1.9 0 0 1 .39-.444 2.3 2.3 0 0 1 .6-.36 2.162 2.162 0 0 1 .846-.15 2.053 2.053 0 0 1 1.29.384 1.448 1.448 0 0 1 .5 1.224v3.5h.924v.172h-2.88v-.168h.924v-3.876a1.257 1.257 0 0 0-.222-.768.8.8 0 0 0-.69-.3 1.663 1.663 0 0 0-.732.168 1.923 1.923 0 0 0-.612.468 2.217 2.217 0 0 0-.414.708 2.554 2.554 0 0 0-.15.888v2.712h.924v.168h-2.878Zm8.772-2.4a5.559 5.559 0 0 0 .132 1.356 2.086 2.086 0 0 0 .348.774 1 1 0 0 0 .5.354 2.271 2.271 0 0 0 1.224 0 1 1 0 0 0 .5-.354 2.086 2.086 0 0 0 .348-.774 5.559 5.559 0 0 0 .132-1.356 6.362 6.362 0 0 0-.1-1.206 2.261 2.261 0 0 0-.294-.792 1.135 1.135 0 0 0-.5-.438 1.965 1.965 0 0 0-1.416 0 1.135 1.135 0 0 0-.5.438 2.261 2.261 0 0 0-.294.792 6.364 6.364 0 0 0-.08 1.206Zm-1.2 0a2.361 2.361 0 0 1 .258-1.092 3.036 3.036 0 0 1 1.56-1.44 2.446 2.446 0 0 1 1.956 0 3.036 3.036 0 0 1 1.56 1.44 2.361 2.361 0 0 1 .258 1.092 2.415 2.415 0 0 1-.24 1.062 2.976 2.976 0 0 1-1.524 1.458 2.573 2.573 0 0 1-2.064 0 2.976 2.976 0 0 1-1.524-1.458 2.415 2.415 0 0 1-.24-1.062Zm12.96 2.568h-1.936v-1.212h-.024a4.42 4.42 0 0 1-.258.486 1.961 1.961 0 0 1-.372.444 1.882 1.882 0 0 1-.516.324 1.742 1.742 0 0 1-.69.126 2.346 2.346 0 0 1-.78-.108 1.961 1.961 0 0 1-.468-.228 2.358 2.358 0 0 1-.186-.15.881.881 0 0 1-.186-.246 1.715 1.715 0 0 1-.144-.4 2.6 2.6 0 0 1-.06-.606v-3.41h-.916v-.168h1.956v3.684a3.675 3.675 0 0 0 .042.576 1.266 1.266 0 0 0 .162.462.9.9 0 0 0 .312.312.98.98 0 0 0 .5.114 1.127 1.127 0 0 0 .546-.156 1.778 1.778 0 0 0 .516-.444 2.545 2.545 0 0 0 .39-.69 2.488 2.488 0 0 0 .156-.906v-2.784h-.912v-.168h1.944v4.98h.924Zm2.616.36-.318.2a1.172 1.172 0 0 0-.288.258 1.294 1.294 0 0 0-.2.366 1.779 1.779 0 0 0 .072 1.236 1.344 1.344 0 0 0 .384.456 1.459 1.459 0 0 0 .522.246 2.32 2.32 0 0 0 .564.072 2.235 2.235 0 0 0 .786-.132 2 2 0 0 0 .612-.354 1.557 1.557 0 0 0 .4-.51 1.372 1.372 0 0 0 .138-.6 1.132 1.132 0 0 0-.366-.954 1.6 1.6 0 0 0-1-.282Zm1.944-3.9a4.4 4.4 0 0 0-.036-.558 1.645 1.645 0 0 0-.15-.516.9.9 0 0 0-.348-.378 1.2 1.2 0 0 0-.63-.144 1.138 1.138 0 0 0-.924.372 1.906 1.906 0 0 0-.312 1.224 3.534 3.534 0 0 0 .054.648 1.289 1.289 0 0 0 .2.5.907.907 0 0 0 .384.318 1.5 1.5 0 0 0 .612.108.993.993 0 0 0 .888-.39 2.128 2.128 0 0 0 .266-1.184Zm-3.744 2.76a1.209 1.209 0 0 1 .12-.558 1.612 1.612 0 0 1 .294-.408 1.631 1.631 0 0 1 .372-.282q.2-.108.354-.18a1.5 1.5 0 0 1-.7-1.3 1.428 1.428 0 0 1 .2-.756 2.009 2.009 0 0 1 .516-.57 2.3 2.3 0 0 1 .69-.354 2.4 2.4 0 0 1 .726-.12 1.891 1.891 0 0 1 .93.216 2.629 2.629 0 0 1 .57.4 1.417 1.417 0 0 1 .39-.42 1.045 1.045 0 0 1 .642-.192.979.979 0 0 1 .444.1.441.441 0 0 1 .2.438.386.386 0 0 1-.138.324.454.454 0 0 1-.282.108.281.281 0 0 1-.24-.1 1.332 1.332 0 0 1-.126-.2q-.054-.108-.114-.2a.2.2 0 0 0-.18-.1.4.4 0 0 0-.246.1 1.232 1.232 0 0 0-.222.234 2.652 2.652 0 0 1 .276.408 1.41 1.41 0 0 1 .168.72 1.259 1.259 0 0 1-.18.66 1.91 1.91 0 0 1-.474.528 2.217 2.217 0 0 1-.684.354 2.58 2.58 0 0 1-.8.126 2.132 2.132 0 0 1-.732-.114 4.868 4.868 0 0 1-.48-.2q-.132.06-.282.132a1.26 1.26 0 0 0-.276.18.944.944 0 0 0-.21.258.688.688 0 0 0-.084.342.574.574 0 0 0 .072.3.472.472 0 0 0 .186.18.85.85 0 0 0 .258.084 1.823 1.823 0 0 0 .3.024h1.9a2.068 2.068 0 0 1 1.338.4 1.531 1.531 0 0 1 .5 1.266 2.025 2.025 0 0 1-.228.96 2.492 2.492 0 0 1-.606.75 2.775 2.775 0 0 1-.87.492 3 3 0 0 1-1.008.174 3.209 3.209 0 0 1-.858-.108 2.445 2.445 0 0 1-.678-.294 1.421 1.421 0 0 1-.45-.45 1.1 1.1 0 0 1-.162-.588 1.281 1.281 0 0 1 .126-.57 1.686 1.686 0 0 1 .324-.456 2.12 2.12 0 0 1 .45-.342 3.6 3.6 0 0 1 .5-.24v-.016a2.1 2.1 0 0 1-1.17-.258.99.99 0 0 1-.366-.882Zm6 .612h.924v-8.316h-.924v-.168h1.956v4.716h.024a2.5 2.5 0 0 1 .2-.39 1.9 1.9 0 0 1 .39-.444 2.3 2.3 0 0 1 .6-.36 2.162 2.162 0 0 1 .846-.15 2.053 2.053 0 0 1 1.29.384 1.448 1.448 0 0 1 .5 1.224v3.5h.924v.172h-2.882v-.168h.924v-3.876a1.257 1.257 0 0 0-.222-.768.8.8 0 0 0-.69-.3 1.663 1.663 0 0 0-.732.168 1.923 1.923 0 0 0-.612.468 2.217 2.217 0 0 0-.414.708 2.554 2.554 0 0 0-.15.888v2.712h.924v.168h-2.88Zm7.236-4.98h.924v-1.552q.1.036.18.06a1.186 1.186 0 0 0 .288.024 1.033 1.033 0 0 0 .312-.042.783.783 0 0 0 .252-.138v1.648h1.7v.168h-1.7v3.924a1.865 1.865 0 0 0 .066.546.825.825 0 0 0 .174.324.521.521 0 0 0 .234.15.893.893 0 0 0 .246.036.844.844 0 0 0 .678-.306 1.482 1.482 0 0 0 .33-.7l.168.06a2.792 2.792 0 0 1-.108.348 1.213 1.213 0 0 1-.222.366 1.166 1.166 0 0 1-.39.288 1.4 1.4 0 0 1-.6.114 1.774 1.774 0 0 1-1.254-.348 1.318 1.318 0 0 1-.354-.984v-3.818h-.924Zm4.824 4.644a.635.635 0 1 1 .186.45.613.613 0 0 1-.186-.446Z"/></g></g></svg>