<svg xmlns="http://www.w3.org/2000/svg" width="302.992" height="126.668"><g data-name="グループ 1628"><g data-name="グループ 95" fill="#fff"><g data-name="グループ 73"><path data-name="パス 40" d="M7.696 29.184c1.408 1.92 4.992 5.12 14.08 9.472 7.936 4.1 13.184 7.3 15.872 9.984 8.192 7.68 5.76 20.224-5.632 23.424a20.4 20.4 0 0 1-5.5.768c-9.088 0-17.536-6.4-21.5-14.592v11.776a5.367 5.367 0 0 1 2.816-.64c4.992 0 11.52 4.48 19.328 4.48 10.624 0 21.248-9.856 21.248-20.608 0-7.3-4.608-13.312-14.336-17.92l-11.648-5.632c-5.376-2.688-8.96-5.12-10.88-7.552-6.4-8.064-2.688-17.664 7.168-20.48a22.238 22.238 0 0 1 4.992-.64c9.856 0 15.36 4.48 19.328 12.8V3.584a4.615 4.615 0 0 1-2.56.768c-1.152.256-3.072-.384-5.5-1.536A23.463 23.463 0 0 0 23.964 0a19.714 19.714 0 0 0-5.5.768C7.44 3.84.272 19.84 7.696 29.184Zm45.7 26.752c0 8.96 4.992 15.744 14.336 15.744 7.808 0 10.24-4.48 15.616-4.48 1.92 0 4.352.64 7.552 2.3 2.172 1.156 4.348 2.436 7.04 2.436 4.1 0 7.552-1.92 10.5-4.608h-.768c-3.84 0-5.5-2.688-6.144-6.144-.256-1.152-.384-3.712-.384-13.312V23.424c0-8.576-.9-11.776-1.28-12.8C96.536 2.816 87.832.896 79.512.896c-10.752 0-23.3 5.888-23.3 16 0 2.432 1.024 4.736 3.712 4.736 2.944 0 3.968-2.048 3.968-4.608l-.128-4.608c0-8.064 8.96-10.5 15.744-10.5 11.008 0 13.7 7.552 14.08 16.9.128 2.56-1.28 5.76-3.2 7.04a49.223 49.223 0 0 1-9.728 4.864c-9.988 4.352-27.268 12.416-27.268 25.216Zm27.776-24.192c4.864-2.176 9.344-4.1 12.416-7.168v38.016c.128 4.48 1.024 6.528 1.792 7.424.256.256.384.512.64.64a20.652 20.652 0 0 1-4.608-1.92c-2.432-1.28-4.864-2.56-7.936-2.56a13.137 13.137 0 0 0-5.38 1.152 10.787 10.787 0 0 1-3.84.768c-3.456 0-6.528-1.792-9.088-4.48-12.928-14.336 3.328-26.624 16-31.872Zm30.336-24.96a5.12 5.12 0 0 1 2.3 1.28c1.28 1.152 2.176 2.816 2.816 5.5.256 1.28.512 4.48.512 16.384v26.88c0 4.608 0 9.984-3.456 13.44h14.46a9.767 9.767 0 0 1-2.3-3.2c-.512-1.152-1.152-3.328-1.152-10.24V29.696a40.432 40.432 0 0 1 4.48-12.416c3.84-6.656 11.264-11.9 18.048-11.9 11.264-.004 12.924 13.18 12.924 21.756v29.7c0 5.76-.128 7.168-.512 8.064a10.506 10.506 0 0 1-2.94 5.372h14.464a7.167 7.167 0 0 1-2.176-3.072c-1.024-2.048-1.408-5.376-1.408-10.368V25.856c0-6.016-.512-10.752-1.536-13.44-2.816-7.808-8.192-11.008-14.08-11.008-8.832 0-18.812 7.04-23.552 15.36a40.517 40.517 0 0 0-3.712 8.832V1.536h-.128Zm64.768 1.536a8.961 8.961 0 0 1 2.688 5.5c.384 1.28.768 4.352.768 16v62.468c0 6.016-.512 7.936-1.024 8.96a8.741 8.741 0 0 1-2.568 3.46h14.98c-5.12-4.1-3.968-15.744-3.968-21.632v-20.1c6.528 6.4 11.264 11.132 21.76 10.24 17.664-1.536 29.056-19.584 29.056-35.708 0-24.7-14.336-35.712-28.032-35.712-9.728 0-19.2 5.5-22.784 15.488V1.792h-.256L174.224 7.04a5.011 5.011 0 0 1 2.048 1.28Zm10.88 13.44c1.152-10.5 8.7-15.872 17.152-15.872 11.516 0 24.832 10.24 24.832 31.62 0 13.18-4.868 33.4-20.356 34.684-7.68.768-14.848-2.048-18.432-8.96a27.662 27.662 0 0 1-3.2-10.752ZM245.52 6.528c.9 2.048 1.28 5.376 1.28 10.5v30.848c0 10.492 2.176 24.444 15.74 24.444 8.832 0 18.816-6.912 23.552-15.36a42.357 42.357 0 0 0 3.712-8.7v24.06h.128l13.056-5.376c-6.784-2.3-5.76-17.152-5.76-23.04V3.584h-10.88a7.665 7.665 0 0 1 2.3 3.2c.512 1.152 1.152 3.072 1.152 10.24V44.16a45.967 45.967 0 0 1-4.48 12.288c-3.84 6.784-11.264 12.032-18.048 12.032-11.392 0-12.928-13.312-12.928-21.888l-.128-43.008H243.34a7.1 7.1 0 0 1 2.18 2.944Z"/><text transform="translate(197.04 38.808)" font-size="27" font-family="HiraMinProN-W6, Hiragino Mincho ProN"><tspan x="-13.5" y="0">三</tspan></text><text transform="translate(215.04 60.808)" font-size="27" font-family="HiraMinProN-W6, Hiragino Mincho ProN"><tspan x="-13.5" y="0">風</tspan></text></g><path data-name="パス 39" d="M0 104.518h2.41v.14h-.83l1.12 3.12 1.04-2.47-.25-.65h-.42v-.14h1.99v.14h-.67l1.16 3.1 1.25-3.1h-.94v-.14h1.63v.14h-.53l-1.79 4.48-1.36-3.63-1.52 3.63-1.61-4.48H0Zm10.87 1.67a1.846 1.846 0 0 0 .02-.26v-.25a2.017 2.017 0 0 0-.065-.56.911.911 0 0 0-.18-.35.636.636 0 0 0-.28-.185 1.116 1.116 0 0 0-.355-.055 1.056 1.056 0 0 0-.56.135 1 1 0 0 0-.35.365 1.88 1.88 0 0 0-.195.53 4.162 4.162 0 0 0-.085.63Zm-2.06.14q0 .1-.005.2t-.005.27a6.255 6.255 0 0 0 .04.69 2.073 2.073 0 0 0 .175.65 1.212 1.212 0 0 0 .4.48 1.185 1.185 0 0 0 .7.19 1.753 1.753 0 0 0 .725-.13 1.334 1.334 0 0 0 .45-.315 1.364 1.364 0 0 0 .25-.375q.08-.19.12-.31l.15.03a2.872 2.872 0 0 1-.115.315 1.449 1.449 0 0 1-.27.41 1.637 1.637 0 0 1-.5.36 1.85 1.85 0 0 1-.815.155 2.6 2.6 0 0 1-.925-.16 2.114 2.114 0 0 1-.735-.46 2.079 2.079 0 0 1-.48-.715 2.419 2.419 0 0 1-.17-.925 2.18 2.18 0 0 1 .175-.855 2.416 2.416 0 0 1 .48-.735 2.4 2.4 0 0 1 .715-.515 2.023 2.023 0 0 1 .88-.195 2.017 2.017 0 0 1 .6.1 1.767 1.767 0 0 1 .59.32 1.786 1.786 0 0 1 .46.6 2.047 2.047 0 0 1 .185.92Zm6.52 2.34h.77v-4.01h-.77v-.14h1.61v1.05h.02a1.741 1.741 0 0 1 .6-.88 1.609 1.609 0 0 1 .955-.28 1.752 1.752 0 0 1 .885.22 1.074 1.074 0 0 1 .5.73h.02a1.633 1.633 0 0 1 .19-.35 1.367 1.367 0 0 1 .3-.305 1.454 1.454 0 0 1 .425-.215 1.784 1.784 0 0 1 .555-.08 1.3 1.3 0 0 1 1.46 1.49v2.77h.77v.14h-2.4v-.14h.77v-3.4a.728.728 0 0 0-.185-.53.672.672 0 0 0-.5-.19 1.4 1.4 0 0 0-.5.1 1.339 1.339 0 0 0-.45.285 1.415 1.415 0 0 0-.315.485 1.81 1.81 0 0 0-.125.7v2.55h.77v.14h-2.4v-.14h.77v-3.26a.983.983 0 0 0-.18-.65.6.6 0 0 0-.48-.21 1.2 1.2 0 0 0-.46.105 1.389 1.389 0 0 0-.465.33 1.82 1.82 0 0 0-.36.585 2.36 2.36 0 0 0-.145.88v2.22h.77v.14h-2.4Zm11.53-2.31h-.02q-.02.13-.33.26l-.75.3a1.093 1.093 0 0 0-.49.365.972.972 0 0 0-.17.585 1.681 1.681 0 0 0 .03.31.8.8 0 0 0 .11.285.61.61 0 0 0 .225.2.772.772 0 0 0 .375.08.931.931 0 0 0 .535-.14.916.916 0 0 0 .31-.35 1.477 1.477 0 0 0 .14-.445 3.171 3.171 0 0 0 .035-.445Zm1.75 2.34a1.37 1.37 0 0 1-.31.175 1.145 1.145 0 0 1-.44.075.984.984 0 0 1-.695-.2 1.089 1.089 0 0 1-.295-.58h-.02q-.04.09-.11.225a.892.892 0 0 1-.215.26 1.2 1.2 0 0 1-.385.21 1.853 1.853 0 0 1-.61.085 1.931 1.931 0 0 1-.67-.1 1.093 1.093 0 0 1-.39-.235.682.682 0 0 1-.185-.305 1.31 1.31 0 0 1-.045-.33 1 1 0 0 1 .14-.56 1.037 1.037 0 0 1 .365-.335 2.415 2.415 0 0 1 .5-.205q.275-.08.555-.17.33-.11.545-.19a.966.966 0 0 0 .335-.2.6.6 0 0 0 .165-.29 1.987 1.987 0 0 0 .045-.475 2.777 2.777 0 0 0-.03-.43.911.911 0 0 0-.11-.325.511.511 0 0 0-.23-.2.957.957 0 0 0-.4-.07 1.148 1.148 0 0 0-.545.115.393.393 0 0 0-.215.375 1.869 1.869 0 0 0 .03.335 1.519 1.519 0 0 1 .03.245.311.311 0 0 1-.1.235.405.405 0 0 1-.29.1q-.33 0-.41-.12a.549.549 0 0 1-.08-.31.927.927 0 0 1 .1-.42 1.058 1.058 0 0 1 .3-.355 1.467 1.467 0 0 1 .49-.245 2.314 2.314 0 0 1 .675-.09 2.231 2.231 0 0 1 .77.115 1.332 1.332 0 0 1 .5.31 1.126 1.126 0 0 1 .27.44 1.649 1.649 0 0 1 .08.515v2.485a.606.606 0 0 0 .09.39.332.332 0 0 0 .26.1.727.727 0 0 0 .23-.04.844.844 0 0 0 .23-.12Zm.31-.03h.77v-6.93h-.77v-.14h1.63v4.78h.11l1.99-1.72h-.71v-.14h1.55v.14h-.6l-1.56 1.34 2.21 2.67h.43v.14h-2.25v-.14h.71l-1.77-2.15h-.11v2.15h.55v.14h-2.18Zm8.51-2.48a1.846 1.846 0 0 0 .02-.26v-.25a2.017 2.017 0 0 0-.065-.56.911.911 0 0 0-.18-.35.636.636 0 0 0-.28-.185 1.116 1.116 0 0 0-.355-.055 1.056 1.056 0 0 0-.56.135 1 1 0 0 0-.35.365 1.88 1.88 0 0 0-.195.53 4.162 4.162 0 0 0-.085.63Zm-2.06.14v.2q0 .1-.005.265a6.254 6.254 0 0 0 .04.69 2.073 2.073 0 0 0 .175.65 1.212 1.212 0 0 0 .4.48 1.185 1.185 0 0 0 .7.195 1.753 1.753 0 0 0 .725-.13 1.334 1.334 0 0 0 .45-.315 1.364 1.364 0 0 0 .245-.375q.08-.19.12-.31l.15.03a2.872 2.872 0 0 1-.115.315 1.449 1.449 0 0 1-.27.41 1.637 1.637 0 0 1-.5.36 1.85 1.85 0 0 1-.815.155 2.6 2.6 0 0 1-.93-.16 2.114 2.114 0 0 1-.735-.46 2.079 2.079 0 0 1-.48-.715 2.419 2.419 0 0 1-.17-.925 2.18 2.18 0 0 1 .175-.855 2.416 2.416 0 0 1 .48-.735 2.4 2.4 0 0 1 .715-.515 2.023 2.023 0 0 1 .88-.195 2.017 2.017 0 0 1 .6.1 1.767 1.767 0 0 1 .6.325 1.786 1.786 0 0 1 .46.6 2.047 2.047 0 0 1 .185.92Zm6.27-1.81h2.45v.14h-.84l1.29 3.14 1.35-3.14h-.83v-.14h1.53v.14h-.54l-1.65 3.86q-.19.43-.36.865t-.34.875a6.483 6.483 0 0 1-.28.63 2.057 2.057 0 0 1-.295.44 1.08 1.08 0 0 1-.335.255.974.974 0 0 1-.42.085 1.021 1.021 0 0 1-.465-.09.869.869 0 0 1-.275-.21.6.6 0 0 1-.13-.25 1.007 1.007 0 0 1-.03-.22.477.477 0 0 1 .14-.375.492.492 0 0 1 .34-.125.816.816 0 0 1 .15.015.478.478 0 0 1 .15.055.376.376 0 0 1 .12.11.285.285 0 0 1 .05.17.463.463 0 0 1-.085.265.479.479 0 0 0-.085.275.18.18 0 0 0 .07.17.383.383 0 0 0 .19.04.6.6 0 0 0 .3-.075.893.893 0 0 0 .265-.245 2.5 2.5 0 0 0 .26-.445q.13-.275.29-.675l.435-1.12-1.73-4.28h-.69Zm6.21 2.15a4.632 4.632 0 0 0 .11 1.13 1.738 1.738 0 0 0 .29.645.835.835 0 0 0 .42.3 1.813 1.813 0 0 0 .51.07 1.813 1.813 0 0 0 .51-.07.835.835 0 0 0 .42-.3 1.738 1.738 0 0 0 .29-.645 4.632 4.632 0 0 0 .11-1.13 5.3 5.3 0 0 0-.08-1 1.884 1.884 0 0 0-.245-.66.945.945 0 0 0-.415-.365 1.456 1.456 0 0 0-.59-.11 1.456 1.456 0 0 0-.59.11.945.945 0 0 0-.415.365 1.884 1.884 0 0 0-.245.66 5.3 5.3 0 0 0-.08 1Zm-1 0a1.968 1.968 0 0 1 .215-.91 2.528 2.528 0 0 1 .55-.725 2.532 2.532 0 0 1 .75-.475 2.14 2.14 0 0 1 .815-.17 2.14 2.14 0 0 1 .815.17 2.532 2.532 0 0 1 .75.475 2.528 2.528 0 0 1 .55.725 1.968 1.968 0 0 1 .215.91 2.012 2.012 0 0 1-.2.885 2.481 2.481 0 0 1-.525.725 2.492 2.492 0 0 1-.745.49 2.163 2.163 0 0 1-.86.18 2.163 2.163 0 0 1-.86-.18 2.492 2.492 0 0 1-.745-.49 2.481 2.481 0 0 1-.525-.725 2.012 2.012 0 0 1-.2-.885Zm10.8 2.14h-1.61v-1.01h-.02a3.682 3.682 0 0 1-.215.4 1.634 1.634 0 0 1-.31.37 1.568 1.568 0 0 1-.43.27 1.451 1.451 0 0 1-.575.11 1.955 1.955 0 0 1-.65-.09 1.634 1.634 0 0 1-.39-.19 1.965 1.965 0 0 1-.155-.125.734.734 0 0 1-.155-.2 1.429 1.429 0 0 1-.12-.335 2.168 2.168 0 0 1-.05-.5v-2.85h-.77v-.14h1.63v3.07a3.062 3.062 0 0 0 .035.48 1.055 1.055 0 0 0 .135.385.747.747 0 0 0 .26.26.816.816 0 0 0 .42.095.939.939 0 0 0 .455-.13 1.482 1.482 0 0 0 .43-.37 2.121 2.121 0 0 0 .325-.575 2.073 2.073 0 0 0 .13-.755v-2.32h-.76v-.14h1.62v4.15h.77Zm.51-.14h.77v-4.01h-.77v-.14h1.61v1.01h.02a2.036 2.036 0 0 1 .13-.34 1.485 1.485 0 0 1 .25-.365 1.424 1.424 0 0 1 .385-.3 1.145 1.145 0 0 1 .545-.12.985.985 0 0 1 .4.075.864.864 0 0 1 .28.19.7.7 0 0 1 .16.265.944.944 0 0 1 .05.3.521.521 0 0 1-.15.44.576.576 0 0 1-.35.11q-.44 0-.44-.28a.434.434 0 0 1 .02-.145q.02-.055.045-.11a.9.9 0 0 0 .045-.125.768.768 0 0 0 .02-.2q0-.32-.35-.32a.62.62 0 0 0-.34.12 1.254 1.254 0 0 0-.335.35 2.2 2.2 0 0 0-.26.555 2.422 2.422 0 0 0-.1.745v2.295h.87v.14h-2.5Zm7.14-1.26h.11a3.745 3.745 0 0 0 .18.485 1.721 1.721 0 0 0 .295.45 1.454 1.454 0 0 0 .455.335 1.487 1.487 0 0 0 .65.13.9.9 0 0 0 .57-.2.756.756 0 0 0 .25-.635.646.646 0 0 0-.195-.535 1.527 1.527 0 0 0-.455-.245l-.78-.27q-.15-.05-.325-.125a1.178 1.178 0 0 1-.325-.21 1.024 1.024 0 0 1-.245-.345 1.318 1.318 0 0 1-.1-.54 1.233 1.233 0 0 1 .11-.52 1.345 1.345 0 0 1 .3-.42 1.341 1.341 0 0 1 .455-.28 1.616 1.616 0 0 1 .575-.1 1.46 1.46 0 0 1 .355.035q.135.035.235.07t.18.07a.472.472 0 0 0 .19.035.175.175 0 0 0 .16-.08h.11v1.14h-.11a4.3 4.3 0 0 0-.16-.425 1.7 1.7 0 0 0-.215-.365.872.872 0 0 0-.31-.25.984.984 0 0 0-.435-.09 1.153 1.153 0 0 0-.745.215.7.7 0 0 0-.265.575.563.563 0 0 0 .225.49 2.358 2.358 0 0 0 .665.305l.73.24a2.1 2.1 0 0 1 .77.44.965.965 0 0 1 .3.74 1.4 1.4 0 0 1-.1.53 1.286 1.286 0 0 1-.31.455 1.58 1.58 0 0 1-.5.315 1.78 1.78 0 0 1-.675.12 1.712 1.712 0 0 1-.4-.045q-.19-.045-.345-.095t-.285-.095a.738.738 0 0 0-.24-.045.235.235 0 0 0-.16.045.418.418 0 0 0-.08.095h-.11Zm8.11-.89a6.125 6.125 0 0 0-.05-.825 2.1 2.1 0 0 0-.175-.625.934.934 0 0 0-.35-.4 1.072 1.072 0 0 0-.575-.14 1.272 1.272 0 0 0-.61.13 1.183 1.183 0 0 0-.39.33 1.238 1.238 0 0 0-.175.3 1.936 1.936 0 0 0-.1.38 4.036 4.036 0 0 0-.055.505q-.015.285-.015.675a4.807 4.807 0 0 0 .05.68 2.107 2.107 0 0 0 .19.635 1.215 1.215 0 0 0 .385.465 1.147 1.147 0 0 0 .68.18 1.158 1.158 0 0 0 .65-.16.965.965 0 0 0 .36-.46 2.418 2.418 0 0 0 .15-.725q.03-.425.03-.945Zm-4.13 4.95h.77v-6.81h-.77v-.14h1.61v.84h.02a1.529 1.529 0 0 1 .495-.695 1.392 1.392 0 0 1 .9-.275 1.826 1.826 0 0 1 .81.185 2.316 2.316 0 0 1 .67.49 2.311 2.311 0 0 1 .46.715 2.223 2.223 0 0 1 .17.86 2.229 2.229 0 0 1-.175.875 2.466 2.466 0 0 1-.475.735 2.328 2.328 0 0 1-.695.51 1.9 1.9 0 0 1-.835.19 1.3 1.3 0 0 1-.575-.115 1.363 1.363 0 0 1-.385-.27 1.245 1.245 0 0 1-.235-.32 1.9 1.9 0 0 1-.11-.265h-.02v3.49h.77v.14h-2.4Zm9.17-5.28a1.846 1.846 0 0 0 .02-.26v-.25a2.017 2.017 0 0 0-.065-.56.91.91 0 0 0-.18-.35.636.636 0 0 0-.28-.185 1.116 1.116 0 0 0-.355-.055 1.056 1.056 0 0 0-.56.135.994.994 0 0 0-.35.365 1.88 1.88 0 0 0-.195.53 4.161 4.161 0 0 0-.085.63Zm-2.06.14v.2q0 .1-.005.265a6.255 6.255 0 0 0 .04.69 2.072 2.072 0 0 0 .175.65 1.212 1.212 0 0 0 .4.48 1.185 1.185 0 0 0 .7.19 1.753 1.753 0 0 0 .725-.13 1.334 1.334 0 0 0 .45-.315 1.364 1.364 0 0 0 .245-.37q.08-.19.12-.31l.15.03a2.872 2.872 0 0 1-.115.315 1.449 1.449 0 0 1-.27.41 1.637 1.637 0 0 1-.5.36 1.85 1.85 0 0 1-.815.155 2.6 2.6 0 0 1-.925-.16 2.114 2.114 0 0 1-.735-.46 2.079 2.079 0 0 1-.48-.715 2.419 2.419 0 0 1-.17-.925 2.18 2.18 0 0 1 .175-.855 2.417 2.417 0 0 1 .485-.735 2.4 2.4 0 0 1 .715-.515 2.023 2.023 0 0 1 .88-.195 2.017 2.017 0 0 1 .6.1 1.767 1.767 0 0 1 .59.32 1.786 1.786 0 0 1 .46.6 2.047 2.047 0 0 1 .185.92Zm8 1.38a2.872 2.872 0 0 1-.115.315 1.449 1.449 0 0 1-.27.41 1.637 1.637 0 0 1-.5.36 1.85 1.85 0 0 1-.815.155 2.809 2.809 0 0 1-.79-.12 2.228 2.228 0 0 1-.75-.385 2 2 0 0 1-.555-.695 2.355 2.355 0 0 1-.215-1.06 2.232 2.232 0 0 1 .185-.91 2.332 2.332 0 0 1 .5-.73 2.281 2.281 0 0 1 .74-.485 2.353 2.353 0 0 1 .9-.175 2.492 2.492 0 0 1 .555.065 1.873 1.873 0 0 1 .52.2 1.23 1.23 0 0 1 .39.35.874.874 0 0 1 .155.525.467.467 0 0 1-.135.345.521.521 0 0 1-.385.135.737.737 0 0 1-.325-.075.261.261 0 0 1-.155-.255 1.062 1.062 0 0 1 .07-.34 1.046 1.046 0 0 0 .07-.33.388.388 0 0 0-.23-.355 1.092 1.092 0 0 0-.53-.125 2 2 0 0 0-.455.055.829.829 0 0 0-.43.275 1.691 1.691 0 0 0-.32.66 4.568 4.568 0 0 0-.125 1.2 5.659 5.659 0 0 0 .055.81 2.133 2.133 0 0 0 .2.665 1.139 1.139 0 0 0 .4.45 1.206 1.206 0 0 0 .67.165 1.753 1.753 0 0 0 .725-.13 1.334 1.334 0 0 0 .45-.315 1.364 1.364 0 0 0 .245-.375q.08-.19.12-.31Zm1.28-5.52a.511.511 0 0 1 .155-.38.511.511 0 0 1 .375-.155.511.511 0 0 1 .375.155.511.511 0 0 1 .155.375.511.511 0 0 1-.155.375.511.511 0 0 1-.375.155.511.511 0 0 1-.375-.155.511.511 0 0 1-.155-.37Zm-.65 6.48h.77v-4.01h-.77v-.14h1.63v4.15h.77v.14h-2.4Zm5.71-2.31h-.02q-.02.13-.33.26l-.75.3a1.093 1.093 0 0 0-.49.365.972.972 0 0 0-.17.585 1.681 1.681 0 0 0 .03.31.794.794 0 0 0 .11.285.61.61 0 0 0 .225.2.772.772 0 0 0 .375.08.931.931 0 0 0 .535-.14.916.916 0 0 0 .31-.35 1.477 1.477 0 0 0 .14-.445 3.172 3.172 0 0 0 .035-.445Zm1.75 2.34a1.37 1.37 0 0 1-.31.175 1.145 1.145 0 0 1-.44.075.984.984 0 0 1-.69-.205 1.089 1.089 0 0 1-.3-.575h-.02q-.04.09-.11.225a.892.892 0 0 1-.215.26 1.2 1.2 0 0 1-.385.21 1.853 1.853 0 0 1-.61.085 1.931 1.931 0 0 1-.67-.1 1.093 1.093 0 0 1-.39-.23.682.682 0 0 1-.185-.31 1.31 1.31 0 0 1-.045-.33 1 1 0 0 1 .14-.56 1.037 1.037 0 0 1 .365-.335 2.415 2.415 0 0 1 .5-.205q.275-.08.555-.17.33-.11.545-.19a.966.966 0 0 0 .335-.2.6.6 0 0 0 .165-.29 1.987 1.987 0 0 0 .045-.475 2.777 2.777 0 0 0-.03-.43.911.911 0 0 0-.11-.325.511.511 0 0 0-.23-.2.957.957 0 0 0-.4-.07 1.148 1.148 0 0 0-.545.115.393.393 0 0 0-.215.375 1.869 1.869 0 0 0 .03.335 1.52 1.52 0 0 1 .03.245.311.311 0 0 1-.1.235.405.405 0 0 1-.29.1q-.33 0-.41-.12a.549.549 0 0 1-.08-.31.927.927 0 0 1 .1-.42 1.058 1.058 0 0 1 .3-.355 1.467 1.467 0 0 1 .49-.245 2.314 2.314 0 0 1 .675-.09 2.231 2.231 0 0 1 .77.115 1.332 1.332 0 0 1 .5.31 1.126 1.126 0 0 1 .27.44 1.649 1.649 0 0 1 .08.515v2.485a.606.606 0 0 0 .09.39.332.332 0 0 0 .26.1.727.727 0 0 0 .23-.04.844.844 0 0 0 .23-.12Zm.31-.03h.77v-6.93h-.77v-.14h1.63v7.07h.77v.14h-2.4Zm6.98-2.15q0 .52.03.945a2.418 2.418 0 0 0 .15.725.965.965 0 0 0 .36.46 1.158 1.158 0 0 0 .65.16 1.147 1.147 0 0 0 .675-.18 1.215 1.215 0 0 0 .395-.465 2.107 2.107 0 0 0 .19-.635 4.807 4.807 0 0 0 .05-.68q0-.39-.015-.675a4.036 4.036 0 0 0-.055-.505 1.719 1.719 0 0 0-.11-.38 1.658 1.658 0 0 0-.17-.3 1.183 1.183 0 0 0-.39-.33 1.272 1.272 0 0 0-.61-.13 1.072 1.072 0 0 0-.575.14.934.934 0 0 0-.35.4 2.1 2.1 0 0 0-.175.625 6.125 6.125 0 0 0-.05.825Zm1.73-4.92h1.63v7.07h.77v.14h-1.61v-.87h-.02a2.735 2.735 0 0 1-.12.29 1.233 1.233 0 0 1-.235.33 1.382 1.382 0 0 1-.39.275 1.3 1.3 0 0 1-.575.115 1.9 1.9 0 0 1-.835-.19 2.328 2.328 0 0 1-.695-.51 2.466 2.466 0 0 1-.48-.74 2.229 2.229 0 0 1-.175-.875 2.223 2.223 0 0 1 .17-.86 2.311 2.311 0 0 1 .46-.715 2.316 2.316 0 0 1 .67-.49 1.826 1.826 0 0 1 .81-.185 1.389 1.389 0 0 1 .89.27 1.462 1.462 0 0 1 .48.66h.02v-3.575h-.77Zm5.71 4.76h-.02q-.02.13-.33.26l-.75.3a1.093 1.093 0 0 0-.49.365.972.972 0 0 0-.17.585 1.681 1.681 0 0 0 .03.31.794.794 0 0 0 .11.285.61.61 0 0 0 .225.2.772.772 0 0 0 .375.08.931.931 0 0 0 .535-.14.916.916 0 0 0 .315-.345 1.477 1.477 0 0 0 .14-.455 3.172 3.172 0 0 0 .035-.445Zm1.75 2.34a1.37 1.37 0 0 1-.31.175 1.145 1.145 0 0 1-.44.075.984.984 0 0 1-.695-.2 1.089 1.089 0 0 1-.295-.575h-.02q-.04.09-.11.225a.892.892 0 0 1-.215.26 1.2 1.2 0 0 1-.385.21 1.853 1.853 0 0 1-.61.085 1.931 1.931 0 0 1-.67-.1 1.093 1.093 0 0 1-.39-.235.682.682 0 0 1-.18-.31 1.31 1.31 0 0 1-.045-.325 1 1 0 0 1 .14-.56 1.037 1.037 0 0 1 .365-.335 2.415 2.415 0 0 1 .5-.205q.275-.08.555-.17.33-.11.545-.19a.966.966 0 0 0 .335-.2.6.6 0 0 0 .165-.29 1.987 1.987 0 0 0 .045-.475 2.777 2.777 0 0 0-.03-.43.911.911 0 0 0-.11-.325.511.511 0 0 0-.23-.2.957.957 0 0 0-.4-.07 1.148 1.148 0 0 0-.545.115.393.393 0 0 0-.215.375 1.869 1.869 0 0 0 .03.335 1.52 1.52 0 0 1 .03.245.311.311 0 0 1-.1.235.405.405 0 0 1-.29.1q-.33 0-.41-.12a.549.549 0 0 1-.08-.31.927.927 0 0 1 .1-.42 1.058 1.058 0 0 1 .3-.355 1.467 1.467 0 0 1 .49-.245 2.314 2.314 0 0 1 .675-.09 2.231 2.231 0 0 1 .77.115 1.332 1.332 0 0 1 .5.31 1.126 1.126 0 0 1 .27.44 1.649 1.649 0 0 1 .08.515v2.48a.606.606 0 0 0 .09.39.332.332 0 0 0 .26.1.727.727 0 0 0 .23-.04.844.844 0 0 0 .23-.12Zm-.17-4.18h2.45v.14h-.84l1.29 3.14 1.35-3.14h-.83v-.14h1.53v.14h-.54l-1.65 3.86q-.19.43-.36.865t-.34.875a6.483 6.483 0 0 1-.28.63 2.058 2.058 0 0 1-.3.44 1.079 1.079 0 0 1-.335.255.974.974 0 0 1-.42.085 1.021 1.021 0 0 1-.465-.09.869.869 0 0 1-.275-.21.6.6 0 0 1-.13-.25 1.007 1.007 0 0 1-.03-.22.477.477 0 0 1 .14-.375.492.492 0 0 1 .34-.125.816.816 0 0 1 .15.015.478.478 0 0 1 .15.055.376.376 0 0 1 .12.11.285.285 0 0 1 .05.17.463.463 0 0 1-.085.265.479.479 0 0 0-.085.275.18.18 0 0 0 .07.17.383.383 0 0 0 .19.04.6.6 0 0 0 .295-.075.893.893 0 0 0 .265-.245 2.494 2.494 0 0 0 .26-.445q.13-.275.29-.675l.44-1.12-1.73-4.28h-.69Zm12.05 2a6.125 6.125 0 0 0-.05-.825 2.1 2.1 0 0 0-.175-.625.934.934 0 0 0-.35-.4 1.072 1.072 0 0 0-.575-.14 1.272 1.272 0 0 0-.61.13 1.183 1.183 0 0 0-.39.33 1.238 1.238 0 0 0-.175.3 1.936 1.936 0 0 0-.1.38 4.036 4.036 0 0 0-.055.505q-.015.285-.015.675a4.807 4.807 0 0 0 .05.68 2.107 2.107 0 0 0 .19.635 1.215 1.215 0 0 0 .395.465 1.147 1.147 0 0 0 .675.18 1.158 1.158 0 0 0 .65-.16.965.965 0 0 0 .36-.46 2.418 2.418 0 0 0 .15-.725q.025-.425.025-.945Zm-4.13 2.15h.77v-6.93h-.77v-.14h1.63v3.72h.02a1.462 1.462 0 0 1 .48-.66 1.389 1.389 0 0 1 .89-.27 1.826 1.826 0 0 1 .81.185 2.316 2.316 0 0 1 .67.49 2.311 2.311 0 0 1 .46.715 2.223 2.223 0 0 1 .17.86 2.229 2.229 0 0 1-.175.875 2.466 2.466 0 0 1-.475.735 2.328 2.328 0 0 1-.695.51 1.9 1.9 0 0 1-.835.19 1.3 1.3 0 0 1-.575-.115 1.382 1.382 0 0 1-.39-.275 1.233 1.233 0 0 1-.235-.33 2.735 2.735 0 0 1-.12-.29h-.02v.87h-1.61Zm9.17-2.48a1.846 1.846 0 0 0 .02-.26v-.25a2.017 2.017 0 0 0-.065-.56.911.911 0 0 0-.18-.35.636.636 0 0 0-.28-.185 1.116 1.116 0 0 0-.355-.055 1.056 1.056 0 0 0-.56.135.994.994 0 0 0-.35.365 1.88 1.88 0 0 0-.195.53 4.161 4.161 0 0 0-.085.63Zm-2.06.14v.2q0 .1-.005.265a6.255 6.255 0 0 0 .04.69 2.072 2.072 0 0 0 .175.65 1.212 1.212 0 0 0 .4.48 1.185 1.185 0 0 0 .7.19 1.753 1.753 0 0 0 .725-.13 1.334 1.334 0 0 0 .45-.315 1.364 1.364 0 0 0 .245-.375q.08-.19.12-.31l.15.03a2.872 2.872 0 0 1-.115.315 1.449 1.449 0 0 1-.27.41 1.637 1.637 0 0 1-.5.36 1.85 1.85 0 0 1-.815.155 2.6 2.6 0 0 1-.925-.16 2.114 2.114 0 0 1-.735-.46 2.079 2.079 0 0 1-.48-.715 2.419 2.419 0 0 1-.17-.925 2.18 2.18 0 0 1 .175-.855 2.417 2.417 0 0 1 .48-.735 2.4 2.4 0 0 1 .715-.515 2.023 2.023 0 0 1 .88-.195 2.017 2.017 0 0 1 .6.1 1.767 1.767 0 0 1 .595.325 1.786 1.786 0 0 1 .46.6 2.047 2.047 0 0 1 .185.92Zm3.71-1.81h.77v-1.29q.08.03.15.05a.988.988 0 0 0 .24.02.861.861 0 0 0 .26-.035.652.652 0 0 0 .21-.115v1.37h1.42v.14h-1.42v3.27a1.554 1.554 0 0 0 .055.455.687.687 0 0 0 .145.27.434.434 0 0 0 .195.125.744.744 0 0 0 .205.03.7.7 0 0 0 .565-.255 1.235 1.235 0 0 0 .275-.585l.14.05a2.328 2.328 0 0 1-.09.29 1.011 1.011 0 0 1-.185.3.972.972 0 0 1-.325.24 1.163 1.163 0 0 1-.5.1 1.478 1.478 0 0 1-1.045-.29 1.1 1.1 0 0 1-.295-.82v-3.18h-.77Zm3.33 0h.77v-1.29q.08.03.15.05a.989.989 0 0 0 .24.02.861.861 0 0 0 .26-.035.653.653 0 0 0 .21-.115v1.37h1.42v.14h-1.42v3.27a1.554 1.554 0 0 0 .055.455.687.687 0 0 0 .145.27.434.434 0 0 0 .2.125.744.744 0 0 0 .2.03.7.7 0 0 0 .565-.255 1.235 1.235 0 0 0 .275-.585l.14.05a2.326 2.326 0 0 1-.09.29 1.011 1.011 0 0 1-.185.3.972.972 0 0 1-.325.24 1.163 1.163 0 0 1-.5.1 1.478 1.478 0 0 1-1.045-.29 1.1 1.1 0 0 1-.295-.82v-3.18h-.77Zm6.68 1.67a1.848 1.848 0 0 0 .02-.26v-.25a2.018 2.018 0 0 0-.065-.56.91.91 0 0 0-.18-.35.636.636 0 0 0-.28-.185 1.116 1.116 0 0 0-.355-.055 1.056 1.056 0 0 0-.56.135 1 1 0 0 0-.35.365 1.88 1.88 0 0 0-.2.53 4.164 4.164 0 0 0-.085.63Zm-2.06.14q0 .1-.005.2t-.005.265a6.253 6.253 0 0 0 .04.69 2.072 2.072 0 0 0 .175.65 1.212 1.212 0 0 0 .4.48 1.185 1.185 0 0 0 .705.19 1.753 1.753 0 0 0 .725-.13 1.334 1.334 0 0 0 .45-.315 1.364 1.364 0 0 0 .245-.375q.08-.19.12-.31l.15.03a2.875 2.875 0 0 1-.115.315 1.449 1.449 0 0 1-.27.41 1.637 1.637 0 0 1-.5.36 1.85 1.85 0 0 1-.815.155 2.6 2.6 0 0 1-.925-.16 2.114 2.114 0 0 1-.735-.46 2.078 2.078 0 0 1-.48-.715 2.419 2.419 0 0 1-.17-.925 2.18 2.18 0 0 1 .175-.855 2.417 2.417 0 0 1 .48-.735 2.4 2.4 0 0 1 .715-.515 2.023 2.023 0 0 1 .88-.195 2.017 2.017 0 0 1 .6.1 1.767 1.767 0 0 1 .6.325 1.786 1.786 0 0 1 .46.6 2.047 2.047 0 0 1 .185.92Zm3.81 2.34h.77v-4.01h-.77v-.14h1.61v1.01h.02a2.037 2.037 0 0 1 .13-.34 1.484 1.484 0 0 1 .25-.365 1.424 1.424 0 0 1 .385-.3 1.145 1.145 0 0 1 .545-.12.984.984 0 0 1 .4.075.864.864 0 0 1 .28.19.7.7 0 0 1 .16.265.944.944 0 0 1 .05.3.521.521 0 0 1-.15.44.576.576 0 0 1-.35.11q-.44 0-.44-.28a.434.434 0 0 1 .02-.145q.02-.055.045-.11a.9.9 0 0 0 .045-.125.769.769 0 0 0 .02-.2q0-.32-.35-.32a.62.62 0 0 0-.34.12 1.254 1.254 0 0 0-.335.35 2.2 2.2 0 0 0-.26.555 2.422 2.422 0 0 0-.105.745v2.295h.87v.14h-2.5Zm3.69 1.85a3.425 3.425 0 0 0 .475-.4 2.178 2.178 0 0 0 .29-.37 1.191 1.191 0 0 0 .14-.315 1.014 1.014 0 0 0 .035-.24.748.748 0 0 0-.18-.52.5.5 0 0 1-.43.25.6.6 0 0 1-.37-.14.477.477 0 0 1-.18-.4.54.54 0 0 1 .175-.4.6.6 0 0 1 .435-.175.675.675 0 0 1 .345.09.924.924 0 0 1 .265.23.959.959 0 0 1 .165.33 1.361 1.361 0 0 1 .055.38 1.47 1.47 0 0 1-.12.575 2.753 2.753 0 0 1-.29.525 2.526 2.526 0 0 1-.37.42 3.187 3.187 0 0 1-.35.28ZM3.07 121.358h-.02q-.02.13-.33.26l-.75.3a1.093 1.093 0 0 0-.49.365.972.972 0 0 0-.17.585 1.681 1.681 0 0 0 .03.31.8.8 0 0 0 .11.285.61.61 0 0 0 .225.2.772.772 0 0 0 .375.08.931.931 0 0 0 .535-.14.916.916 0 0 0 .31-.35 1.477 1.477 0 0 0 .14-.455 3.171 3.171 0 0 0 .035-.445Zm1.75 2.34a1.37 1.37 0 0 1-.31.175 1.145 1.145 0 0 1-.44.075.984.984 0 0 1-.695-.2 1.089 1.089 0 0 1-.3-.575H3.06q-.04.09-.11.225a.892.892 0 0 1-.215.26 1.2 1.2 0 0 1-.385.21 1.853 1.853 0 0 1-.61.085 1.931 1.931 0 0 1-.67-.1 1.093 1.093 0 0 1-.39-.235.682.682 0 0 1-.185-.315 1.31 1.31 0 0 1-.045-.325 1 1 0 0 1 .14-.56 1.037 1.037 0 0 1 .365-.335 2.415 2.415 0 0 1 .5-.2q.275-.08.555-.17.33-.11.545-.19a.966.966 0 0 0 .335-.2.6.6 0 0 0 .165-.29 1.987 1.987 0 0 0 .045-.475 2.777 2.777 0 0 0-.03-.43.911.911 0 0 0-.11-.325.511.511 0 0 0-.23-.2.957.957 0 0 0-.4-.07 1.148 1.148 0 0 0-.545.115.393.393 0 0 0-.215.375 1.869 1.869 0 0 0 .03.335 1.519 1.519 0 0 1 .03.245.311.311 0 0 1-.1.235.405.405 0 0 1-.29.1q-.33 0-.41-.12a.549.549 0 0 1-.08-.31.927.927 0 0 1 .1-.42 1.058 1.058 0 0 1 .3-.355 1.467 1.467 0 0 1 .49-.245 2.314 2.314 0 0 1 .675-.09 2.231 2.231 0 0 1 .77.115 1.332 1.332 0 0 1 .5.31 1.126 1.126 0 0 1 .27.44 1.649 1.649 0 0 1 .08.515v2.49a.606.606 0 0 0 .09.39.332.332 0 0 0 .26.1.727.727 0 0 0 .23-.04.844.844 0 0 0 .23-.12Zm.28-.03h.77v-4.01H5.1v-.14h1.61v1.07h.02q.06-.13.175-.33a1.741 1.741 0 0 1 .315-.39 1.712 1.712 0 0 1 1.23-.46 1.711 1.711 0 0 1 1.075.32 1.207 1.207 0 0 1 .415 1.02v2.92h.77v.14h-2.4v-.14h.77v-3.23a1.048 1.048 0 0 0-.185-.64.668.668 0 0 0-.575-.25 1.386 1.386 0 0 0-.61.14 1.6 1.6 0 0 0-.51.39 1.848 1.848 0 0 0-.345.59 2.129 2.129 0 0 0-.125.74v2.26h.77v.14H5.1Zm7.38-2.15q0 .52.03.945a2.418 2.418 0 0 0 .15.725.965.965 0 0 0 .36.46 1.377 1.377 0 0 0 1.325-.02 1.215 1.215 0 0 0 .395-.465 2.106 2.106 0 0 0 .19-.635 4.807 4.807 0 0 0 .05-.68q0-.39-.015-.675a4.035 4.035 0 0 0-.055-.505 1.719 1.719 0 0 0-.11-.38 1.658 1.658 0 0 0-.17-.3 1.183 1.183 0 0 0-.39-.33 1.272 1.272 0 0 0-.61-.13 1.072 1.072 0 0 0-.575.14.934.934 0 0 0-.35.4 2.1 2.1 0 0 0-.175.625 6.125 6.125 0 0 0-.05.825Zm1.73-4.92h1.63v7.07h.77v.14H15v-.87h-.02a2.736 2.736 0 0 1-.12.29 1.233 1.233 0 0 1-.235.33 1.382 1.382 0 0 1-.39.275 1.3 1.3 0 0 1-.575.115 1.9 1.9 0 0 1-.835-.19 2.328 2.328 0 0 1-.695-.51 2.466 2.466 0 0 1-.475-.735 2.268 2.268 0 0 1-.005-1.735 2.3 2.3 0 0 1 1.13-1.205 1.826 1.826 0 0 1 .81-.185 1.389 1.389 0 0 1 .89.27 1.462 1.462 0 0 1 .48.66h.02v-3.58h-.77Zm5.41 2.92h2.45v.14h-.84l1.29 3.14 1.35-3.14h-.83v-.14h1.53v.14h-.54l-1.65 3.86q-.19.43-.36.865t-.34.875a6.483 6.483 0 0 1-.28.63 2.057 2.057 0 0 1-.3.44 1.079 1.079 0 0 1-.335.255.974.974 0 0 1-.42.085 1.021 1.021 0 0 1-.465-.09.869.869 0 0 1-.275-.21.6.6 0 0 1-.13-.25 1.007 1.007 0 0 1-.03-.22.477.477 0 0 1 .14-.375.492.492 0 0 1 .34-.125.816.816 0 0 1 .15.015.478.478 0 0 1 .15.055.376.376 0 0 1 .12.11.285.285 0 0 1 .05.17.463.463 0 0 1-.085.265.479.479 0 0 0-.085.275.18.18 0 0 0 .07.17.383.383 0 0 0 .19.04.6.6 0 0 0 .3-.075.893.893 0 0 0 .265-.245 2.5 2.5 0 0 0 .26-.445q.13-.275.29-.675l.44-1.12-1.73-4.28h-.69Zm6.21 2.15a4.632 4.632 0 0 0 .11 1.13 1.738 1.738 0 0 0 .29.645.835.835 0 0 0 .42.3 1.893 1.893 0 0 0 1.02 0 .835.835 0 0 0 .42-.3 1.738 1.738 0 0 0 .29-.645 4.632 4.632 0 0 0 .11-1.13 5.3 5.3 0 0 0-.08-1.005 1.884 1.884 0 0 0-.245-.66.945.945 0 0 0-.415-.365 1.637 1.637 0 0 0-1.18 0 .945.945 0 0 0-.415.365 1.884 1.884 0 0 0-.245.66 5.3 5.3 0 0 0-.08 1.005Zm-1 0a1.968 1.968 0 0 1 .215-.91 2.53 2.53 0 0 1 1.3-1.2 2.039 2.039 0 0 1 1.63 0 2.53 2.53 0 0 1 1.3 1.2 1.968 1.968 0 0 1 .215.91 2.012 2.012 0 0 1-.2.885 2.48 2.48 0 0 1-1.27 1.215 2.144 2.144 0 0 1-1.72 0 2.48 2.48 0 0 1-1.27-1.215 2.012 2.012 0 0 1-.2-.885Zm10.8 2.14h-1.61v-1.01H34a3.682 3.682 0 0 1-.215.405 1.634 1.634 0 0 1-.31.37 1.568 1.568 0 0 1-.43.27 1.451 1.451 0 0 1-.575.105 1.955 1.955 0 0 1-.65-.09 1.634 1.634 0 0 1-.39-.19 1.966 1.966 0 0 1-.155-.125.734.734 0 0 1-.155-.2 1.429 1.429 0 0 1-.12-.335 2.169 2.169 0 0 1-.05-.5v-2.85h-.77v-.14h1.63v3.07a3.063 3.063 0 0 0 .035.48 1.055 1.055 0 0 0 .135.385.747.747 0 0 0 .26.26.816.816 0 0 0 .42.1.939.939 0 0 0 .455-.13 1.482 1.482 0 0 0 .43-.37 2.121 2.121 0 0 0 .325-.575 2.073 2.073 0 0 0 .13-.755v-2.325h-.76v-.14h1.62v4.15h.77Zm1.13-4.59a3.425 3.425 0 0 0 .475-.4 2.179 2.179 0 0 0 .29-.37 1.191 1.191 0 0 0 .14-.315 1.014 1.014 0 0 0 .035-.24.748.748 0 0 0-.18-.52.505.505 0 0 1-.43.25.6.6 0 0 1-.37-.14.477.477 0 0 1-.18-.4.54.54 0 0 1 .175-.4.6.6 0 0 1 .435-.17.674.674 0 0 1 .345.09.924.924 0 0 1 .265.23.959.959 0 0 1 .165.33 1.361 1.361 0 0 1 .055.38 1.47 1.47 0 0 1-.12.575 2.753 2.753 0 0 1-.29.525 2.526 2.526 0 0 1-.37.42 3.188 3.188 0 0 1-.35.28Zm1.79 4.45h.77v-4.01h-.77v-.14h1.61v1.01h.02a2.036 2.036 0 0 1 .13-.34 1.485 1.485 0 0 1 .25-.365 1.424 1.424 0 0 1 .385-.3 1.145 1.145 0 0 1 .545-.12.985.985 0 0 1 .4.075.864.864 0 0 1 .28.19.7.7 0 0 1 .16.265.944.944 0 0 1 .05.3.521.521 0 0 1-.15.44.576.576 0 0 1-.35.11q-.44 0-.44-.28a.434.434 0 0 1 .02-.145q.02-.055.045-.11a.9.9 0 0 0 .045-.125.768.768 0 0 0 .02-.2q0-.32-.35-.32a.62.62 0 0 0-.34.12 1.254 1.254 0 0 0-.335.35 2.2 2.2 0 0 0-.26.555 2.422 2.422 0 0 0-.1.745v2.29h.87v.145h-2.5Zm7.32-2.48a1.846 1.846 0 0 0 .02-.26v-.25a2.017 2.017 0 0 0-.065-.56.911.911 0 0 0-.18-.35.636.636 0 0 0-.28-.185 1.116 1.116 0 0 0-.355-.055 1.056 1.056 0 0 0-.56.135 1 1 0 0 0-.35.365 1.88 1.88 0 0 0-.195.53 4.162 4.162 0 0 0-.085.63Zm-2.06.14v.2q0 .1-.005.265a6.254 6.254 0 0 0 .04.69 2.073 2.073 0 0 0 .175.65 1.212 1.212 0 0 0 .4.48 1.185 1.185 0 0 0 .705.19 1.753 1.753 0 0 0 .725-.13 1.334 1.334 0 0 0 .45-.315 1.364 1.364 0 0 0 .245-.375q.08-.19.12-.31l.15.03a2.872 2.872 0 0 1-.115.315 1.449 1.449 0 0 1-.27.41 1.637 1.637 0 0 1-.5.36 1.85 1.85 0 0 1-.815.155 2.6 2.6 0 0 1-.925-.16 2.114 2.114 0 0 1-.735-.46 2.079 2.079 0 0 1-.48-.715 2.419 2.419 0 0 1-.17-.925 2.18 2.18 0 0 1 .175-.855 2.4 2.4 0 0 1 1.195-1.25 1.983 1.983 0 0 1 1.48-.095 1.767 1.767 0 0 1 .6.325 1.786 1.786 0 0 1 .46.6 2.047 2.047 0 0 1 .185.92Zm8.26 2.78-.265.165a.976.976 0 0 0-.24.215 1.079 1.079 0 0 0-.17.3 1.483 1.483 0 0 0 .06 1.03 1.12 1.12 0 0 0 .32.38 1.215 1.215 0 0 0 .435.2 1.934 1.934 0 0 0 .47.06 1.862 1.862 0 0 0 .655-.11 1.665 1.665 0 0 0 .51-.295 1.3 1.3 0 0 0 .33-.425 1.144 1.144 0 0 0 .115-.5.943.943 0 0 0-.305-.8 1.336 1.336 0 0 0-.835-.235Zm1.62-3.25a3.669 3.669 0 0 0-.03-.465 1.371 1.371 0 0 0-.125-.43.752.752 0 0 0-.29-.315 1 1 0 0 0-.525-.12.948.948 0 0 0-.77.31 1.588 1.588 0 0 0-.26 1.02 2.945 2.945 0 0 0 .045.54 1.075 1.075 0 0 0 .165.415.755.755 0 0 0 .32.265 1.248 1.248 0 0 0 .51.09.828.828 0 0 0 .74-.325 1.774 1.774 0 0 0 .22-.985Zm-3.12 2.3a1.008 1.008 0 0 1 .1-.465 1.344 1.344 0 0 1 .245-.34 1.36 1.36 0 0 1 .31-.235q.165-.09.295-.15a1.248 1.248 0 0 1-.58-1.08 1.19 1.19 0 0 1 .17-.63 1.674 1.674 0 0 1 .43-.475 1.918 1.918 0 0 1 .575-.3 2 2 0 0 1 .6-.1 1.576 1.576 0 0 1 .775.18 2.191 2.191 0 0 1 .475.33 1.181 1.181 0 0 1 .325-.35.871.871 0 0 1 .535-.16.816.816 0 0 1 .37.085.368.368 0 0 1 .17.365.322.322 0 0 1-.115.27.379.379 0 0 1-.235.09.234.234 0 0 1-.2-.08 1.111 1.111 0 0 1-.1-.17q-.045-.09-.095-.17a.165.165 0 0 0-.15-.08.329.329 0 0 0-.205.085 1.027 1.027 0 0 0-.185.195 2.21 2.21 0 0 1 .23.34 1.175 1.175 0 0 1 .14.6 1.049 1.049 0 0 1-.15.55 1.592 1.592 0 0 1-.4.44 1.848 1.848 0 0 1-.57.3 2.15 2.15 0 0 1-.665.1 1.776 1.776 0 0 1-.61-.1 4.056 4.056 0 0 1-.4-.165l-.235.11a1.05 1.05 0 0 0-.23.15.786.786 0 0 0-.175.215.573.573 0 0 0-.07.285.479.479 0 0 0 .06.25.393.393 0 0 0 .155.15.709.709 0 0 0 .215.07 1.519 1.519 0 0 0 .25.02h1.58a1.724 1.724 0 0 1 1.115.335 1.276 1.276 0 0 1 .42 1.065 1.687 1.687 0 0 1-.19.8 2.077 2.077 0 0 1-.505.625 2.312 2.312 0 0 1-.725.41 2.5 2.5 0 0 1-.84.145 2.674 2.674 0 0 1-.715-.09 2.037 2.037 0 0 1-.565-.245 1.184 1.184 0 0 1-.375-.375.918.918 0 0 1-.135-.49 1.068 1.068 0 0 1 .1-.475 1.4 1.4 0 0 1 .27-.38 1.767 1.767 0 0 1 .375-.285 3 3 0 0 1 .42-.2v-.02a1.753 1.753 0 0 1-.975-.215.825.825 0 0 1-.31-.735Zm6.2-1.49a4.632 4.632 0 0 0 .11 1.13 1.738 1.738 0 0 0 .29.645.835.835 0 0 0 .42.3 1.893 1.893 0 0 0 1.02 0 .835.835 0 0 0 .42-.3 1.738 1.738 0 0 0 .29-.645 4.632 4.632 0 0 0 .11-1.13 5.3 5.3 0 0 0-.08-1.005 1.884 1.884 0 0 0-.245-.66.945.945 0 0 0-.415-.365 1.637 1.637 0 0 0-1.18 0 .945.945 0 0 0-.415.365 1.884 1.884 0 0 0-.245.66 5.3 5.3 0 0 0-.08 1.005Zm-1 0a1.968 1.968 0 0 1 .215-.91 2.53 2.53 0 0 1 1.3-1.2 2.039 2.039 0 0 1 1.63 0 2.53 2.53 0 0 1 1.3 1.2 1.968 1.968 0 0 1 .215.91 2.012 2.012 0 0 1-.2.885 2.48 2.48 0 0 1-1.27 1.215 2.144 2.144 0 0 1-1.72 0 2.48 2.48 0 0 1-1.27-1.215 2.012 2.012 0 0 1-.2-.885Zm5.36 2h.77v-4.01h-.77v-.14h1.61v1.07h.02q.06-.13.175-.33a1.741 1.741 0 0 1 .315-.39 1.712 1.712 0 0 1 1.23-.46 1.711 1.711 0 0 1 1.075.32 1.207 1.207 0 0 1 .415 1.02v2.92h.77v.14h-2.4v-.14h.77v-3.23a1.048 1.048 0 0 0-.185-.64.668.668 0 0 0-.575-.25 1.386 1.386 0 0 0-.61.14 1.6 1.6 0 0 0-.51.39 1.848 1.848 0 0 0-.345.59 2.129 2.129 0 0 0-.125.74v2.26h.77v.14h-2.4Zm6.11 0h.77v-4.01h-.77v-.14h1.61v1.07h.02q.06-.13.175-.33a1.741 1.741 0 0 1 .315-.39 1.712 1.712 0 0 1 1.23-.46 1.711 1.711 0 0 1 1.075.32 1.207 1.207 0 0 1 .415 1.02v2.92h.77v.14h-2.4v-.14h.77v-3.23a1.048 1.048 0 0 0-.185-.64.668.668 0 0 0-.575-.25 1.386 1.386 0 0 0-.61.14 1.6 1.6 0 0 0-.51.39 1.848 1.848 0 0 0-.345.59 2.129 2.129 0 0 0-.125.74v2.26h.77v.14h-2.4Zm8.89-2.31h-.02q-.02.13-.33.26l-.75.3a1.093 1.093 0 0 0-.49.365.972.972 0 0 0-.17.585 1.681 1.681 0 0 0 .03.31.794.794 0 0 0 .11.285.61.61 0 0 0 .225.2.772.772 0 0 0 .375.08.931.931 0 0 0 .535-.14.916.916 0 0 0 .31-.35 1.477 1.477 0 0 0 .14-.455 3.172 3.172 0 0 0 .035-.445Zm1.75 2.34a1.37 1.37 0 0 1-.31.175 1.145 1.145 0 0 1-.44.075.984.984 0 0 1-.695-.2 1.089 1.089 0 0 1-.295-.575h-.02q-.04.09-.11.225a.892.892 0 0 1-.215.26 1.2 1.2 0 0 1-.385.21 1.853 1.853 0 0 1-.61.085 1.931 1.931 0 0 1-.67-.1 1.093 1.093 0 0 1-.39-.235.682.682 0 0 1-.185-.315 1.31 1.31 0 0 1-.045-.325 1 1 0 0 1 .14-.56 1.037 1.037 0 0 1 .365-.335 2.415 2.415 0 0 1 .5-.2q.275-.08.555-.17.33-.11.545-.19a.966.966 0 0 0 .335-.2.6.6 0 0 0 .165-.29 1.987 1.987 0 0 0 .045-.475 2.777 2.777 0 0 0-.03-.43.911.911 0 0 0-.11-.325.511.511 0 0 0-.23-.2.957.957 0 0 0-.4-.07 1.148 1.148 0 0 0-.545.115.393.393 0 0 0-.215.375 1.869 1.869 0 0 0 .03.335 1.52 1.52 0 0 1 .03.245.311.311 0 0 1-.1.235.405.405 0 0 1-.29.1q-.33 0-.41-.12a.549.549 0 0 1-.08-.31.927.927 0 0 1 .1-.42 1.058 1.058 0 0 1 .3-.355 1.467 1.467 0 0 1 .49-.245 2.314 2.314 0 0 1 .675-.09 2.231 2.231 0 0 1 .77.115 1.332 1.332 0 0 1 .5.31 1.126 1.126 0 0 1 .27.44 1.649 1.649 0 0 1 .08.515v2.49a.606.606 0 0 0 .09.39.332.332 0 0 0 .26.1.727.727 0 0 0 .23-.04.844.844 0 0 0 .23-.12Zm3.06-.03h.77v-6.93h-.77v-.14h1.63v3.93h.02a2.081 2.081 0 0 1 .17-.325 1.581 1.581 0 0 1 .325-.37 1.914 1.914 0 0 1 .5-.3 1.8 1.8 0 0 1 .705-.125 1.711 1.711 0 0 1 1.075.32 1.207 1.207 0 0 1 .415 1.02v2.92h.77v.14h-2.4v-.14h.77v-3.23a1.048 1.048 0 0 0-.185-.64.668.668 0 0 0-.575-.25 1.386 1.386 0 0 0-.61.14 1.6 1.6 0 0 0-.51.39 1.848 1.848 0 0 0-.345.59 2.129 2.129 0 0 0-.125.74v2.26h.77v.14h-2.4Zm8.89-2.31h-.02q-.02.13-.33.26l-.75.3a1.093 1.093 0 0 0-.49.365.972.972 0 0 0-.17.585 1.681 1.681 0 0 0 .03.31.794.794 0 0 0 .11.285.61.61 0 0 0 .225.2.772.772 0 0 0 .375.08.931.931 0 0 0 .535-.14.916.916 0 0 0 .31-.35 1.477 1.477 0 0 0 .14-.455 3.172 3.172 0 0 0 .035-.445Zm1.75 2.34a1.37 1.37 0 0 1-.31.175 1.145 1.145 0 0 1-.44.075.984.984 0 0 1-.695-.2 1.089 1.089 0 0 1-.295-.575h-.02q-.04.09-.11.225a.892.892 0 0 1-.215.26 1.2 1.2 0 0 1-.385.21 1.853 1.853 0 0 1-.61.085 1.931 1.931 0 0 1-.67-.1 1.093 1.093 0 0 1-.39-.235.682.682 0 0 1-.185-.315 1.31 1.31 0 0 1-.045-.325 1 1 0 0 1 .14-.56 1.037 1.037 0 0 1 .365-.335 2.415 2.415 0 0 1 .5-.2q.275-.08.555-.17.33-.11.545-.19a.966.966 0 0 0 .335-.2.6.6 0 0 0 .165-.29 1.987 1.987 0 0 0 .045-.475 2.777 2.777 0 0 0-.03-.43.911.911 0 0 0-.11-.325.511.511 0 0 0-.23-.2.957.957 0 0 0-.4-.07 1.148 1.148 0 0 0-.545.115.393.393 0 0 0-.215.375 1.869 1.869 0 0 0 .03.335 1.52 1.52 0 0 1 .03.245.311.311 0 0 1-.1.235.405.405 0 0 1-.29.1q-.33 0-.41-.12a.549.549 0 0 1-.08-.31.927.927 0 0 1 .1-.42 1.058 1.058 0 0 1 .3-.355 1.467 1.467 0 0 1 .49-.245 2.314 2.314 0 0 1 .675-.09 2.231 2.231 0 0 1 .77.115 1.332 1.332 0 0 1 .5.31 1.126 1.126 0 0 1 .27.44 1.649 1.649 0 0 1 .08.515v2.49a.606.606 0 0 0 .09.39.332.332 0 0 0 .26.1.727.727 0 0 0 .23-.04.844.844 0 0 0 .23-.12Zm4.44-2.18a6.125 6.125 0 0 0-.05-.825 2.1 2.1 0 0 0-.175-.625.934.934 0 0 0-.35-.4 1.072 1.072 0 0 0-.575-.14 1.272 1.272 0 0 0-.61.13 1.183 1.183 0 0 0-.39.33 1.238 1.238 0 0 0-.175.3 1.936 1.936 0 0 0-.1.38 4.036 4.036 0 0 0-.055.505q-.015.285-.015.675a4.807 4.807 0 0 0 .05.68 2.107 2.107 0 0 0 .19.635 1.215 1.215 0 0 0 .395.465 1.377 1.377 0 0 0 1.325.02.965.965 0 0 0 .36-.46 2.418 2.418 0 0 0 .15-.725q.025-.425.025-.945Zm-4.13 4.95h.77v-6.81h-.77v-.14h1.61v.84h.02a1.529 1.529 0 0 1 .495-.7 1.392 1.392 0 0 1 .9-.275 1.826 1.826 0 0 1 .81.185 2.3 2.3 0 0 1 1.13 1.205 2.268 2.268 0 0 1 0 1.735 2.466 2.466 0 0 1-.475.735 2.328 2.328 0 0 1-.695.51 1.9 1.9 0 0 1-.835.19 1.3 1.3 0 0 1-.575-.115 1.363 1.363 0 0 1-.385-.27 1.245 1.245 0 0 1-.23-.32 1.9 1.9 0 0 1-.11-.265h-.02v3.49h.77v.14h-2.4Zm10.06-4.95a6.125 6.125 0 0 0-.05-.825 2.1 2.1 0 0 0-.175-.625.934.934 0 0 0-.35-.4 1.072 1.072 0 0 0-.575-.14 1.272 1.272 0 0 0-.61.13 1.183 1.183 0 0 0-.39.33 1.238 1.238 0 0 0-.175.3 1.936 1.936 0 0 0-.1.38 4.036 4.036 0 0 0-.055.505q-.015.285-.015.675a4.807 4.807 0 0 0 .05.68 2.107 2.107 0 0 0 .19.635 1.215 1.215 0 0 0 .395.465 1.377 1.377 0 0 0 1.325.02.965.965 0 0 0 .36-.46 2.418 2.418 0 0 0 .15-.725q.025-.425.025-.945Zm-4.13 4.95h.77v-6.81h-.77v-.14h1.61v.84h.02a1.529 1.529 0 0 1 .495-.7 1.392 1.392 0 0 1 .9-.275 1.826 1.826 0 0 1 .81.185 2.3 2.3 0 0 1 1.13 1.205 2.268 2.268 0 0 1 0 1.735 2.466 2.466 0 0 1-.475.735 2.328 2.328 0 0 1-.695.51 1.9 1.9 0 0 1-.835.19 1.3 1.3 0 0 1-.575-.115 1.363 1.363 0 0 1-.385-.27 1.245 1.245 0 0 1-.23-.32 1.9 1.9 0 0 1-.11-.265h-.02v3.49h.77v.14h-2.4Zm6.58-9.28a.529.529 0 1 1 .155.375.511.511 0 0 1-.155-.375Zm-.65 6.48h.77v-4.01h-.77v-.14h1.63v4.15h.77v.14h-2.4Zm6.2-2.48a1.846 1.846 0 0 0 .02-.26v-.25a2.017 2.017 0 0 0-.065-.56.91.91 0 0 0-.18-.35.636.636 0 0 0-.28-.185 1.116 1.116 0 0 0-.355-.055 1.056 1.056 0 0 0-.56.135.994.994 0 0 0-.35.365 1.88 1.88 0 0 0-.195.53 4.161 4.161 0 0 0-.085.63Zm-2.06.14v.2q0 .1-.005.265a6.255 6.255 0 0 0 .04.69 2.072 2.072 0 0 0 .175.65 1.212 1.212 0 0 0 .4.48 1.185 1.185 0 0 0 .7.19 1.753 1.753 0 0 0 .725-.13 1.334 1.334 0 0 0 .45-.315 1.364 1.364 0 0 0 .245-.375q.08-.19.12-.31l.15.03a2.872 2.872 0 0 1-.115.315 1.449 1.449 0 0 1-.27.41 1.637 1.637 0 0 1-.5.36 1.85 1.85 0 0 1-.815.155 2.6 2.6 0 0 1-.925-.16 2.114 2.114 0 0 1-.735-.46 2.079 2.079 0 0 1-.48-.715 2.419 2.419 0 0 1-.17-.925 2.18 2.18 0 0 1 .175-.855 2.4 2.4 0 0 1 1.195-1.25 1.983 1.983 0 0 1 1.48-.095 1.767 1.767 0 0 1 .595.325 1.786 1.786 0 0 1 .46.6 2.047 2.047 0 0 1 .185.92Zm3.81 2.34h.77v-4.01h-.77v-.14h1.61v1.01h.02a2.036 2.036 0 0 1 .13-.34 1.485 1.485 0 0 1 .25-.365 1.424 1.424 0 0 1 .385-.3 1.145 1.145 0 0 1 .545-.12.985.985 0 0 1 .4.075.864.864 0 0 1 .28.19.7.7 0 0 1 .16.265.944.944 0 0 1 .05.3.521.521 0 0 1-.15.44.576.576 0 0 1-.35.11q-.44 0-.44-.28a.434.434 0 0 1 .02-.145q.02-.055.045-.11a.9.9 0 0 0 .045-.125.768.768 0 0 0 .02-.2q0-.32-.35-.32a.62.62 0 0 0-.34.12 1.254 1.254 0 0 0-.335.35 2.2 2.2 0 0 0-.26.555 2.422 2.422 0 0 0-.1.745v2.29h.87v.145h-2.5Zm6.75-4.15h.77v-1.29q.08.03.15.05a.988.988 0 0 0 .24.02.861.861 0 0 0 .26-.035.653.653 0 0 0 .21-.115v1.37h1.42v.14h-1.42v3.27a1.554 1.554 0 0 0 .055.455.687.687 0 0 0 .145.27.434.434 0 0 0 .195.125.744.744 0 0 0 .205.03.7.7 0 0 0 .565-.255 1.235 1.235 0 0 0 .275-.585l.14.05a2.326 2.326 0 0 1-.09.29 1.011 1.011 0 0 1-.185.305.972.972 0 0 1-.325.24 1.163 1.163 0 0 1-.5.1 1.478 1.478 0 0 1-1.045-.29 1.1 1.1 0 0 1-.295-.82v-3.185h-.77Zm3.41 4.15h.77v-6.93h-.77v-.14h1.63v3.93h.02a2.081 2.081 0 0 1 .17-.325 1.581 1.581 0 0 1 .325-.37 1.914 1.914 0 0 1 .5-.3 1.8 1.8 0 0 1 .705-.125 1.711 1.711 0 0 1 1.075.32 1.207 1.207 0 0 1 .415 1.02v2.92h.77v.14h-2.4v-.14h.77v-3.23a1.048 1.048 0 0 0-.185-.64.668.668 0 0 0-.575-.25 1.386 1.386 0 0 0-.61.14 1.6 1.6 0 0 0-.51.39 1.848 1.848 0 0 0-.345.59 2.129 2.129 0 0 0-.125.74v2.26h.77v.14h-2.4Zm8.89-2.31h-.02q-.02.13-.33.26l-.75.3a1.093 1.093 0 0 0-.49.365.972.972 0 0 0-.17.585 1.681 1.681 0 0 0 .03.31.8.8 0 0 0 .11.285.61.61 0 0 0 .225.2.772.772 0 0 0 .375.08.931.931 0 0 0 .535-.14.916.916 0 0 0 .31-.35 1.477 1.477 0 0 0 .14-.455 3.172 3.172 0 0 0 .035-.445Zm1.75 2.34a1.37 1.37 0 0 1-.31.175 1.145 1.145 0 0 1-.44.075.984.984 0 0 1-.7-.2 1.089 1.089 0 0 1-.295-.575h-.02q-.04.09-.11.225a.892.892 0 0 1-.215.26 1.2 1.2 0 0 1-.385.21 1.853 1.853 0 0 1-.61.085 1.931 1.931 0 0 1-.67-.1 1.093 1.093 0 0 1-.39-.235.682.682 0 0 1-.185-.315 1.31 1.31 0 0 1-.045-.325 1 1 0 0 1 .14-.56 1.037 1.037 0 0 1 .365-.335 2.415 2.415 0 0 1 .5-.2q.275-.08.555-.17.33-.11.545-.19a.966.966 0 0 0 .335-.2.6.6 0 0 0 .165-.29 1.987 1.987 0 0 0 .045-.475 2.776 2.776 0 0 0-.03-.43.911.911 0 0 0-.11-.325.511.511 0 0 0-.23-.2.957.957 0 0 0-.4-.07 1.148 1.148 0 0 0-.545.115.393.393 0 0 0-.215.375 1.868 1.868 0 0 0 .03.335 1.519 1.519 0 0 1 .03.245.311.311 0 0 1-.1.235.405.405 0 0 1-.29.1q-.33 0-.41-.12a.549.549 0 0 1-.08-.31.927.927 0 0 1 .1-.42 1.058 1.058 0 0 1 .295-.355 1.467 1.467 0 0 1 .49-.245 2.315 2.315 0 0 1 .675-.09 2.231 2.231 0 0 1 .77.115 1.332 1.332 0 0 1 .5.31 1.126 1.126 0 0 1 .27.44 1.649 1.649 0 0 1 .08.515v2.49a.606.606 0 0 0 .09.39.332.332 0 0 0 .26.1.727.727 0 0 0 .23-.04.844.844 0 0 0 .23-.12Zm.28-.03h.77v-4.01h-.77v-.14h1.61v1.07h.02q.06-.13.175-.33a1.741 1.741 0 0 1 .315-.39 1.712 1.712 0 0 1 1.23-.46 1.711 1.711 0 0 1 1.075.32 1.207 1.207 0 0 1 .415 1.02v2.92h.77v.14h-2.4v-.14h.77v-3.23a1.048 1.048 0 0 0-.185-.64.668.668 0 0 0-.575-.25 1.386 1.386 0 0 0-.61.14 1.6 1.6 0 0 0-.51.39 1.848 1.848 0 0 0-.345.59 2.129 2.129 0 0 0-.125.74v2.26h.77v.14h-2.4Zm8.59-4.15h2.45v.14h-.84l1.29 3.14 1.35-3.14h-.83v-.14h1.53v.14h-.54l-1.65 3.86q-.19.43-.36.865t-.34.875a6.483 6.483 0 0 1-.28.63 2.058 2.058 0 0 1-.295.44 1.08 1.08 0 0 1-.335.255.974.974 0 0 1-.42.085 1.021 1.021 0 0 1-.465-.09.869.869 0 0 1-.275-.21.6.6 0 0 1-.13-.25 1.007 1.007 0 0 1-.03-.22.477.477 0 0 1 .14-.375.492.492 0 0 1 .34-.125.816.816 0 0 1 .15.015.478.478 0 0 1 .15.055.376.376 0 0 1 .12.11.285.285 0 0 1 .05.17.463.463 0 0 1-.085.265.479.479 0 0 0-.085.275.18.18 0 0 0 .07.17.383.383 0 0 0 .19.04.6.6 0 0 0 .295-.075.893.893 0 0 0 .265-.245 2.5 2.5 0 0 0 .26-.445q.13-.275.29-.675l.44-1.12-1.73-4.28h-.69Zm6.21 2.15a4.632 4.632 0 0 0 .11 1.13 1.738 1.738 0 0 0 .29.645.835.835 0 0 0 .42.3 1.893 1.893 0 0 0 1.02 0 .835.835 0 0 0 .42-.3 1.738 1.738 0 0 0 .29-.645 4.632 4.632 0 0 0 .11-1.13 5.3 5.3 0 0 0-.08-1.005 1.884 1.884 0 0 0-.245-.66.945.945 0 0 0-.415-.365 1.637 1.637 0 0 0-1.18 0 .945.945 0 0 0-.415.365 1.884 1.884 0 0 0-.245.66 5.3 5.3 0 0 0-.08 1.005Zm-1 0a1.968 1.968 0 0 1 .215-.91 2.53 2.53 0 0 1 1.3-1.2 2.039 2.039 0 0 1 1.63 0 2.53 2.53 0 0 1 1.3 1.2 1.968 1.968 0 0 1 .215.91 2.012 2.012 0 0 1-.2.885 2.48 2.48 0 0 1-1.27 1.215 2.144 2.144 0 0 1-1.72 0 2.48 2.48 0 0 1-1.27-1.215 2.012 2.012 0 0 1-.2-.885Zm10.8 2.14h-1.61v-1.01h-.02a3.682 3.682 0 0 1-.215.405 1.634 1.634 0 0 1-.31.37 1.568 1.568 0 0 1-.43.27 1.451 1.451 0 0 1-.575.105 1.955 1.955 0 0 1-.65-.09 1.634 1.634 0 0 1-.39-.19 1.962 1.962 0 0 1-.155-.125.734.734 0 0 1-.155-.2 1.43 1.43 0 0 1-.12-.335 2.168 2.168 0 0 1-.05-.5v-2.85h-.77v-.14h1.63v3.07a3.063 3.063 0 0 0 .035.48 1.055 1.055 0 0 0 .135.385.747.747 0 0 0 .26.26.816.816 0 0 0 .42.1.939.939 0 0 0 .455-.13 1.481 1.481 0 0 0 .43-.37 2.12 2.12 0 0 0 .325-.575 2.073 2.073 0 0 0 .13-.755v-2.325h-.76v-.14h1.62v4.15h.77Zm1.13-4.59a3.425 3.425 0 0 0 .475-.4 2.178 2.178 0 0 0 .29-.37 1.191 1.191 0 0 0 .14-.315 1.014 1.014 0 0 0 .035-.24.748.748 0 0 0-.18-.52.5.5 0 0 1-.43.25.6.6 0 0 1-.37-.14.477.477 0 0 1-.18-.4.54.54 0 0 1 .175-.4.6.6 0 0 1 .435-.17.675.675 0 0 1 .345.09.924.924 0 0 1 .265.23.959.959 0 0 1 .165.33 1.361 1.361 0 0 1 .055.38 1.47 1.47 0 0 1-.12.575 2.753 2.753 0 0 1-.29.525 2.526 2.526 0 0 1-.37.42 3.187 3.187 0 0 1-.35.28Zm1.79 4.45h.77v-4.01h-.77v-.14h1.61v1.01h.02a2.037 2.037 0 0 1 .13-.34 1.484 1.484 0 0 1 .25-.365 1.424 1.424 0 0 1 .385-.3 1.145 1.145 0 0 1 .545-.12.984.984 0 0 1 .4.075.864.864 0 0 1 .28.19.7.7 0 0 1 .16.265.944.944 0 0 1 .05.3.521.521 0 0 1-.15.44.576.576 0 0 1-.35.11q-.44 0-.44-.28a.434.434 0 0 1 .02-.145q.02-.055.045-.11a.9.9 0 0 0 .045-.125.769.769 0 0 0 .02-.2q0-.32-.35-.32a.62.62 0 0 0-.34.12 1.254 1.254 0 0 0-.335.35 2.2 2.2 0 0 0-.26.555 2.422 2.422 0 0 0-.105.745v2.29h.87v.145h-2.5Zm7.32-2.48a1.848 1.848 0 0 0 .02-.26v-.25a2.018 2.018 0 0 0-.065-.56.91.91 0 0 0-.18-.35.636.636 0 0 0-.28-.185 1.116 1.116 0 0 0-.355-.055 1.056 1.056 0 0 0-.56.135 1 1 0 0 0-.35.365 1.88 1.88 0 0 0-.2.53 4.164 4.164 0 0 0-.085.63Zm-2.06.14q0 .1-.005.2t-.005.265a6.253 6.253 0 0 0 .04.69 2.072 2.072 0 0 0 .175.65 1.212 1.212 0 0 0 .4.48 1.185 1.185 0 0 0 .705.19 1.753 1.753 0 0 0 .725-.13 1.334 1.334 0 0 0 .45-.315 1.364 1.364 0 0 0 .245-.375q.08-.19.12-.31l.15.03a2.875 2.875 0 0 1-.115.315 1.449 1.449 0 0 1-.27.41 1.637 1.637 0 0 1-.5.36 1.85 1.85 0 0 1-.815.155 2.6 2.6 0 0 1-.925-.16 2.114 2.114 0 0 1-.735-.46 2.078 2.078 0 0 1-.48-.715 2.419 2.419 0 0 1-.17-.925 2.18 2.18 0 0 1 .175-.855 2.4 2.4 0 0 1 1.2-1.25 1.983 1.983 0 0 1 1.48-.095 1.767 1.767 0 0 1 .6.325 1.786 1.786 0 0 1 .46.6 2.047 2.047 0 0 1 .185.92Zm6.49-1.81h.77v-1.29q.08.03.15.05a.989.989 0 0 0 .24.02.861.861 0 0 0 .26-.035.653.653 0 0 0 .21-.115v1.37h1.42v.14h-1.42v3.27a1.554 1.554 0 0 0 .055.455.687.687 0 0 0 .145.27.434.434 0 0 0 .2.125.744.744 0 0 0 .2.03.7.7 0 0 0 .565-.255 1.235 1.235 0 0 0 .275-.585l.14.05a2.326 2.326 0 0 1-.09.29 1.011 1.011 0 0 1-.185.305.972.972 0 0 1-.325.24 1.163 1.163 0 0 1-.5.1 1.478 1.478 0 0 1-1.045-.29 1.1 1.1 0 0 1-.295-.82v-3.185h-.77Zm3.41 4.15h.77v-6.93h-.77v-.14h1.63v3.93h.02a2.082 2.082 0 0 1 .17-.325 1.58 1.58 0 0 1 .325-.37 1.914 1.914 0 0 1 .5-.3 1.8 1.8 0 0 1 .705-.125 1.711 1.711 0 0 1 1.075.32 1.207 1.207 0 0 1 .415 1.02v2.92h.77v.14h-2.4v-.14h.77v-3.23a1.048 1.048 0 0 0-.185-.64.668.668 0 0 0-.575-.25 1.386 1.386 0 0 0-.61.14 1.6 1.6 0 0 0-.51.39 1.848 1.848 0 0 0-.345.59 2.129 2.129 0 0 0-.125.74v2.26h.77v.14h-2.4Zm7.31-2a4.632 4.632 0 0 0 .11 1.13 1.738 1.738 0 0 0 .29.645.835.835 0 0 0 .42.3 1.893 1.893 0 0 0 1.02 0 .835.835 0 0 0 .42-.3 1.738 1.738 0 0 0 .29-.645 4.632 4.632 0 0 0 .11-1.13 5.3 5.3 0 0 0-.08-1.005 1.884 1.884 0 0 0-.245-.66.945.945 0 0 0-.415-.365 1.637 1.637 0 0 0-1.18 0 .945.945 0 0 0-.415.365 1.884 1.884 0 0 0-.245.66 5.3 5.3 0 0 0-.08 1.005Zm-1 0a1.968 1.968 0 0 1 .215-.91 2.53 2.53 0 0 1 1.3-1.2 2.039 2.039 0 0 1 1.63 0 2.53 2.53 0 0 1 1.3 1.2 1.968 1.968 0 0 1 .215.91 2.012 2.012 0 0 1-.2.885 2.48 2.48 0 0 1-1.27 1.215 2.144 2.144 0 0 1-1.72 0 2.48 2.48 0 0 1-1.27-1.215 2.012 2.012 0 0 1-.2-.885Zm10.8 2.14h-1.61v-1.01h-.02a3.682 3.682 0 0 1-.215.405 1.634 1.634 0 0 1-.31.37 1.568 1.568 0 0 1-.43.27 1.451 1.451 0 0 1-.575.105 1.955 1.955 0 0 1-.65-.09 1.634 1.634 0 0 1-.39-.19 1.962 1.962 0 0 1-.155-.125.734.734 0 0 1-.155-.2 1.43 1.43 0 0 1-.12-.335 2.168 2.168 0 0 1-.05-.5v-2.85h-.77v-.14h1.63v3.07a3.063 3.063 0 0 0 .035.48 1.055 1.055 0 0 0 .135.385.747.747 0 0 0 .26.26.816.816 0 0 0 .42.1.939.939 0 0 0 .455-.13 1.481 1.481 0 0 0 .43-.37 2.12 2.12 0 0 0 .325-.575 2.073 2.073 0 0 0 .13-.755v-2.325h-.76v-.14h1.62v4.15h.77Zm2.18.3-.265.165a.976.976 0 0 0-.24.215 1.079 1.079 0 0 0-.17.3 1.483 1.483 0 0 0 .06 1.03 1.12 1.12 0 0 0 .32.38 1.215 1.215 0 0 0 .435.2 1.934 1.934 0 0 0 .47.06 1.862 1.862 0 0 0 .655-.11 1.665 1.665 0 0 0 .51-.295 1.3 1.3 0 0 0 .33-.425 1.144 1.144 0 0 0 .115-.5.943.943 0 0 0-.305-.8 1.336 1.336 0 0 0-.835-.235Zm1.62-3.25a3.668 3.668 0 0 0-.03-.465 1.371 1.371 0 0 0-.125-.43.753.753 0 0 0-.29-.315 1 1 0 0 0-.525-.12.948.948 0 0 0-.77.31 1.588 1.588 0 0 0-.26 1.02 2.945 2.945 0 0 0 .045.54 1.074 1.074 0 0 0 .165.415.755.755 0 0 0 .32.265 1.248 1.248 0 0 0 .51.09.828.828 0 0 0 .74-.325 1.774 1.774 0 0 0 .22-.985Zm-3.12 2.3a1.008 1.008 0 0 1 .1-.465 1.344 1.344 0 0 1 .245-.34 1.359 1.359 0 0 1 .31-.235q.165-.09.295-.15a1.248 1.248 0 0 1-.58-1.08 1.19 1.19 0 0 1 .17-.63 1.674 1.674 0 0 1 .43-.475 1.918 1.918 0 0 1 .575-.3 2 2 0 0 1 .6-.1 1.576 1.576 0 0 1 .775.18 2.191 2.191 0 0 1 .475.33 1.181 1.181 0 0 1 .325-.35.871.871 0 0 1 .535-.16.816.816 0 0 1 .37.085.368.368 0 0 1 .17.365.322.322 0 0 1-.115.27.379.379 0 0 1-.235.09.234.234 0 0 1-.2-.08 1.111 1.111 0 0 1-.1-.17q-.045-.09-.1-.17a.165.165 0 0 0-.15-.08.329.329 0 0 0-.205.085 1.027 1.027 0 0 0-.185.195 2.211 2.211 0 0 1 .23.34 1.175 1.175 0 0 1 .14.6 1.049 1.049 0 0 1-.15.55 1.591 1.591 0 0 1-.4.44 1.848 1.848 0 0 1-.57.3 2.15 2.15 0 0 1-.665.1 1.776 1.776 0 0 1-.61-.1 4.057 4.057 0 0 1-.4-.165l-.235.11a1.05 1.05 0 0 0-.23.15.787.787 0 0 0-.175.215.573.573 0 0 0-.07.285.479.479 0 0 0 .06.25.393.393 0 0 0 .155.15.709.709 0 0 0 .215.07 1.519 1.519 0 0 0 .25.02h1.58a1.724 1.724 0 0 1 1.115.335 1.276 1.276 0 0 1 .415 1.055 1.687 1.687 0 0 1-.19.8 2.077 2.077 0 0 1-.505.625 2.312 2.312 0 0 1-.725.41 2.5 2.5 0 0 1-.84.145 2.674 2.674 0 0 1-.715-.09 2.037 2.037 0 0 1-.565-.245 1.184 1.184 0 0 1-.375-.375.918.918 0 0 1-.135-.49 1.068 1.068 0 0 1 .1-.475 1.405 1.405 0 0 1 .27-.38 1.767 1.767 0 0 1 .375-.285 3 3 0 0 1 .42-.2v-.01a1.753 1.753 0 0 1-.975-.215.825.825 0 0 1-.3-.735Zm5 .51h.77v-6.93h-.77v-.14h1.63v3.93h.02a2.082 2.082 0 0 1 .17-.325 1.58 1.58 0 0 1 .325-.37 1.914 1.914 0 0 1 .5-.3 1.8 1.8 0 0 1 .705-.125 1.711 1.711 0 0 1 1.075.32 1.207 1.207 0 0 1 .415 1.02v2.92h.77v.14h-2.4v-.14h.77v-3.23a1.048 1.048 0 0 0-.185-.64.668.668 0 0 0-.575-.25 1.386 1.386 0 0 0-.61.14 1.6 1.6 0 0 0-.51.39 1.848 1.848 0 0 0-.345.59 2.129 2.129 0 0 0-.125.74v2.26h.77v.14h-2.4Zm6.03-4.15h.77v-1.29q.08.03.15.05a.989.989 0 0 0 .24.02.861.861 0 0 0 .26-.035.653.653 0 0 0 .21-.115v1.37h1.42v.14h-1.42v3.27a1.554 1.554 0 0 0 .055.455.687.687 0 0 0 .145.27.434.434 0 0 0 .2.125.744.744 0 0 0 .2.03.7.7 0 0 0 .565-.255 1.235 1.235 0 0 0 .275-.585l.14.05a2.326 2.326 0 0 1-.09.29 1.011 1.011 0 0 1-.185.305.972.972 0 0 1-.325.24 1.163 1.163 0 0 1-.5.1 1.478 1.478 0 0 1-1.045-.29 1.1 1.1 0 0 1-.295-.82v-3.185h-.77Zm4.02 3.87a.529.529 0 1 1 .155.375.511.511 0 0 1-.155-.375Z"/></g></g></svg>