<svg xmlns="http://www.w3.org/2000/svg" width="170.808" height="83.6"><path data-name="パス 43" d="M1.408 17.336a6.161 6.161 0 0 1 1.848 3.784c.264.88.528 2.992.528 11v42.944c0 4.136-.352 5.456-.7 6.16a6.009 6.009 0 0 1-1.76 2.376h10.3c-3.52-2.816-2.728-10.824-2.728-14.872V54.912c4.488 4.4 7.744 7.656 14.96 7.04C35.992 60.896 43.824 48.484 43.824 37.4c0-16.984-9.856-24.552-19.272-24.552A16.359 16.359 0 0 0 8.888 23.496V12.848h-.176L0 16.456a3.445 3.445 0 0 1 1.408.88Zm7.48 9.24c.792-7.216 5.984-10.912 11.792-10.912 7.92 0 17.072 7.04 17.072 21.736 0 9.064-3.344 22.968-13.992 23.848-5.28.528-10.208-1.408-12.672-6.16a19.018 19.018 0 0 1-2.2-7.392Zm41.272-5.808c.176.792.352 2.728.352 10.648v19.268c0 4.048-.176 5.28-.352 5.72a7.021 7.021 0 0 1-2.112 3.52h11.088c-3.168-2.288-3.52-5.984-3.52-9.68V26.4c1.5-4.576 4.928-9.768 9.328-9.768a7.3 7.3 0 0 1 4.488 1.76 4.96 4.96 0 0 0 3.08 1.408 2.773 2.773 0 0 0 1.936-.88 3.525 3.525 0 0 0-.44-5.016 4.536 4.536 0 0 0-3.168-1.144c-5.808 0-13.024 6.512-15.224 11.792v-11.88l-9.064 3.7c2.112.612 3.172 2.284 3.608 4.396Zm30.008-.176c.352 1.76.44 5.28.44 10.912v19.18c0 3.08 0 6.864-2.376 9.24h10.12a7.571 7.571 0 0 1-1.76-2.284c-.268-.792-.792-2.464-.792-6.956V12.672h-.088l-8.976 3.612c2.112.612 2.904 2.372 3.432 4.308ZM78.936 3.608a3.55 3.55 0 0 0 3.608 3.52 3.607 3.607 0 0 0 3.608-3.52A3.624 3.624 0 0 0 82.544 0a3.516 3.516 0 0 0-3.608 3.608ZM92.4 37.048c0 7.48 2.024 13.64 5.808 18.04a17.844 17.844 0 0 0 13.376 6.336c7.48 0 14.784-5.1 17.424-13.9.088-.088 0-.264-.176-.352a.943.943 0 0 0-.528.176c-1.936 6.688-7.04 9.68-12.408 9.68a16.934 16.934 0 0 1-13.9-7.832 30.879 30.879 0 0 1-4.58-16.812c0-9.856 3.344-17.512 13.816-19.008 5.984-.792 9.944.792 10.472 7.216.352 2.552.7 3.256.968 3.432.352.616 1.144 1.32 3.256 1.32 1.936 0 3.08-.7 3.08-2.728q0-3.3-3.96-6.6c-3.52-2.816-9.24-3.96-13.552-3.432C99.88 13.64 92.4 25.696 92.4 37.048Zm40.3.616c0 7.3 2.024 13.2 5.9 17.512a18.343 18.343 0 0 0 13.904 6.248c8.272 0 15.048-6.16 17.336-13.9.088-.176 0-.352-.176-.352-.264-.088-.44 0-.44.176-2.024 6.512-5.456 9.064-12.584 9.064-5.456 0-10.3-2.288-14.256-6.952-3.168-3.7-5.016-9.944-2.112-14.344 1.672-2.552 5.016-4.224 10.032-5.192 6.688-1.232 13.728-.88 20.5-.88-.524-9.86-7.48-16.636-17.42-16.636-14.168 0-20.68 12.32-20.68 25.256Zm11.092-22.088a16.827 16.827 0 0 1 8.184-2.376c4.224 0 8.1 2.2 10.3 7.04.7 1.5.968 3.96 1.144 7.392v.7c-8.184 0-25.344 0-25.344 11.7a8.981 8.981 0 0 0 .264 2.64c-4.052-10.552-2.908-22.52 5.452-27.096Z"/></svg>