<svg xmlns="http://www.w3.org/2000/svg" width="301.643" height="75.768"><path data-name="パス 41" d="M2.091 45.06c.968 1.32 3.432 3.52 9.68 6.512 5.456 2.816 9.064 5.016 10.912 6.864 5.632 5.28 3.96 13.9-3.872 16.1a14.021 14.021 0 0 1-3.784.524c-6.248 0-12.056-4.4-14.784-10.032v8.1a3.69 3.69 0 0 1 1.936-.44c3.432 0 7.92 3.08 13.288 3.08 7.3 0 14.608-6.776 14.608-14.168 0-5.016-3.168-9.152-9.856-12.32l-8.008-3.872c-3.7-1.848-6.16-3.52-7.48-5.192-4.4-5.544-1.848-12.144 4.928-14.08a15.288 15.288 0 0 1 3.432-.44c6.776 0 10.56 3.08 13.288 8.8V27.46a3.173 3.173 0 0 1-1.76.528c-.792.176-2.112-.264-3.784-1.056a16.131 16.131 0 0 0-7.568-1.936 13.554 13.554 0 0 0-3.784.528C1.915 27.632-3.013 38.632 2.091 45.06Zm31.592 5.368c0 7.48 2.024 13.64 5.808 18.04A17.844 17.844 0 0 0 52.867 74.8c7.48 0 14.784-5.1 17.424-13.9.088-.088 0-.264-.176-.352a.943.943 0 0 0-.528.176c-1.94 6.684-7.04 9.676-12.408 9.676a16.934 16.934 0 0 1-13.9-7.832 30.879 30.879 0 0 1-4.58-16.808c0-9.856 3.344-17.512 13.816-19.008 5.984-.792 9.944.792 10.472 7.216.352 2.552.7 3.256.968 3.432.352.616 1.144 1.32 3.256 1.32 1.936 0 3.08-.7 3.08-2.728q0-3.3-3.96-6.6c-3.52-2.816-9.24-3.96-13.552-3.432-11.616 1.056-19.096 13.112-19.096 24.464ZM72.491 3.612c2.024.7 2.9 2.64 3.432 4.576.176.88.352 3.08.352 10.824V64.06c0 4.488-.352 6.072-.792 6.864a6.62 6.62 0 0 1-1.584 2.376h9.948a6.948 6.948 0 0 1-1.672-2.2c-.264-.792-.7-2.2-.7-7.04V50.072a31.918 31.918 0 0 1 3.784-13.2c2.64-4.752 7.568-8.184 11.88-8.184 3.168 0 6.072 1.848 7.568 6.424.7 2.024 1.056 5.544 1.056 11.352v17.6a29.049 29.049 0 0 1-.264 5.368v.176a6.753 6.753 0 0 1-2.112 3.7h9.856a5.572 5.572 0 0 1-1.416-2.116c-.616-1.408-.88-3.7-.88-7.128V46.46c0-7.48-.176-20.5-10.648-20.5-5.72 0-12.32 4.664-15.664 10.56a31.113 31.113 0 0 0-3.168 8.624V0h-.176Zm44.792 47.428c0 7.3 2.024 13.2 5.9 17.512a18.343 18.343 0 0 0 13.9 6.248c8.272 0 15.048-6.16 17.336-13.9.088-.176 0-.352-.176-.352-.264-.088-.44 0-.44.176-2.024 6.508-5.456 9.06-12.584 9.06-5.456 0-10.3-2.288-14.256-6.952-3.168-3.7-5.016-9.944-2.112-14.344 1.672-2.552 5.016-4.224 10.032-5.192 6.688-1.232 13.728-.88 20.5-.88-.524-9.856-7.476-16.632-17.42-16.632-14.168 0-20.68 12.32-20.68 25.256Zm11.088-22.088a16.827 16.827 0 0 1 8.184-2.376c4.224 0 8.1 2.2 10.3 7.04.7 1.5.968 3.96 1.144 7.392v.7c-8.184 0-25.344 0-25.344 11.7a8.981 8.981 0 0 0 .264 2.64c-4.052-10.552-2.908-22.52 5.452-27.096Zm50.076 45.76c6.6 0 13.024-3.432 15.576-10.56V74.8h.176l8.708-3.608a2.957 2.957 0 0 1-1.408-.88 6.794 6.794 0 0 1-2.024-3.7c-.176-.88-.352-3.08-.352-11.088V0h-.264l-8.624 3.608a7.866 7.866 0 0 1 1.408.792 5.924 5.924 0 0 1 1.848 3.784c.176.88.528 3.08.528 10.824v13.816c-4.488-4.4-7.832-7.744-14.96-7.128-5.368.528-10.472 4.136-13.552 8.448a28.856 28.856 0 0 0-6.424 18.3c0 11.616 6.864 22.268 19.364 22.268Zm.7-48.312c5.28-.352 10.208 1.5 12.672 6.248a21.1 21.1 0 0 1 2.2 7.48v20.944a12.276 12.276 0 0 1-12.232 11.088c-3.872 0-8.008-1.76-11.44-5.9-3.344-4.312-5.192-10.384-5.192-18.128 0-9.236 3.256-20.672 13.992-21.732Zm27.368 3.08c.616 1.408.88 3.7.88 7.216v21.208c0 7.216 1.5 16.808 10.824 16.808 6.072 0 12.936-4.752 16.192-10.56a29.12 29.12 0 0 0 2.552-5.984v16.544h.084l8.976-3.7c-4.664-1.584-3.96-11.792-3.96-15.84V27.46h-7.476a5.27 5.27 0 0 1 1.584 2.2c.352.792.792 2.112.792 7.04v18.656a31.6 31.6 0 0 1-3.08 8.448c-2.636 4.656-7.744 8.268-12.408 8.268-7.832 0-8.888-9.152-8.888-15.048l-.088-29.564h-7.48a4.882 4.882 0 0 1 1.496 2.02Zm42.856-24.992a5.126 5.126 0 0 1 1.848 3.7c.264.88.44 2.992.44 10.648V64.06c0 3.344-.176 5.544-.792 6.952a7.094 7.094 0 0 1-1.584 2.288h10.032c-2.468-2.108-2.468-6.332-2.468-9.24V0h-.088l-8.8 3.608a3.445 3.445 0 0 1 1.412.88Zm14.168 46.552c0 7.3 2.024 13.2 5.9 17.512a18.343 18.343 0 0 0 13.9 6.248c8.272 0 15.048-6.16 17.336-13.9.088-.176 0-.352-.176-.352-.264-.088-.44 0-.44.176-2.024 6.512-5.456 9.064-12.584 9.064-5.456 0-10.3-2.288-14.256-6.952-3.168-3.7-5.016-9.944-2.112-14.344 1.672-2.552 5.016-4.224 10.032-5.192 6.688-1.232 13.728-.88 20.5-.88-.528-9.856-7.48-16.632-17.424-16.632-14.168-.004-20.676 12.316-20.676 25.252Zm11.088-22.088a16.827 16.827 0 0 1 8.184-2.376c4.224 0 8.1 2.2 10.3 7.04.7 1.5.968 3.96 1.144 7.392v.7c-8.184 0-25.344 0-25.344 11.7a8.981 8.981 0 0 0 .264 2.64c-4.052-10.552-2.908-22.52 5.452-27.096Z"/></svg>