<svg xmlns="http://www.w3.org/2000/svg" width="239.867" height="62.392"><path data-name="パス 42" d="M2.091 31.684c.968 1.32 3.432 3.52 9.68 6.512 5.456 2.816 9.064 5.016 10.912 6.864 5.632 5.28 3.96 13.9-3.872 16.1a14.021 14.021 0 0 1-3.784.524c-6.248 0-12.056-4.4-14.784-10.032v8.1a3.69 3.69 0 0 1 1.936-.44c3.432 0 7.92 3.08 13.288 3.08 7.3 0 14.608-6.776 14.608-14.168 0-5.016-3.168-9.152-9.856-12.32l-8.008-3.872c-3.7-1.848-6.16-3.52-7.48-5.192-4.4-5.544-1.848-12.144 4.928-14.08a15.289 15.289 0 0 1 3.432-.44c6.776 0 10.56 3.08 13.288 8.8v-7.036a3.173 3.173 0 0 1-1.76.528c-.792.176-2.112-.264-3.784-1.056a16.13 16.13 0 0 0-7.568-1.936 13.554 13.554 0 0 0-3.784.528C1.915 14.256-3.013 25.256 2.091 31.684Zm31.68 5.984c0 7.3 2.024 13.2 5.9 17.512a18.343 18.343 0 0 0 13.9 6.244c8.272 0 15.048-6.16 17.336-13.9.088-.176 0-.352-.176-.352-.264-.088-.44 0-.44.176-2.024 6.512-5.456 9.064-12.584 9.064-5.456 0-10.3-2.288-14.256-6.952-3.168-3.7-5.016-9.944-2.112-14.344 1.672-2.552 5.016-4.224 10.032-5.192 6.688-1.232 13.728-.88 20.5-.88-.528-9.856-7.48-16.632-17.424-16.632-14.164-.004-20.676 12.316-20.676 25.252Zm11.088-22.092a16.827 16.827 0 0 1 8.184-2.376c4.224 0 8.1 2.2 10.3 7.04.7 1.5.968 3.96 1.144 7.392v.7c-8.184 0-25.344 0-25.344 11.7a8.981 8.981 0 0 0 .264 2.64c-4.048-10.552-2.908-22.52 5.452-27.096Zm33 5.192c.176.792.352 2.728.352 10.648v19.268c0 4.048-.176 5.28-.352 5.72a7.021 7.021 0 0 1-2.112 3.52h11.088c-3.168-2.288-3.52-5.984-3.52-9.68V26.4c1.5-4.576 4.928-9.768 9.328-9.768a7.3 7.3 0 0 1 4.488 1.76 4.96 4.96 0 0 0 3.08 1.408 2.773 2.773 0 0 0 1.936-.88 3.525 3.525 0 0 0-.44-5.016 4.536 4.536 0 0 0-3.168-1.144c-5.808 0-13.024 6.512-15.224 11.792v-11.88l-9.064 3.7c2.108.612 3.168 2.284 3.608 4.396Zm29.216 0 17.072 40.304 18.212-43.648a7.978 7.978 0 0 1 2.464-3.256h-4.308c.088 0 .088.088.264.176a3.091 3.091 0 0 1 .88 2.992l-15.312 36.52-12.848-30.624a13.257 13.257 0 0 1-1.32-5.28 5.569 5.569 0 0 1 1.408-3.784h-11.264c2.464 1.408 3.784 4.048 4.752 6.6Zm42.152-.176c.352 1.76.44 5.28.44 10.912v19.18c0 3.08 0 6.864-2.376 9.24h10.12a7.571 7.571 0 0 1-1.76-2.288c-.264-.792-.792-2.464-.792-6.952V12.672h-.088l-8.976 3.612c2.112.612 2.904 2.372 3.432 4.308Zm-1.232-16.984a3.55 3.55 0 0 0 3.608 3.52 3.607 3.607 0 0 0 3.608-3.52A3.624 3.624 0 0 0 151.603 0a3.516 3.516 0 0 0-3.608 3.608Zm13.464 33.44c0 7.48 2.024 13.64 5.808 18.04a17.844 17.844 0 0 0 13.376 6.336c7.48 0 14.784-5.1 17.424-13.9.088-.088 0-.264-.176-.352a.943.943 0 0 0-.528.176c-1.936 6.684-7.04 9.676-12.404 9.676a16.934 16.934 0 0 1-13.9-7.832 30.879 30.879 0 0 1-4.584-16.808c0-9.856 3.344-17.512 13.816-19.008 5.984-.792 9.944.792 10.472 7.216.352 2.552.7 3.256.968 3.432.352.616 1.144 1.32 3.256 1.32 1.936 0 3.08-.7 3.08-2.728q0-3.3-3.96-6.6c-3.52-2.816-9.24-3.96-13.552-3.432-11.616 1.056-19.096 13.112-19.096 24.464Zm40.3.616c0 7.3 2.024 13.2 5.9 17.512a18.343 18.343 0 0 0 13.9 6.248c8.272 0 15.048-6.16 17.336-13.9.088-.176 0-.352-.176-.352-.264-.088-.44 0-.44.176-2.024 6.512-5.456 9.064-12.584 9.064-5.456 0-10.3-2.288-14.256-6.952-3.168-3.7-5.016-9.944-2.112-14.344 1.672-2.552 5.016-4.224 10.032-5.192 6.688-1.232 13.728-.88 20.5-.88-.528-9.856-7.48-16.632-17.424-16.632-14.16-.004-20.676 12.316-20.676 25.252Zm11.092-22.088a16.827 16.827 0 0 1 8.184-2.376c4.224 0 8.1 2.2 10.3 7.04.7 1.5.968 3.96 1.144 7.392v.7c-8.184 0-25.344 0-25.344 11.7a8.981 8.981 0 0 0 .264 2.64c-4.052-10.552-2.908-22.52 5.452-27.096Z"/></svg>