<svg xmlns="http://www.w3.org/2000/svg" width="198.352" height="83.6"><path data-name="パス 44" d="M5.456 14.084v35.288c0 5.544 1.056 11.352 7.744 11.352a9.668 9.668 0 0 0 5.984-2.288 2.808 2.808 0 0 0 .616-.528 5.686 5.686 0 0 1-2.376.44c-5.632 0-6.864-5.72-6.864-10.208V13.904h4.752a.233.233 0 0 0 .264-.264c0-.176-.088-.44-.264-.44H10.56V1.232A20.957 20.957 0 0 1 8.976 4.4a31.444 31.444 0 0 1-5.9 7.128 19.692 19.692 0 0 1-3.08 2.552Zm12.76 23.4c0 12.672 9.064 24.2 21.56 24.2 13.64 0 22.528-12.58 22.528-25.6 0-12.32-9.24-23.76-21.648-23.76-13.376-.004-22.44 12.404-22.44 25.16Zm6.16-4.576c0-9.328 1.848-17.336 12.32-19.448a14.693 14.693 0 0 1 3.256-.352c12.584 0 16.1 16.368 16.1 27.192 0 9.152-.792 17.16-10.56 19.8a18.124 18.124 0 0 1-4.576.7c-12.492.008-16.54-17.152-16.54-27.888Zm42.592-15.576a6.161 6.161 0 0 1 1.848 3.784c.264.88.528 2.992.528 11v42.948c0 4.136-.352 5.456-.7 6.16a6.009 6.009 0 0 1-1.76 2.376h10.3c-3.52-2.816-2.728-10.824-2.728-14.872V54.912c4.488 4.4 7.744 7.656 14.96 7.04 12.136-1.056 19.968-13.468 19.968-24.552 0-16.984-9.856-24.552-19.272-24.552a16.359 16.359 0 0 0-15.664 10.648V12.848h-.176l-8.712 3.608a3.445 3.445 0 0 1 1.408.88Zm7.48 9.24c.792-7.216 5.984-10.912 11.792-10.912 7.92 0 17.072 7.04 17.072 21.736 0 9.068-3.344 22.972-13.992 23.852-5.28.528-10.208-1.408-12.672-6.164a19.018 19.018 0 0 1-2.2-7.392Zm41.184-5.98c.352 1.76.44 5.28.44 10.912v19.18c0 3.08 0 6.864-2.376 9.24h10.12a7.571 7.571 0 0 1-1.76-2.288c-.264-.792-.792-2.464-.792-6.952V12.672h-.088l-8.976 3.612c2.112.612 2.904 2.372 3.432 4.308ZM114.4 3.608a3.55 3.55 0 0 0 3.608 3.52 3.607 3.607 0 0 0 3.608-3.52A3.624 3.624 0 0 0 118.008 0a3.516 3.516 0 0 0-3.608 3.608Zm13.464 33.44c0 7.48 2.024 13.64 5.808 18.04a17.844 17.844 0 0 0 13.376 6.336c7.48 0 14.784-5.1 17.424-13.9.088-.088 0-.264-.176-.352a.943.943 0 0 0-.528.176c-1.936 6.688-7.04 9.68-12.408 9.68a16.934 16.934 0 0 1-13.9-7.832 30.879 30.879 0 0 1-4.58-16.812c0-9.856 3.344-17.512 13.816-19.008 5.984-.792 9.944.792 10.472 7.216.352 2.552.7 3.256.968 3.432.352.616 1.144 1.32 3.256 1.32 1.936 0 3.08-.7 3.08-2.728q0-3.3-3.96-6.6c-3.52-2.816-9.24-3.96-13.552-3.432-11.616 1.056-19.096 13.112-19.096 24.464Zm42.5-5.368c.968 1.32 3.432 3.52 9.68 6.512 5.456 2.816 9.064 5.016 10.912 6.864 5.632 5.28 3.96 13.9-3.872 16.1a14.021 14.021 0 0 1-3.78.528c-6.248 0-12.056-4.4-14.784-10.028v8.1a3.69 3.69 0 0 1 1.936-.44c3.432 0 7.92 3.08 13.288 3.08 7.3 0 14.608-6.776 14.608-14.168 0-5.016-3.168-9.152-9.856-12.32l-8.004-3.876c-3.7-1.848-6.16-3.52-7.48-5.192-4.4-5.544-1.848-12.144 4.928-14.08a15.289 15.289 0 0 1 3.432-.44c6.776 0 10.56 3.08 13.288 8.8v-7.036a3.173 3.173 0 0 1-1.76.528c-.792.176-2.112-.264-3.784-1.056a16.13 16.13 0 0 0-7.568-1.936 13.554 13.554 0 0 0-3.784.528c-7.572 2.108-12.5 13.108-7.396 19.536Z"/></svg>